<?xml version="1.0" encoding="UTF-8" standalone="no"?>
<!-- Created with Inkscape (http://www.inkscape.org/) -->

<svg
   xmlns:dc="http://purl.org/dc/elements/1.1/"
   xmlns:cc="http://creativecommons.org/ns#"
   xmlns:rdf="http://www.w3.org/1999/02/22-rdf-syntax-ns#"
   xmlns:svg="http://www.w3.org/2000/svg"
   xmlns="http://www.w3.org/2000/svg"
   xmlns:sodipodi="http://sodipodi.sourceforge.net/DTD/sodipodi-0.dtd"
   xmlns:inkscape="http://www.inkscape.org/namespaces/inkscape"
   width="74.699997"
   height="95.099998"
   id="svg2"
   version="1.1"
   inkscape:version="0.47 r22583"
   sodipodi:docname="MJ7wan.svg">
  <defs
     id="defs4" />
  <sodipodi:namedview
     id="base"
     pagecolor="#ffffff"
     bordercolor="#666666"
     borderopacity="1.0"
     inkscape:pageopacity="0.0"
     inkscape:pageshadow="2"
     inkscape:zoom="3.959798"
     inkscape:cx="133.97148"
     inkscape:cy="42.151215"
     inkscape:document-units="px"
     inkscape:current-layer="g4079"
     showgrid="false"
     inkscape:window-width="1440"
     inkscape:window-height="851"
     inkscape:window-x="0"
     inkscape:window-y="25"
     inkscape:window-maximized="1" />
  <metadata
     id="metadata7">
    <rdf:RDF>
      <cc:Work
         rdf:about="">
        <dc:format>image/svg+xml</dc:format>
        <dc:type
           rdf:resource="http://purl.org/dc/dcmitype/StillImage" />
      </cc:Work>
    </rdf:RDF>
  </metadata>
  <g
     transform="translate(-211.47226,-357.84717)"
     id="g3037"
     inkscape:groupmode="layer"
     inkscape:label="Layer 1">
    <g
       id="g4085"
       style="font-size:100px;font-style:normal;font-variant:normal;font-weight:normal;font-stretch:normal;fill:#000000;fill-opacity:1;stroke:none;font-family:Droid Serif;-inkscape-font-specification:Droid Serif"
       transform="translate(187.10144,379.40581)">
      <path
         id="path4087"
         d="m 99.070818,66.341357 c -7.8e-5,4.799983 -2.266742,7.199981 -6.8,7.2 l -61.1,0 c -4.533338,-1.9e-5 -6.800003,-2.400017 -6.8,-7.2 l 0,-80.7 c -3e-6,-4.799927 2.266662,-7.199924 6.8,-7.2 l 61.1,0 c 4.533258,7.6e-5 6.799922,2.400073 6.8,7.2 l 0,80.7 m -1.7,0 0,-80.7 c -7.6e-5,-3.666595 -1.700074,-5.499926 -5.1,-5.5 l -61.1,0 c -3.400006,7.4e-5 -5.100005,1.833405 -5.1,5.5 l 0,80.7 c -5e-6,3.733317 1.699994,5.599982 5.1,5.6 l 61.1,0 c 3.399926,-1.8e-5 5.099924,-1.866683 5.1,-5.6"
         sodipodi:nodetypes="cccccccccccccccccc" />
    </g>
  </g>
  <g
     inkscape:label="Layer 1"
     inkscape:groupmode="layer"
     id="g4079"
     transform="translate(-99.092788,-358.60478)">
    <path
       style="fill:#ffffff;fill-opacity:1;fill-rule:nonzero;stroke:none"
       d="m 103.92872,451.59562 c -0.98496,-0.29003 -2.11169,-1.35397 -2.55339,-2.4111 -0.29462,-0.70513 -0.3508,-7.59572 -0.3508,-43.02967 0,-45.33599 -0.0598,-43.1249 1.20407,-44.52145 1.11061,-1.22722 -0.0195,-1.18795 34.19023,-1.18795 26.49729,0 32.19244,0.0597 32.87404,0.34447 0.96067,0.40139 2.10818,1.67576 2.37928,2.64232 0.10413,0.37125 0.18933,19.65325 0.18933,42.84888 l 0,42.17387 -0.63134,1.13642 c -0.4425,0.79649 -0.9684,1.30639 -1.75815,1.70463 l -1.12679,0.56821 -31.82943,-0.0228 c -17.60014,-0.0126 -32.16812,-0.1225 -32.58705,-0.24585 z"
       id="path4079" />
    <g
       id="g4081"
       style="font-size:100px;font-style:normal;font-variant:normal;font-weight:normal;font-stretch:normal;fill:#20208c;fill-opacity:1;stroke:none;font-family:Droid Serif;-inkscape-font-specification:Droid Serif"
       transform="translate(261.09511,378.39565)">
      <path
         id="path4083"
         d="m -115.54979,21.809124 c -1.13338,3.4e-5 -2.13338,-0.06663 -3,-0.2 -0.86671,-0.133299 -1.66671,-0.366632 -2.4,-0.7 -0.66671,-0.333298 -1.23337,-0.666631 -1.7,-1 -0.46671,-0.333297 -0.90004,-0.833297 -1.3,-1.5 -0.33337,-0.666629 -0.63337,-1.199961 -0.9,-1.6 -0.20004,-0.399961 -0.40004,-1.066627 -0.6,-2 -0.20004,-0.933291 -0.33337,-1.633291 -0.4,-2.1 -0.0667,-0.53329 -0.20004,-1.366622 -0.4,-2.5 -0.13337,-1.1332865 -0.23337,-1.966619 -0.3,-2.5000003 l -13.4,4.6000003 c -1.73335,-0.266623 -3.10002,-0.899956 -4.1,-1.9 7.39997,-1.6666195 13.19997,-3.3666178 17.4,-5.1000003 l 0,-11 c -4e-5,-0.5332709 -0.63337,-2.8666017 -1.9,-6.9999997 l 2.1,0 c 0.3333,6.9e-5 1.59996,0.733401 3.8,2.2 -0.33337,1.466732 -0.73337,3.733396 -1.2,6.7999997 -4e-5,5.133388 -0.0667,7.7333855 -0.2,7.8 0.13329,0.1333853 0.29996,0.2000519 0.5,0.2 l 15.3,-5.5 c 2.19994,0.86672316 3.29994,1.56672246 3.3,2.09999992 -6e-5,0.53338808 -0.30006,0.86672108 -0.9,0.99999998 l -8.6,2.0000001 c -3.80004,0.9333847 -6.96671,1.9333837 -9.5,3 l 0,4.1000003 c -4e-5,0.733377 0.1,1.56671 0.3,2.5 0.26663,0.866708 1.03329,1.90004 2.3,3.1 1.26662,1.133371 2.96662,1.700038 5.1,1.7 3.79995,3.8e-5 6.16661,-0.666628 7.1,-2 0.13328,-0.133294 0.89995,-1.933292 2.3,-5.4 l 1.6,7.5 c -0.26672,0.600037 -0.63339,1.03337 -1.1,1.3 -3.46672,1.400035 -6.53338,2.100034 -9.2,2.1"
         sodipodi:nodetypes="cscsccsscccccccccccccsccccccsccccc"
         style="fill:#20208c;fill-opacity:1" />
    </g>
    <g
       transform="translate(338.62432,374.60758)"
       style="font-size:100px;font-style:normal;font-variant:normal;font-weight:normal;font-stretch:normal;fill:#ba0000;fill-opacity:1;stroke:none;font-family:Droid Serif;-inkscape-font-specification:Droid Serif"
       id="g4089">
      <path
         d="m -189.28407,33.497196 c 0.46661,2.6e-5 1.09994,0.266693 1.9,0.8 0.86661,0.466692 1.36661,0.800025 1.5,1 l 0,0.8 c -0.33339,0.333357 -0.80006,0.500023 -1.4,0.5 -0.33339,2.3e-5 -1.16672,-0.03331 -2.5,-0.1 -1.33339,-0.13331 -2.16672,-0.199977 -2.5,-0.2 -2.33338,2.3e-5 -3.90005,0.300023 -4.7,0.9 l -3.4,3.5 c 0.13329,-0.266647 0.49995,-1.366646 1.1,-3.3 -0.20005,-0.199978 -0.83338,-0.299977 -1.9,-0.3 -0.60004,2.3e-5 -2.16671,0.100022 -4.7,0.3 -4e-5,0.933355 -0.26671,2.30002 -0.8,4.1 l -0.3,-0.9 c -0.2667,-0.666647 -0.5667,-1.266646 -0.9,-1.8 -0.2667,-0.533312 -0.53337,-0.799978 -0.8,-0.8 -0.60004,2.2e-5 -1.90003,0.200021 -3.9,0.6 -1.93336,0.400021 -3.20003,0.60002 -3.8,0.6 -1.13336,2e-5 -2.23336,-0.566646 -3.3,-1.7 l 11,-1.2 -2.2,-4.3 2.5,0 c 0.0666,2.8e-5 0.59996,0.233361 1.6,0.7 -4e-5,0.800026 0.23329,2.000025 0.7,3.6 0.53329,-0.06664 2.93329,-0.43331 7.2,-1.1 0.66662,-2.199973 1.06662,-4.199971 1.2,-6 2.46662,1.400029 3.69995,2.266695 3.7,2.6 l -1.6,2.5 c 0.19995,0.200025 0.56662,0.300025 1.1,0.3 0.33328,2.5e-5 1.19995,-0.166641 2.6,-0.5 1.39995,-0.399974 2.26661,-0.599974 2.6,-0.6 m -24.7,9.4 c 3.9333,-0.199983 7.19996,-0.533316 9.8,-1 2.59996,-0.466648 4.46662,-0.866648 5.6,-1.2 1.13329,-0.333314 1.99995,-0.499981 2.6,-0.5 0.99995,1.9e-5 2.33328,0.833352 4,2.5 -0.86672,1.600015 -1.56672,2.966681 -2.1,4.1 -0.53338,1.066678 -0.90005,1.766678 -1.1,2.1 -0.13338,0.333344 -0.36672,0.766677 -0.7,1.3 -0.33338,0.533342 -0.83338,1.333341 -1.5,2.4 -0.73338,-0.666659 -1.43338,-0.999992 -2.1,-1 -1.00004,8e-6 -2.16671,0.266674 -3.5,0.8 l 0,2.2 c 0.13329,0.06667 0.49996,0.100005 1.1,0.1 0.0666,5e-6 2.13329,-0.199995 6.2,-0.6 4.06661,-0.466661 6.16661,-0.699994 6.3,-0.7 0.66661,6e-6 2.06661,0.700006 4.2,2.1 -0.46673,0.933337 -0.83339,2.433335 -1.1,4.5 -0.26673,2.066664 -0.70006,4.033329 -1.3,5.9 -0.53339,1.933325 -1.53339,3.533324 -3,4.8 -0.80005,-1.00001 -2.40005,-2.800008 -4.8,-5.4 1.99995,0.333327 3.13328,0.499994 3.4,0.5 1.13328,-6e-6 1.83328,-0.600006 2.1,-1.8 0.26661,-1.133337 0.39994,-3.500001 0.4,-7.1 -0.53339,-0.73333 -1.43339,-1.099996 -2.7,-1.1 -4.40005,4e-6 -8.10004,0.433337 -11.1,1.3 l 0,2.7 c 0.39996,0.399999 0.76662,0.599999 1.1,0.6 0.93329,-10e-7 1.99996,-0.3 3.2,-0.9 -0.33338,-0.266666 -0.50005,-0.799999 -0.5,-1.6 0.79995,0.06667 1.76662,0.533335 2.9,1.4 1.13328,0.8 1.69995,1.599999 1.7,2.4 -5e-5,1.066664 -0.40005,1.599996 -1.2,1.6 -0.33338,-4e-6 -0.90005,-0.433337 -1.7,-1.3 -0.73338,-0.800002 -1.16671,-1.233334 -1.3,-1.3 -6.80004,1.999997 -10.2667,2.999996 -10.4,3 -0.40004,-4e-6 -0.83337,-0.200004 -1.3,-0.6 -0.40003,-0.400003 -0.6667,-0.833336 -0.8,-1.3 1.46663,-0.200002 3.59996,-0.600002 6.4,-1.2 l 0,-2.4 c -0.0667,-0.599998 -0.50004,-0.899998 -1.3,-0.9 -3.40004,2e-6 -6.03337,0.266669 -7.9,0.8 -3e-5,1.866666 -3e-5,3.333332 0,4.4 0.0666,1.133329 0.1,1.833329 0.1,2.1 0.0666,0.266661 0.1,0.499995 0.1,0.7 0.0666,0.266661 0.1,0.56666 0.1,0.9 -3e-5,0.133327 -0.10003,0.533326 -0.3,1.2 -0.13336,0.666658 -0.20003,1.099991 -0.2,1.3 -3e-5,0.266657 0.0666,0.466657 0.2,0.6 l -1.1,0 c -0.40003,-1e-5 -0.63336,-0.233343 -0.7,-0.7 -0.40003,-5.533337 -0.96669,-9.633333 -1.7,-12.3 0.59997,0.06667 1.5333,0.233336 2.8,0.5 l 10,-1.5 0.1,-0.2 0,-2.2 c -0.20004,-0.199993 -0.60004,-0.299993 -1.2,-0.3 -1.6667,7e-6 -2.73337,0.266673 -3.2,0.8 -0.6667,-0.599993 -1.4667,-2.299991 -2.4,-5.1 -0.93337,-2.866652 -1.6667,-4.666651 -2.2,-5.4 m 14.2,7.3 c 0.86662,9e-6 1.59995,-0.633323 2.2,-1.9 0.66662,-1.266654 0.99995,-2.533319 1,-3.8 -5e-5,-0.466651 -0.13338,-1.06665 -0.4,-1.8 l -5.9,0 0,2.5 c 0.39996,0.200014 0.73329,0.300014 1,0.3 0.19996,1.4e-5 0.39996,-0.03332 0.6,-0.1 0.26662,-0.06665 0.46662,-0.09999 0.6,-0.1 0.79995,1.4e-5 1.36662,0.400014 1.7,1.2 -0.80005,0.600013 -2.10004,1.100012 -3.9,1.5 l 0,2.2 3.1,0 m -5.3,-6.8 c -0.26671,1.6e-5 -0.90004,0.100016 -1.9,0.3 -1.00004,0.200016 -1.63337,0.300016 -1.9,0.3 -0.20004,1.6e-5 -0.63337,-0.166651 -1.3,-0.5 l 1.2,7.8 c 1.66663,-0.199991 2.99996,-0.466658 4,-0.8 l 0,-2.3 c -0.46671,-0.06665 -0.93337,-0.09999 -1.4,-0.1 -0.40004,1.2e-5 -0.7667,0.03335 -1.1,0.1 -0.20004,-0.199988 -0.4667,-0.499988 -0.8,-0.9 0.0666,-0.06665 1.16663,-0.433321 3.3,-1.1 -0.0667,-1.733318 -0.10004,-2.666651 -0.1,-2.8"
         id="path4091"
         sodipodi:nodetypes="ccccscscccsccccscsccccccccccscccssscccscsccscscscccsccsccscccssscsccccsccccscsccccccccscccccscccssscccccssccccscccc"
         style="fill:#ba0000;fill-opacity:1" />
    </g>
  </g>
</svg>
