<?xml version="1.0" encoding="UTF-8" standalone="no"?>
<!-- Created with Inkscape (http://www.inkscape.org/) -->

<svg
   xmlns:dc="http://purl.org/dc/elements/1.1/"
   xmlns:cc="http://creativecommons.org/ns#"
   xmlns:rdf="http://www.w3.org/1999/02/22-rdf-syntax-ns#"
   xmlns:svg="http://www.w3.org/2000/svg"
   xmlns="http://www.w3.org/2000/svg"
   xmlns:sodipodi="http://sodipodi.sourceforge.net/DTD/sodipodi-0.dtd"
   xmlns:inkscape="http://www.inkscape.org/namespaces/inkscape"
   width="74.699997"
   height="95.099998"
   id="svg2"
   version="1.1"
   inkscape:version="0.47 r22583"
   sodipodi:docname="MJ8wan.svg">
  <defs
     id="defs4" />
  <sodipodi:namedview
     id="base"
     pagecolor="#ffffff"
     bordercolor="#666666"
     borderopacity="1.0"
     inkscape:pageopacity="0.0"
     inkscape:pageshadow="2"
     inkscape:zoom="3.959798"
     inkscape:cx="-21.034122"
     inkscape:cy="29.803028"
     inkscape:document-units="px"
     inkscape:current-layer="g4079"
     showgrid="false"
     inkscape:window-width="1440"
     inkscape:window-height="851"
     inkscape:window-x="0"
     inkscape:window-y="25"
     inkscape:window-maximized="1" />
  <metadata
     id="metadata7">
    <rdf:RDF>
      <cc:Work
         rdf:about="">
        <dc:format>image/svg+xml</dc:format>
        <dc:type
           rdf:resource="http://purl.org/dc/dcmitype/StillImage" />
      </cc:Work>
    </rdf:RDF>
  </metadata>
  <g
     inkscape:label="Layer 1"
     inkscape:groupmode="layer"
     id="g4079"
     transform="translate(-242.6616,-328.20731)">
    <path
       style="fill:#ffffff;fill-opacity:1;fill-rule:nonzero;stroke:none"
       d="m 246.91948,420.90859 c -0.78974,-0.39824 -1.31565,-0.90814 -1.75814,-1.70463 l -0.63135,-1.13642 0,-42.30014 0,-42.30013 0.54134,-1.01016 c 0.66064,-1.23277 1.21583,-1.73414 2.3374,-2.11081 1.22475,-0.41132 63.981,-0.41132 65.20574,0 1.12158,0.37667 1.67676,0.87804 2.3374,2.11081 l 0.54134,1.01016 0,42.30013 0,42.30014 -0.63134,1.13642 c -0.4425,0.79649 -0.96841,1.30639 -1.75815,1.70463 l -1.12679,0.56822 -31.96533,0 -31.96532,0 -1.1268,-0.56822 z"
       id="path4156" />
    <path
       style="font-size:100px;font-style:normal;font-variant:normal;font-weight:normal;font-stretch:normal;fill:#20208c;fill-opacity:1;stroke:none;font-family:Droid Serif;-inkscape-font-specification:Droid Serif"
       sodipodi:nodetypes="csccsssscccccsccccccccsccccsccc"
       d="m 302.2616,365.90731 c -1.53339,0.53337 -2.73339,0.80004 -3.6,0.8 -3.33339,4e-5 -5.93339,-0.4333 -7.8,-1.3 -1.26672,-1.26663 -3.86671,-5.39996 -7.8,-12.4 -3.86671,-7.06661 -7.00004,-11.49994 -9.4,-13.3 -0.2667,-0.19994 -0.40003,-0.39994 -0.4,-0.6 -3e-5,-0.33327 0.1333,-0.53327 0.4,-0.6 0.26663,-0.0666 0.96663,-0.0999 2.1,-0.1 0.3333,6e-5 0.66663,0.0667 1,0.2 0.3333,0.0667 0.6333,0.2334 0.9,0.5 0.33329,0.20006 0.59996,0.4334 0.8,0.7 0.26663,0.20006 0.53329,0.5334 0.8,1 0.33329,0.40006 0.59996,0.76673 0.8,1.1 0.19996,0.26673 0.43329,0.70006 0.7,1.3 0.26662,0.60006 0.46662,1.06673 0.6,1.4 0.19996,0.26673 0.43329,0.73339 0.7,1.4 0.33329,0.66672 0.56662,1.13339 0.7,1.4 2.73329,3.80005 4.83329,6.66672 6.3,8.6 1.53328,1.86671 3.29995,3.66671 5.3,5.4 1.99994,1.66671 3.93327,2.70004 5.8,3.1 0.19994,0.0667 0.89994,0.53337 2.1,1.4 m -28.1,-14.2 c -3e-5,0.13338 -0.50003,0.96672 -1.5,2.5 -1.00003,1.53338 -2.23336,3.26671 -3.7,5.2 -1.46669,1.86671 -2.70003,3.16671 -3.7,3.9 -3.20002,2.60004 -5.26669,3.90004 -6.2,3.9 l -1.3,0 c 8.26664,-7.19996 12.39997,-13.33328 12.4,-18.4 -3e-5,-0.19994 -3e-5,-0.39995 0,-0.6 l 1.4,0 c 0.66663,6e-5 1.5333,1.16672 2.6,3.5"
       id="path4155" />
    <path
       style="font-size:100px;font-style:normal;font-variant:normal;font-weight:normal;font-stretch:normal;fill:#ba0000;fill-opacity:0.91372549;stroke:none;font-family:Droid Serif;-inkscape-font-specification:Droid Serif"
       sodipodi:nodetypes="ccccscscccsccccscsccccccccccscccssscccscsccscscscccsccsccscccssscsccccsccccscsccccccccscccccscccssscccccssccccscccc"
       id="path4157"
       d="m 293.16161,377.45477 c 0.46661,3e-5 1.09995,0.26669 1.9,0.8 0.86661,0.46669 1.36661,0.80003 1.5,1 l 0,0.8 c -0.33339,0.33336 -0.80006,0.50003 -1.4,0.5 -0.33339,3e-5 -1.16672,-0.0333 -2.5,-0.1 -1.33339,-0.13331 -2.16672,-0.19998 -2.5,-0.2 -2.33338,2e-5 -3.90005,0.30003 -4.7,0.9 l -3.4,3.5 c 0.13329,-0.26665 0.49996,-1.36664 1.1,-3.3 -0.20004,-0.19998 -0.83338,-0.29998 -1.9,-0.3 -0.60004,2e-5 -2.16671,0.10002 -4.7,0.3 -4e-5,0.93336 -0.2667,2.30002 -0.8,4.1 l -0.3,-0.9 c -0.2667,-0.66665 -0.5667,-1.26664 -0.9,-1.8 -0.2667,-0.53331 -0.53337,-0.79998 -0.8,-0.8 -0.60003,2e-5 -1.90003,0.20002 -3.9,0.6 -1.93336,0.40002 -3.20003,0.60002 -3.8,0.6 -1.13336,2e-5 -2.23336,-0.56664 -3.3,-1.7 l 11,-1.2 -2.2,-4.3 2.5,0 c 0.0666,3e-5 0.59996,0.23336 1.6,0.7 -4e-5,0.80003 0.2333,2.00003 0.7,3.6 0.5333,-0.0666 2.93329,-0.43331 7.2,-1.1 0.66662,-2.19997 1.06662,-4.19997 1.2,-6 2.46662,1.40003 3.69995,2.2667 3.7,2.6 l -1.6,2.5 c 0.19995,0.20003 0.56662,0.30003 1.1,0.3 0.33328,3e-5 1.19995,-0.16664 2.6,-0.5 1.39995,-0.39997 2.26661,-0.59997 2.6,-0.6 m -24.7,9.4 c 3.9333,-0.19998 7.19996,-0.53331 9.8,-1 2.59996,-0.46665 4.46662,-0.86665 5.6,-1.2 1.13329,-0.33331 1.99995,-0.49998 2.6,-0.5 0.99995,2e-5 2.33328,0.83335 4,2.5 -0.86672,1.60002 -1.56672,2.96668 -2.1,4.1 -0.53338,1.06668 -0.90005,1.76668 -1.1,2.1 -0.13338,0.33335 -0.36671,0.76668 -0.7,1.3 -0.33338,0.53334 -0.83338,1.33334 -1.5,2.4 -0.73338,-0.66666 -1.43338,-0.99999 -2.1,-1 -1.00004,10e-6 -2.16671,0.26668 -3.5,0.8 l 0,2.2 c 0.13329,0.0667 0.49996,0.10001 1.1,0.1 0.0666,1e-5 2.13329,-0.19999 6.2,-0.6 4.06662,-0.46666 6.16661,-0.69999 6.3,-0.7 0.66661,1e-5 2.06661,0.70001 4.2,2.1 -0.46672,0.93334 -0.83339,2.43334 -1.1,4.5 -0.26672,2.06667 -0.70006,4.03333 -1.3,5.9 -0.53339,1.93333 -1.53339,3.53333 -3,4.8 -0.80005,-1.00001 -2.40005,-2.80001 -4.8,-5.4 1.99995,0.33333 3.13328,0.5 3.4,0.5 1.13328,0 1.83328,-0.6 2.1,-1.8 0.26661,-1.13333 0.39995,-3.5 0.4,-7.1 -0.53339,-0.73333 -1.43339,-1.09999 -2.7,-1.1 -4.40005,10e-6 -8.10004,0.43334 -11.1,1.3 l 0,2.7 c 0.39996,0.4 0.76663,0.6 1.1,0.6 0.93329,0 1.99996,-0.3 3.2,-0.9 -0.33338,-0.26666 -0.50004,-0.8 -0.5,-1.6 0.79996,0.0667 1.76662,0.53334 2.9,1.4 1.13329,0.8 1.69995,1.6 1.7,2.4 -5e-5,1.06666 -0.40005,1.6 -1.2,1.6 -0.33338,0 -0.90005,-0.43333 -1.7,-1.3 -0.73338,-0.8 -1.16671,-1.23333 -1.3,-1.3 -6.80004,2 -10.2667,3 -10.4,3 -0.40003,0 -0.83337,-0.2 -1.3,-0.6 -0.40003,-0.4 -0.6667,-0.83333 -0.8,-1.3 1.46663,-0.2 3.59996,-0.6 6.4,-1.2 l 0,-2.4 c -0.0667,-0.6 -0.50004,-0.9 -1.3,-0.9 -3.40003,0 -6.03336,0.26667 -7.9,0.8 -3e-5,1.86667 -3e-5,3.33333 0,4.4 0.0666,1.13333 0.1,1.83333 0.1,2.1 0.0666,0.26666 0.1,0.5 0.1,0.7 0.0666,0.26666 0.1,0.56666 0.1,0.9 -3e-5,0.13333 -0.10003,0.53333 -0.3,1.2 -0.13336,0.66666 -0.20003,1.09999 -0.2,1.3 -3e-5,0.26666 0.0666,0.46666 0.2,0.6 l -1.1,0 c -0.40003,-1e-5 -0.63336,-0.23334 -0.7,-0.7 -0.40003,-5.53334 -0.96669,-9.63333 -1.7,-12.3 0.59997,0.0667 1.53331,0.23334 2.8,0.5 l 10,-1.5 0.1,-0.2 0,-2.2 c -0.20004,-0.19999 -0.60004,-0.29999 -1.2,-0.3 -1.6667,10e-6 -2.73337,0.26667 -3.2,0.8 -0.6667,-0.59999 -1.4667,-2.29999 -2.4,-5.1 -0.93336,-2.86665 -1.6667,-4.66665 -2.2,-5.4 m 14.2,7.3 c 0.86662,1e-5 1.59996,-0.63332 2.2,-1.9 0.66662,-1.26665 0.99995,-2.53332 1,-3.8 -5e-5,-0.46665 -0.13338,-1.06665 -0.4,-1.8 l -5.9,0 0,2.5 c 0.39996,0.20002 0.73329,0.30002 1,0.3 0.19996,2e-5 0.39996,-0.0333 0.6,-0.1 0.26662,-0.0666 0.46662,-0.1 0.6,-0.1 0.79996,2e-5 1.36662,0.40002 1.7,1.2 -0.80004,0.60001 -2.10004,1.10001 -3.9,1.5 l 0,2.2 3.1,0 m -5.3,-6.8 c -0.2667,2e-5 -0.90004,0.10002 -1.9,0.3 -1.00004,0.20002 -1.63337,0.30002 -1.9,0.3 -0.20003,2e-5 -0.63337,-0.16665 -1.3,-0.5 l 1.2,7.8 c 1.66663,-0.19999 2.99996,-0.46666 4,-0.8 l 0,-2.3 c -0.4667,-0.0666 -0.93337,-0.1 -1.4,-0.1 -0.40004,10e-6 -0.7667,0.0333 -1.1,0.1 -0.20004,-0.19999 -0.4667,-0.49999 -0.8,-0.9 0.0666,-0.0667 1.16663,-0.43332 3.3,-1.1 -0.0667,-1.73332 -0.10004,-2.66665 -0.1,-2.8" />
    <path
       style="font-size:100px;font-style:normal;font-variant:normal;font-weight:normal;font-stretch:normal;fill:#000000;fill-opacity:1;stroke:none;font-family:Droid Serif;-inkscape-font-specification:Droid Serif"
       sodipodi:nodetypes="cccccccccccccccccc"
       d="m 317.3616,416.10731 c -8e-5,4.79998 -2.26675,7.19998 -6.8,7.2 l -61.1,0 c -4.53334,-2e-5 -6.8,-2.40002 -6.8,-7.2 l 0,-80.7 c 0,-4.79993 2.26666,-7.19992 6.8,-7.2 l 61.1,0 c 4.53325,8e-5 6.79992,2.40007 6.8,7.2 l 0,80.7 m -1.7,0 0,-80.7 c -8e-5,-3.66659 -1.70008,-5.49992 -5.1,-5.5 l -61.1,0 c -3.40001,8e-5 -5.10001,1.83341 -5.1,5.5 l 0,80.7 c -1e-5,3.73332 1.69999,5.59998 5.1,5.6 l 61.1,0 c 3.39992,-2e-5 5.09992,-1.86668 5.1,-5.6"
       id="path4159" />
  </g>
</svg>
