<?xml version="1.0" encoding="UTF-8" standalone="no"?>
<!-- Created with Inkscape (http://www.inkscape.org/) -->

<svg
   xmlns:dc="http://purl.org/dc/elements/1.1/"
   xmlns:cc="http://creativecommons.org/ns#"
   xmlns:rdf="http://www.w3.org/1999/02/22-rdf-syntax-ns#"
   xmlns:svg="http://www.w3.org/2000/svg"
   xmlns="http://www.w3.org/2000/svg"
   xmlns:sodipodi="http://sodipodi.sourceforge.net/DTD/sodipodi-0.dtd"
   xmlns:inkscape="http://www.inkscape.org/namespaces/inkscape"
   width="74.699997"
   height="95.099998"
   id="svg2"
   version="1.1"
   inkscape:version="0.47 r22583"
   sodipodi:docname="MJ9wan.svg">
  <defs
     id="defs4" />
  <sodipodi:namedview
     id="base"
     pagecolor="#ffffff"
     bordercolor="#666666"
     borderopacity="1.0"
     inkscape:pageopacity="0.0"
     inkscape:pageshadow="2"
     inkscape:zoom="3.959798"
     inkscape:cx="-32.956223"
     inkscape:cy="52.527701"
     inkscape:document-units="px"
     inkscape:current-layer="g4227"
     showgrid="false"
     inkscape:window-width="1440"
     inkscape:window-height="851"
     inkscape:window-x="0"
     inkscape:window-y="25"
     inkscape:window-maximized="1" />
  <metadata
     id="metadata7">
    <rdf:RDF>
      <cc:Work
         rdf:about="">
        <dc:format>image/svg+xml</dc:format>
        <dc:type
           rdf:resource="http://purl.org/dc/dcmitype/StillImage" />
      </cc:Work>
    </rdf:RDF>
  </metadata>
  <g
     inkscape:label="Layer 1"
     inkscape:groupmode="layer"
     id="g4079"
     transform="translate(-242.78875,-327.86188)">
    <path
       style="fill:#ffffff;fill-opacity:1;fill-rule:nonzero;stroke:none"
       d="m 247.66494,420.89467 c -1.1586,-0.35111 -1.96174,-1.03851 -2.49115,-2.13214 -0.5153,-1.06446 -0.51748,-1.24725 -0.51748,-43.36213 l 0,-42.29316 0.56821,-1.1268 c 0.41598,-0.82491 0.87162,-1.27978 1.70071,-1.69782 l 1.1325,-0.57102 32.37346,0.0659 c 32.25192,0.0657 32.37608,0.0679 33.07081,0.58662 1.00723,0.75205 1.61349,1.65118 1.87573,2.78186 0.34999,1.50906 0.31052,83.31228 -0.0408,84.58073 -0.40034,1.44538 -1.15501,2.38807 -2.34407,2.92807 -0.99255,0.45076 -2.34419,0.46944 -32.85494,0.45395 -17.50089,-0.009 -32.11373,-0.10524 -32.47297,-0.21411 l 0,0 z"
       id="path4326" />
    <g
       style="font-size:100px;font-style:normal;font-variant:normal;font-weight:normal;font-stretch:normal;fill:#20208c;fill-opacity:1;stroke:none;font-family:Droid Serif;-inkscape-font-specification:Droid Serif"
       id="text4220"
       transform="translate(191.67644,0.75761101)">
      <path
         d="m 98.864842,367.5568 c 2.866608,3e-5 4.899938,-0.46663 6.099998,-1.4 1.19994,-0.9333 2.06661,-2.96663 2.6,-6.1 -6e-5,-0.13329 0.23327,-0.43329 0.7,-0.9 l 0.8,8.4 c -6e-5,1.20003 -1.03339,2.0667 -3.1,2.6 -2.00006,0.53336 -3.83339,0.80003 -5.5,0.8 -6.600048,3e-5 -10.066708,-2.7333 -10.399998,-8.2 l 2.3,-13.1 0,-2 c -0.13338,-0.0666 -0.53338,-0.0999 -1.2,-0.1 -1.73338,5e-5 -3.56671,0.66672 -5.5,2 -0.73337,4.26671 -2.33337,8.20004 -4.8,11.8 -2.4667,3.60004 -5.46669,6.03337 -9,7.3 -0.80002,0.2667 -1.53336,0.60003 -2.2,1 l -1.3,0 c 3.59998,-2.06663 6.69997,-4.89996 9.3,-8.5 2.59997,-3.66662 4.39997,-7.29995 5.4,-10.9 -0.0667,-0.0666 -0.1667,-0.1 -0.3,-0.1 -5.8667,1.86672 -8.83336,2.80005 -8.9,2.8 -0.53336,5e-5 -1.13336,-0.26662 -1.8,-0.8 -0.60002,-0.53328 -0.96669,-1.06662 -1.1,-1.6 5.5333,-0.79995 9.56663,-1.63328 12.1,-2.5 0.39996,-0.26661 0.76663,-1.29995 1.1,-3.1 0.39996,-1.86661 0.59996,-3.36661 0.6,-4.5 -4e-5,-0.53327 -0.10004,-1.63327 -0.3,-3.3 -4e-5,-0.13327 -0.0667,-0.29994 -0.2,-0.5 -0.13337,-0.2666 -0.20004,-0.4666 -0.2,-0.6 l 0,-1.6 c 2.26663,0.66673 4.03329,1.60006 5.3,2.8 -1.80004,4.06673 -2.70004,6.66672 -2.7,7.8 l 0,1.7 c 0.0666,0.0667 0.19996,0.10005 0.4,0.1 0.19996,5e-5 1.43329,-0.49995 3.7,-1.5 2.26662,-1.06661 3.49995,-1.59994 3.7,-1.6 1.26662,6e-5 2.46662,0.76672 3.6,2.3 -0.0667,0.0667 -0.10005,0.20005 -0.1,0.4 -1.46672,1.00005 -2.76671,3.06672 -3.9,6.2 -1.13338,3.06671 -1.70005,6.06671 -1.7,9 -5e-5,2.60004 0.43329,4.23337 1.3,4.9 0.93329,0.6667 2.66662,1.00003 5.2,1"
         id="path4225"
         sodipodi:nodetypes="csccccscccscsccccccsccccscscccccscscccscc"
         style="fill:#20208c;fill-opacity:1" />
    </g>
    <g
       transform="translate(270.72088,-0.50507965)"
       style="font-size:100px;font-style:normal;font-variant:normal;font-weight:normal;font-stretch:normal;fill:#ba0000;fill-opacity:1;stroke:none;font-family:Droid Serif;-inkscape-font-specification:Droid Serif"
       id="g4237">
      <path
         d="m 22.567868,377.86696 c 0.46661,2e-5 1.09994,0.26669 1.9,0.8 0.86661,0.46669 1.36661,0.80002 1.5,1 l 0,0.8 c -0.33339,0.33335 -0.80006,0.50002 -1.4,0.5 -0.33339,2e-5 -1.16672,-0.0333 -2.5,-0.1 -1.33339,-0.13331 -2.16672,-0.19998 -2.5,-0.2 -2.33338,2e-5 -3.90005,0.30002 -4.7,0.9 l -3.4,3.5 c 0.13329,-0.26665 0.49996,-1.36665 1.1,-3.3 -0.20004,-0.19998 -0.83338,-0.29998 -1.9,-0.3 -0.60004,2e-5 -2.1667104,0.10002 -4.7000004,0.3 -4e-5,0.93335 -0.2667,2.30002 -0.8,4.1 l -0.3,-0.9 c -0.2667,-0.66665 -0.5667,-1.26665 -0.9,-1.8 -0.2667,-0.53331 -0.53337,-0.79998 -0.8,-0.8 -0.60003,2e-5 -1.90003,0.20002 -3.90000004,0.6 -1.93335996,0.40002 -3.20002996,0.60002 -3.79999996,0.6 -1.13336,2e-5 -2.23336,-0.56665 -3.3,-1.7 l 11,-1.2 -2.20000004,-4.3 2.50000004,0 c 0.0666,3e-5 0.59996,0.23336 1.6,0.7 -4e-5,0.80002 0.2333,2.00002 0.7,3.6 0.53329,-0.0666 2.93329,-0.43331 7.2000004,-1.1 0.66662,-2.19998 1.06662,-4.19997 1.2,-6 2.46662,1.40003 3.69995,2.26669 3.7,2.6 l -1.6,2.5 c 0.19995,0.20002 0.56662,0.30002 1.1,0.3 0.33328,2e-5 1.19995,-0.16664 2.6,-0.5 1.39995,-0.39998 2.26661,-0.59998 2.6,-0.6 m -24.7000004,9.4 c 3.9333,-0.19999 7.19996,-0.53332 9.8,-1 2.5999604,-0.46665 4.4666204,-0.86665 5.6000004,-1.2 1.13329,-0.33332 1.99995,-0.49998 2.6,-0.5 0.99995,2e-5 2.33328,0.83335 4,2.5 -0.86672,1.60001 -1.56672,2.96668 -2.1,4.1 -0.53338,1.06668 -0.90005,1.76668 -1.1,2.1 -0.13338,0.33334 -0.36672,0.76667 -0.7,1.3 -0.33338,0.53334 -0.83338,1.33334 -1.5,2.4 -0.73338,-0.66666 -1.43338,-0.99999 -2.1,-1 -1.00004,1e-5 -2.16671,0.26667 -3.5000004,0.8 l 0,2.2 c 0.13329,0.0667 0.49996,0.1 1.1,0.1 0.0666,0 2.1332904,-0.2 6.2000004,-0.6 4.06661,-0.46666 6.16661,-0.7 6.3,-0.7 0.66661,0 2.06661,0.7 4.2,2.1 -0.46673,0.93333 -0.83339,2.43333 -1.1,4.5 -0.26672,2.06666 -0.70006,4.03333 -1.3,5.9 -0.53339,1.93332 -1.53339,3.53332 -3,4.8 -0.80005,-1.00001 -2.40005,-2.80001 -4.8,-5.4 1.99995,0.33333 3.13328,0.49999 3.4,0.5 1.13328,-1e-5 1.83328,-0.60001 2.1,-1.8 0.26661,-1.13334 0.39995,-3.5 0.4,-7.1 -0.53339,-0.73333 -1.43339,-1.1 -2.7,-1.1 -4.40005,0 -8.10004,0.43333 -11.1000004,1.3 l 0,2.7 c 0.39996,0.4 0.76663,0.6 1.1,0.6 0.9332904,0 1.9999604,-0.3 3.2000004,-0.9 -0.33338,-0.26667 -0.50004,-0.8 -0.5,-1.6 0.79995,0.0667 1.76662,0.53333 2.9,1.4 1.13328,0.8 1.69995,1.6 1.7,2.4 -5e-5,1.06666 -0.40005,1.59999 -1.2,1.6 -0.33338,-1e-5 -0.90005,-0.43334 -1.7,-1.3 -0.73338,-0.8 -1.16671,-1.23334 -1.3,-1.3 -6.8000404,1.99999 -10.2667004,2.99999 -10.4000004,3 -0.40003,-10e-6 -0.83337,-0.20001 -1.3,-0.6 -0.40003004,-0.40001 -0.66670004,-0.83334 -0.80000004,-1.3 1.46663004,-0.2 3.59996004,-0.6 6.40000004,-1.2 l 0,-2.4 c -0.0667,-0.6 -0.50004,-0.9 -1.3,-0.9 -3.40003,0 -6.03336004,0.26667 -7.9,0.8 -3e-5,1.86666 -3e-5,3.33333 0,4.4 0.0666,1.13333 0.1,1.83333 0.1,2.1 0.0666,0.26666 0.1,0.49999 0.1,0.7 0.0666,0.26666 0.1,0.56666 0.1,0.9 -3e-5,0.13332 -0.10003,0.53332 -0.3,1.2 -0.13336,0.66666 -0.20003,1.09999 -0.2,1.3 -3e-5,0.26666 0.0666,0.46665 0.2,0.6 l -1.1,0 c -0.40003,-1e-5 -0.63336,-0.23334 -0.7,-0.7 -0.40003,-5.53334 -0.96669,-9.63333 -1.7,-12.3 0.59997,0.0667 1.53331,0.23333 2.8,0.5 l 10,-1.5 0.1,-0.2 0,-2.2 c -0.20004,-0.2 -0.60004,-0.3 -1.2,-0.3 -1.6667,0 -2.73337,0.26667 -3.2,0.8 -0.6667,-0.6 -1.4667,-2.29999 -2.40000004,-5.1 -0.93336,-2.86665 -1.66669996,-4.66665 -2.19999996,-5.4 m 14.2000004,7.3 c 0.86662,1e-5 1.59995,-0.63333 2.2,-1.9 0.66662,-1.26666 0.99995,-2.53332 1,-3.8 -5e-5,-0.46665 -0.13338,-1.06665 -0.4,-1.8 l -5.9000004,0 0,2.5 c 0.39996,0.20001 0.73329,0.30001 1,0.3 0.1999604,10e-6 0.3999604,-0.0333 0.6000004,-0.1 0.26662,-0.0667 0.46662,-0.1 0.6,-0.1 0.79996,10e-6 1.36662,0.40001 1.7,1.2 -0.80004,0.60001 -2.10004,1.10001 -3.9000004,1.5 l 0,2.2 3.1000004,0 m -5.3000004,-6.8 c -0.26671,1e-5 -0.90004,0.10001 -1.9,0.3 -1.00004,0.20001 -1.63337,0.30001 -1.9,0.3 -0.20003,10e-6 -0.63337,-0.16665 -1.3,-0.5 l 1.2,7.8 c 1.66663,-0.19999 2.99996,-0.46666 4,-0.8 l 0,-2.3 c -0.46671,-0.0667 -0.93337,-0.1 -1.4,-0.1 -0.40004,1e-5 -0.7667,0.0333 -1.1,0.1 -0.20004,-0.19999 -0.4667,-0.49999 -0.8,-0.9 0.0666,-0.0667 1.16663,-0.43332 3.3,-1.1 -0.0667,-1.73332 -0.10004,-2.66665 -0.1,-2.8"
         id="path4239"
         sodipodi:nodetypes="ccccscscccsccccscsccccccccccscccssscccscsccscscscccsccsccscccssscsccccsccccscsccccccccscccccscccssscccccssccccscccc"
         style="fill:#ba0000;fill-opacity:1" />
    </g>
  </g>
  <g
     transform="translate(-430.67712,-327.60934)"
     id="g4227"
     inkscape:groupmode="layer"
     inkscape:label="Layer 1">
    <g
       id="g4229"
       style="font-size:100px;font-style:normal;font-variant:normal;font-weight:normal;font-stretch:normal;fill:#000000;fill-opacity:1;stroke:none;font-family:Droid Serif;-inkscape-font-specification:Droid Serif"
       transform="translate(187.88837,-0.25254153)">
      <path
         id="path4231"
         d="m 317.48875,415.76188 c -8e-5,4.79998 -2.26674,7.19998 -6.8,7.2 l -61.1,0 c -4.53334,-2e-5 -6.8,-2.40002 -6.8,-7.2 l 0,-80.7 c 0,-4.79993 2.26666,-7.19993 6.8,-7.2 l 61.1,0 c 4.53326,7e-5 6.79992,2.40007 6.8,7.2 l 0,80.7 m -1.7,0 0,-80.7 c -8e-5,-3.6666 -1.70008,-5.49993 -5.1,-5.5 l -61.1,0 c -3.40001,7e-5 -5.10001,1.8334 -5.1,5.5 l 0,80.7 c -1e-5,3.73332 1.69999,5.59998 5.1,5.6 l 61.1,0 c 3.39992,-2e-5 5.09992,-1.86668 5.1,-5.6"
         sodipodi:nodetypes="cccccccccccccccccc" />
    </g>
  </g>
</svg>
