<?xml version="1.0" encoding="UTF-8" standalone="no"?>
<!-- Created with Inkscape (http://www.inkscape.org/) -->
<svg xmlns:dc="http://purl.org/dc/elements/1.1/" xmlns:cc="http://creativecommons.org/ns#" xmlns:rdf="http://www.w3.org/1999/02/22-rdf-syntax-ns#" xmlns:svg="http://www.w3.org/2000/svg" xmlns="http://www.w3.org/2000/svg" xmlns:sodipodi="http://sodipodi.sourceforge.net/DTD/sodipodi-0.dtd" xmlns:inkscape="http://www.inkscape.org/namespaces/inkscape" width="74.699997" height="95.099998" id="svg5066" version="1.1" inkscape:version="0.47 r22583" sodipodi:docname="MJEastwind.svg">
  <defs id="defs5068"/>
  <sodipodi:namedview id="base" pagecolor="#ffffff" bordercolor="#666666" borderopacity="1.0" inkscape:pageopacity="0.0" inkscape:pageshadow="2" inkscape:zoom="3.959798" inkscape:cx="31.44392" inkscape:cy="57.364937" inkscape:document-units="px" inkscape:current-layer="layer1" showgrid="false" inkscape:window-width="1440" inkscape:window-height="851" inkscape:window-x="0" inkscape:window-y="25" inkscape:window-maximized="1"/>
  <metadata id="metadata5071">
    <rdf:RDF>
      <cc:Work rdf:about="">
        <dc:format>image/svg+xml</dc:format>
        <dc:type rdf:resource="http://purl.org/dc/dcmitype/StillImage"/>
        <dc:title/>
      </cc:Work>
    </rdf:RDF>
  </metadata>
  <g inkscape:label="Layer 1" inkscape:groupmode="layer" id="layer1" transform="translate(-227.95074,-511.7373)">
    <path style="fill:#ffffff;fill-opacity:1;fill-rule:nonzero;stroke:none" d="m 232.63783,604.71299 c -0.82382,-0.3285 -1.71214,-1.16972 -2.23383,-2.1154 -0.38343,-0.69503 -0.42346,-4.22747 -0.48473,-42.76469 -0.046,-28.91107 0.0164,-42.31599 0.20003,-42.99794 0.35997,-1.33681 1.52332,-2.60089 2.72498,-2.96091 0.73327,-0.2197 9.19094,-0.29615 32.76235,-0.29615 31.62063,0 31.77912,0.003 32.85427,0.52299 0.63419,0.30701 1.31896,0.9067 1.6581,1.4521 l 0.57773,0.9291 0,42.67894 0,42.67895 -0.52464,1.00013 c -0.34223,0.65242 -0.90479,1.20117 -1.61808,1.57837 l -1.09345,0.57822 -32.09575,-0.016 c -20.697,-0.0103 -32.31994,-0.10539 -32.72698,-0.2677 z" id="path4408"/>
    <path style="font-size:100px;font-style:normal;font-variant:normal;font-weight:normal;font-stretch:normal;fill:#20208c;fill-opacity:1;stroke:none;font-family:Droid Serif;-inkscape-font-specification:Droid Serif" id="path5089" d="m 271.85074,563.5873 c -0.33338,-0.86665 -0.60005,-1.36665 -0.8,-1.5 -0.20005,-0.13331 -0.70004,-0.19998 -1.5,-0.2 -0.40004,2e-5 -2.30004,0.26669 -5.7,0.8 l -0.3,0.3 c 1.13329,1.06669 2.29996,2.06669 3.5,3 1.19996,0.93335 2.29996,1.76668 3.3,2.5 1.06662,0.66668 2.19995,1.33335 3.4,2 1.19995,0.60001 2.19995,1.13335 3,1.6 0.86661,0.40001 1.89995,0.83334 3.1,1.3 1.26661,0.40001 2.16661,0.73334 2.7,1 0.59994,0.20001 1.49994,0.43334 2.7,0.7 1.19994,0.26667 1.9666,0.46667 2.3,0.6 0.33327,0.0667 1.0666,0.23334 2.2,0.5 1.19993,0.20001 1.83327,0.30001 1.9,0.3 0.39993,0.0667 0.7666,0.40001 1.1,1 -4.66673,1.2 -7.96673,1.8 -9.9,1.8 -0.13339,0 -0.33339,0 -0.6,0 -0.20006,0 -0.36672,0 -0.5,0 -0.80006,0 -1.70005,-0.2 -2.7,-0.6 -1.00005,-0.46666 -2.80005,-1.76666 -5.4,-3.9 -2.60005,-2.19999 -5.86671,-5.29999 -9.8,-9.3 -0.20004,0.20002 -0.30004,0.33335 -0.3,0.4 l 0,10.3 c -4e-5,0.33334 0.0666,1.13334 0.2,2.4 0.1333,1.2 0.19996,1.96667 0.2,2.3 -4e-5,2.2 -0.60004,4.43333 -1.8,6.7 -1.93337,-1.26667 -2.90003,-2.73333 -2.9,-4.4 -3e-5,-0.13333 0.0333,-0.36667 0.1,-0.7 0.1333,-0.4 0.29997,-1.13333 0.5,-2.2 0.26663,-1.06666 0.5333,-2.39999 0.8,-4 l -0.1,-8.7 c -0.73337,0.60002 -1.83337,1.50001 -3.3,2.7 -1.4667,1.13335 -2.63336,2.03334 -3.5,2.7 -0.86669,0.66668 -1.93336,1.50001 -3.2,2.5 -1.26669,0.93334 -2.33336,1.70001 -3.2,2.3 -0.80002,0.53334 -1.70002,1.1 -2.7,1.7 -0.93335,0.53334 -1.76668,0.93334 -2.5,1.2 -0.66668,0.26667 -1.23335,0.4 -1.7,0.4 l -2.6,0 c 1.06665,-0.73333 2.49999,-1.73333 4.3,-3 1.86665,-1.26666 3.16665,-2.13333 3.9,-2.6 0.73331,-0.53332 1.73331,-1.26666 3,-2.2 1.33331,-0.93332 2.26664,-1.59999 2.8,-2 0.53331,-0.46665 1.23331,-1.06665 2.1,-1.8 0.9333,-0.79999 1.6333,-1.46665 2.1,-2 0.46664,-0.53332 0.96664,-1.13332 1.5,-1.8 0.5333,-0.73331 1.0333,-1.46665 1.5,-2.2 -0.13337,-0.13331 -0.4667,-0.19998 -1,-0.2 -1.33336,2e-5 -2.3667,0.13335 -3.1,0.4 -0.73336,0.20002 -1.16669,0.40002 -1.3,0.6 -0.0667,0.20002 -0.16669,0.53335 -0.3,1 -0.80003,2e-5 -1.53336,-0.73331 -2.2,-2.2 -0.60003,-1.46664 -1.40002,-3.39998 -2.4,-5.8 -1.00002,-2.46664 -2.16669,-4.46664 -3.5,-6 l 0,-1.6 2.7,0 1.4,0.7 c 0.0666,0.0667 0.43331,0.10003 1.1,0.1 1.33331,3e-5 4.8333,-0.8333 10.5,-2.5 l 0,-3.9 c -0.40004,4e-5 -1.3667,0.13337 -2.9,0.4 -1.53336,0.20004 -2.50003,0.30004 -2.9,0.3 -0.93336,4e-5 -2.26669,-0.43329 -4,-1.3 l 9.8,-1.9 0,-4 -2,-6.6 c 2.19996,0.53339 4.26663,1.40005 6.2,2.6 l -1.2,5.5 c -4e-5,0.40004 0.23329,0.73338 0.7,1 l 6.6,-1.4 c 1.06662,0.0667 2.26662,0.50004 3.6,1.3 -1.73338,0.93338 -5.03338,2.03337 -9.9,3.3 -0.53337,0.13337 -1.00004,0.50004 -1.4,1.1 l 0,3 c 0.0666,0.13337 0.29996,0.20004 0.7,0.2 0.26663,4e-5 1.93329,-0.29996 5,-0.9 3.13329,-0.66663 4.83328,-0.99996 5.1,-1 0.53328,4e-5 1.66662,0.40004 3.4,1.2 1.79995,0.73337 2.69995,1.53337 2.7,2.4 -5e-5,0.33337 -0.23339,0.90003 -0.7,1.7 -0.46672,0.80003 -1.00005,1.6667 -1.6,2.6 -0.60005,0.8667 -0.96672,1.43336 -1.1,1.7 l -3.5,8.3 -1.7,0 m -8.3,-10.5 c 0.79996,0.20003 1.46663,0.30003 2,0.3 0.33329,3e-5 0.63329,-0.0333 0.9,-0.1 0.33329,-0.1333 0.53329,-0.19997 0.6,-0.2 1.99996,3e-5 3.13329,0.4667 3.4,1.4 -1.00004,0.53336 -3.30004,1.26669 -6.9,2.2 l 0,2.9 c 0.3333,0.40002 1.09996,0.60002 2.3,0.6 l 6,-0.6 c 1.13329,-4.46664 1.69995,-7.16664 1.7,-8.1 -5e-5,-1.19997 -0.16671,-1.9333 -0.5,-2.2 l -6.1,0 c -0.46671,3e-5 -1.60004,0.30003 -3.4,0.9 l 0,2.9 m -2.7,1.3 0,-3.7 -1.4,0 -9,1.7 3.1,9.5 5.5,-0.9 c 0.46663,0.13336 1.0333,0.36669 1.7,0.7 l 0,-4.1 c -4e-5,-0.19997 -0.10004,-0.29997 -0.3,-0.3 -1.80003,0.20003 -2.8667,0.30003 -3.2,0.3 -0.0667,3e-5 -0.20003,3e-5 -0.4,0 -0.13336,3e-5 -0.20003,3e-5 -0.2,0 -0.73336,3e-5 -1.2667,-0.0666 -1.6,-0.2 -0.33336,-0.19997 -0.73336,-0.59997 -1.2,-1.2 l 7,-1.8" sodipodi:nodetypes="cssccscccccsccscssscccccsscscccccsccccccccccssccscccccccccscccsccccccccccccscscsscccccscscccccscccccccccccccsssccc"/>
  </g>
  <g id="g5654" inkscape:groupmode="layer" inkscape:label="Layer 1 复制" transform="translate(-227.95074,-511.7373)">
    <path sodipodi:nodetypes="ccccccccccccccccccc" d="m 302.65074,599.6373 c -8e-5,4.79998 -2.26674,7.19998 -6.8,7.2 l -61.1,0 c -4.53334,-2e-5 -6.8,-2.40002 -6.8,-7.2 l 0,-80.7 c 0,-4.79993 2.26666,-7.19993 6.8,-7.2 l 5.41303,0 55.68697,0 c 4.53326,7e-5 6.79992,2.40007 6.8,7.2 l 0,80.7 m -1.7,0 0,-80.7 c -8e-5,-3.6666 -1.70007,-5.49993 -5.1,-5.5 l -61.1,0 c -3.40001,7e-5 -5.1,1.8334 -5.1,5.5 l 0,80.7 c 0,3.73331 1.69999,5.59998 5.1,5.6 l 61.1,0 c 3.39993,-2e-5 5.09992,-1.86669 5.1,-5.6" id="path5656" style="font-size:100px;font-style:normal;font-variant:normal;font-weight:normal;font-stretch:normal;fill:#000000;fill-opacity:1;fill-rule:nonzero;stroke:none;font-family:Droid Serif;-inkscape-font-specification:Droid Serif;stroke-opacity:0.98224853999999995;stroke-width:0;stroke-miterlimit:4;stroke-dasharray:none"/>
  </g>
</svg>