<?xml version="1.0" encoding="UTF-8" standalone="no"?>
<!-- Created with Inkscape (http://www.inkscape.org/) -->
<svg xmlns:dc="http://purl.org/dc/elements/1.1/" xmlns:cc="http://creativecommons.org/ns#" xmlns:rdf="http://www.w3.org/1999/02/22-rdf-syntax-ns#" xmlns:svg="http://www.w3.org/2000/svg" xmlns="http://www.w3.org/2000/svg" xmlns:sodipodi="http://sodipodi.sourceforge.net/DTD/sodipodi-0.dtd" xmlns:inkscape="http://www.inkscape.org/namespaces/inkscape" width="74.699997" height="95.099998" id="svg2" version="1.1" inkscape:version="0.47 r22583" sodipodi:docname="MJWestwind.svg">
  <defs id="defs4"/>
  <sodipodi:namedview id="base" pagecolor="#ffffff" bordercolor="#666666" borderopacity="1.0" inkscape:pageopacity="0.0" inkscape:pageshadow="2" inkscape:zoom="2.8" inkscape:cx="62.623867" inkscape:cy="50.677784" inkscape:document-units="px" inkscape:current-layer="layer1" showgrid="false" inkscape:window-width="1440" inkscape:window-height="851" inkscape:window-x="0" inkscape:window-y="25" inkscape:window-maximized="1"/>
  <metadata id="metadata7">
    <rdf:RDF>
      <cc:Work rdf:about="">
        <dc:format>image/svg+xml</dc:format>
        <dc:type rdf:resource="http://purl.org/dc/dcmitype/StillImage"/>
        <dc:title/>
      </cc:Work>
    </rdf:RDF>
  </metadata>
  <g inkscape:label="Layer 1" inkscape:groupmode="layer" id="layer1" transform="translate(-186.32857,-334.93363)">
    <path style="fill:#ffffff;fill-opacity:1;fill-rule:nonzero;stroke:none" d="m 190.73961,427.67909 c -0.62568,-0.27213 -1.42926,-1.02923 -1.78572,-1.68245 -0.61402,-1.1252 -0.65311,-3.38782 -0.74315,-43.01698 -0.075,-32.99372 4.8e-4,-42.1191 0.35715,-43.20123 0.28262,-0.85749 0.90721,-1.67813 1.66571,-2.18855 l 1.21352,-0.81663 32.21581,0 32.21579,0 1.21353,0.81594 c 0.69338,0.46621 1.39624,1.34643 1.6398,2.05357 0.32046,0.93043 0.42933,11.56548 0.43859,42.84478 0.012,40.47358 -0.007,41.64886 -0.68269,43.13844 -1.23623,2.72381 0.75584,2.57759 -34.90284,2.56187 -26.21025,-0.0116 -31.90514,-0.0998 -32.8455,-0.50876 l 0,0 z" id="path4810"/>
    <path style="font-size:100px;font-style:normal;font-variant:normal;font-weight:normal;font-stretch:normal;fill:#20208c;fill-opacity:1;stroke:none;font-family:Droid Serif;-inkscape-font-specification:Droid Serif" id="path2821" d="m 240.72857,372.78363 c 0.79994,4e-5 2.29994,0.6667 4.5,2 2.19994,1.33337 3.29994,2.3667 3.3,3.1 -6e-5,0.2667 -0.2334,0.63336 -0.7,1.1 -0.40006,0.4667 -0.96673,1.53336 -1.7,3.2 -0.66673,1.60002 -1.26673,3.80002 -1.8,6.6 -0.86673,5.13335 -1.60006,8.56668 -2.2,10.3 -0.60006,1.73334 -1.56672,3.46667 -2.9,5.2 -1.20005,1.46667 -2.03339,2.2 -2.5,2.2 -0.60005,0 -1.00005,-0.23333 -1.2,-0.7 l -2.2,-6.6 c -0.73338,-1.59999 -2.30005,-2.39999 -4.7,-2.4 -0.73338,10e-6 -7.70004,0.56668 -20.9,1.7 -0.13336,0.0667 -0.26669,0.23334 -0.4,0.5 -0.0667,0.20001 -0.26669,0.63334 -0.6,1.3 -0.26669,0.66667 -0.70002,1.40001 -1.3,2.2 -0.66669,-2.46666 -1.26669,-5.46666 -1.8,-9 -0.53335,-3.53332 -1.13335,-6.46665 -1.8,-8.8 -0.66668,-2.39997 -1.66668,-4.63331 -3,-6.7 l 6.3,0.5 c 0.0667,3e-5 0.13331,3e-5 0.2,0 1.13331,3e-5 4.03331,-0.4333 8.7,-1.3 l 0,-7.2 c -3e-5,-0.46663 -0.23336,-1.19996 -0.7,-2.2 -0.40003,-0.99996 -0.73336,-1.53329 -1,-1.6 -3e-5,-0.0666 -0.43336,-0.13329 -1.3,-0.2 -0.80003,-0.13329 -1.83336,-0.36662 -3.1,-0.7 -1.20002,-0.39996 -2.16669,-0.99996 -2.9,-1.8 3.19998,4e-5 7.69997,-0.59996 13.5,-1.8 l 15.4,-3.2 c 2.73328,5e-5 4.09995,0.53338 4.1,1.6 -5e-5,0.46671 -0.63339,1.00005 -1.9,1.6 -1.20005,0.53338 -2.26672,0.90005 -3.2,1.1 -1.66671,0.20004 -4.16671,0.63338 -7.5,1.3 0.93329,1.06671 1.96662,2.46671 3.1,4.2 l -1.9,6.3 c 0.0666,0.0667 0.33329,0.10003 0.8,0.1 l 13.3,-1.9 m -17.1,2.6 0,-11.2 -9.1,1.4 c 1.9333,1.33337 2.89997,2.30004 2.9,2.9 l 0,7.8 1.5,0 c 0.46663,3e-5 2.0333,-0.29997 4.7,-0.9 m 13.8,22.8 c 0.93328,-1.19999 1.76661,-3.63332 2.5,-7.3 0.79994,-3.66665 1.19994,-6.79998 1.2,-9.4 -6e-5,-2.46664 -0.33339,-3.9333 -1,-4.4 -0.53339,-0.39997 -2.13339,-0.59997 -4.8,-0.6 l -9.1,0 0,7.2 c 1.19996,0.66669 2.03329,1.00002 2.5,1 0.19995,2e-5 0.63329,-0.0666 1.3,-0.2 0.73329,-0.19998 1.19995,-0.29998 1.4,-0.3 1.86662,2e-5 3.03328,0.73336 3.5,2.2 -1.13338,0.86669 -2.70005,1.30002 -4.7,1.3 -2.60004,2e-5 -4.50004,-0.49998 -5.7,-1.5 -1.13337,-0.99998 -1.70004,-2.73331 -1.7,-5.2 -4e-5,-1.26664 0.1,-2.46664 0.3,-3.6 -1.2667,0.2667 -3.2667,0.53336 -6,0.8 -0.33337,2.06669 -0.60003,3.63336 -0.8,4.7 -0.20003,1.00002 -0.5667,2.20002 -1.1,3.6 -0.53336,1.40002 -1.23336,2.53335 -2.1,3.4 -0.80003,0.86668 -1.83336,1.56668 -3.1,2.1 l 0,-0.6 c 0.39997,-0.66665 1.16664,-2.36665 2.3,-5.1 1.1333,-2.73331 1.69997,-4.29997 1.7,-4.7 l 0,-2.5 -8.7,1.4 0,0.9 c -2e-5,0.13336 0.1,0.76669 0.3,1.9 l 0.4,2.4 c 0.39998,4.26668 0.66664,7.80001 0.8,10.6 l 23.4,-2.4 c 0.93329,1e-5 1.73329,0.20001 2.4,0.6 0.73328,0.40001 1.23328,0.80001 1.5,1.2 0.33328,0.33335 0.96662,1.16668 1.9,2.5 l 1.4,0" sodipodi:nodetypes="csscccscsccscsccscccscccccccccsccccccccccccccccsccccscscscscccscccscccccccccccc"/>
    <path style="font-size:100px;font-style:normal;font-variant:normal;font-weight:normal;font-stretch:normal;fill:#000000;fill-opacity:1;stroke:none;font-family:Droid Serif;-inkscape-font-specification:Droid Serif" d="m 261.02857,422.83363 c -8e-5,4.79998 -2.26674,7.19998 -6.8,7.2 l -61.1,0 c -4.53334,-2e-5 -6.8,-2.40002 -6.8,-7.2 l 0,-80.7 c 0,-4.79993 2.26666,-7.19993 6.8,-7.2 l 61.1,0 c 4.53326,7e-5 6.79992,2.40007 6.8,7.2 l 0,80.7 m -1.7,0 0,-80.7 c -8e-5,-3.6666 -1.70007,-5.49993 -5.1,-5.5 l -61.1,0 c -3.40001,7e-5 -5.1,1.8334 -5.1,5.5 l 0,80.7 c 0,3.73331 1.69999,5.59998 5.1,5.6 l 61.1,0 c 3.39993,-2e-5 5.09992,-1.86669 5.1,-5.6" id="path2897" sodipodi:nodetypes="cccccccccccccccccc"/>
  </g>
</svg>