<?xml version="1.0" encoding="UTF-8" standalone="no"?>
<!-- Created with Inkscape (http://www.inkscape.org/) -->
<svg xmlns:dc="http://purl.org/dc/elements/1.1/" xmlns:cc="http://creativecommons.org/ns#" xmlns:rdf="http://www.w3.org/1999/02/22-rdf-syntax-ns#" xmlns:svg="http://www.w3.org/2000/svg" xmlns="http://www.w3.org/2000/svg" xmlns:sodipodi="http://sodipodi.sourceforge.net/DTD/sodipodi-0.dtd" xmlns:inkscape="http://www.inkscape.org/namespaces/inkscape" width="74.700005" height="95.099998" id="svg3739" version="1.1" inkscape:version="0.47 r22583" sodipodi:docname="MJReddragon.svg">
  <defs id="defs3741"/>
  <sodipodi:namedview id="base" pagecolor="#ffffff" bordercolor="#666666" borderopacity="1.0" inkscape:pageopacity="0.0" inkscape:pageshadow="2" inkscape:zoom="1.922232" inkscape:cx="-19.422163" inkscape:cy="34.231187" inkscape:document-units="px" inkscape:current-layer="layer1" showgrid="false" inkscape:window-width="1440" inkscape:window-height="851" inkscape:window-x="0" inkscape:window-y="25" inkscape:window-maximized="1"/>
  <metadata id="metadata3744">
    <rdf:RDF>
      <cc:Work rdf:about="">
        <dc:format>image/svg+xml</dc:format>
        <dc:type rdf:resource="http://purl.org/dc/dcmitype/StillImage"/>
        <dc:title/>
      </cc:Work>
    </rdf:RDF>
  </metadata>
  <g inkscape:label="Layer 1" inkscape:groupmode="layer" id="layer1" transform="translate(-423.19178,-397.0981)">
    <path style="fill:#ffffff;fill-opacity:1;fill-rule:nonzero;stroke:none" d="m 427.38827,489.37318 c -0.62479,-0.43762 -1.37789,-1.66666 -1.67354,-2.7312 -0.73818,-2.65797 -0.73818,-81.32827 0,-83.98623 1.03098,-3.7122 -0.82024,-3.52689 35.23171,-3.52689 l 32.42218,0 1.27692,1.27693 1.27693,1.27692 0,42.96615 0,42.96616 -1.27693,1.27692 -1.27692,1.27692 -32.42218,0 c -28.25551,0 -32.56816,-0.10225 -33.55817,-0.79568 z" id="path4638"/>
    <g transform="translate(295.93692,431.06141)" style="font-size:100px;font-style:normal;font-variant:normal;font-weight:normal;font-stretch:normal;fill:#ba0000;fill-opacity:1;stroke:none;font-family:Droid Serif;-inkscape-font-specification:Droid Serif" id="text3983">
      <path d="m 165.45486,-11.91331 c -4e-5,0.333386 -0.1667,1.166719 -0.5,2.5 -0.2667,1.3333829 -0.40003,2.0667155 -0.4,2.1999996 l 0,5.3 c 0.1333,0.06671 0.49996,0.1000437 1.1,0.1 l 13,-1.5 c 0.73328,4.52e-5 1.99995,0.5000447 3.8,1.5 1.79995,1.0000427 3.09994,1.9000418 3.9,2.69999997 -0.20006,0.20004083 -0.60006,0.60004043 -1.2,1.20000003 -0.60005,0.6000392 -1.03339,1.0333721 -1.3,1.3 -0.20005,0.2667049 -0.56672,0.6667045 -1.1,1.2 -0.46672,0.4667035 -0.83339,0.8667031 -1.1,1.2 -0.20005,0.2667025 -0.50005,0.6333688 -0.9,1.1 -0.33338,0.4667012 -0.60005,0.8667008 -0.8,1.1999995 -0.13338,0.333367 -0.30005,0.700034 -0.5,1.1 -0.20005,0.400033 -0.33338,0.800032 -0.4,1.1999999 -0.0667,0.333365 -0.10005,0.700031 -0.1,1.1 -5e-5,0.40003 0.1,1.166696 0.3,2.3 l -5.4,0 c -4.73337,0.333362 -7.20004,0.500028 -7.4,0.5 -0.8667,2.8e-5 -1.50004,-0.133305 -1.9,-0.4 l -0.1,15.5 c -0.93337,6.800006 -1.7667,11.200002 -2.5,13.2 -0.80003,-1.466665 -1.20003,-2.599998 -1.2,-3.4 l 0,-5.8 c -3e-5,-0.06666 0.0666,-0.666657 0.2,-1.8 0.1333,-1.133321 0.19997,-1.833321 0.2,-2.1 l 0,-13.5 c -3e-5,-0.46664 -0.3667,-0.699973 -1.1,-0.7 -1.33336,2.7e-5 -4.50003,0.200027 -9.5,0.6 -0.66669,1.266692 -1.13335,2.300024 -1.4,3.1 -0.20002,2.3e-5 -0.43335,-0.199976 -0.7,-0.6 -0.66668,-1.599974 -1.20002,-3.733306 -1.6,-6.4 -0.40002,-2.6666339 -0.66668,-4.1666319 -0.8,-4.4999994 l -3.2,-7.3 c 0.59999,4.17e-5 1.56665,0.066708 2.9,0.2 1.33332,0.13337467 2.16665,0.20004127 2.5,0.19999997 1.53331,4.13e-5 5.59998,-0.56662477 12.2,-1.69999997 0.46664,-0.33329 0.69997,-0.7999562 0.7,-1.4 -3e-5,-3.4666188 -0.8667,-7.7666146 -2.6,-12.9000006 l 3.8,0 c 0.86663,5.8e-5 1.59997,0.366724 2.2,1.1 0.59996,0.666723 0.89996,1.466722 0.9,2.400001 m 12.1,14.7999996 c -5e-5,-1.2666264 -0.16671,-2.09995893 -0.5,-2.5 -0.26671,-0.4666247 -0.86671,-0.6999578 -1.8,-0.7 -0.26671,4.22e-5 -0.63338,0.033376 -1.1,0.1 l -8.6,0.69999997 c -0.20004,4.14e-5 -0.50004,-0.16662507 -0.9,-0.49999997 l 0,12.3999994 c 0.19996,3e-5 0.59996,0.03336 1.2,0.1 0.59996,3e-5 1.06663,3e-5 1.4,0 0.0666,3e-5 0.16663,-0.0333 0.3,-0.1 0.19996,-0.06664 0.49996,-0.133303 0.9,-0.2 0.39996,-0.133303 0.83329,-0.233303 1.3,-0.3 5.19995,-0.799969 7.79995,-3.7999659 7.8,-8.9999994 m -16.6,9.9999994 0,-11.6999994 -12.1,1.7 c 0.33331,1.2667044 0.56665,2.4333699 0.7,3.5 0.19998,1.0667011 0.33331,1.8667005 0.4,2.3999995 0.0666,0.533366 0.1,1.3666989 0.1,2.4999999 0.0666,1.133363 0.13331,2.066696 0.2,2.8 l 10.7,-1.2" id="path3988" sodipodi:nodetypes="ccccccscscssccsssccscccccsccscccsccsscsccccccscccccsscccccccsccc" style="fill:#ba0000;fill-opacity:1"/>
    </g>
    <g id="g3990" style="font-size:100px;font-style:normal;font-variant:normal;font-weight:normal;font-stretch:normal;fill:#000000;fill-opacity:1;stroke:none;font-family:Droid Serif;-inkscape-font-specification:Droid Serif" transform="translate(391.13875,428.9805)">
      <path id="path3992" d="m 106.75303,56.017599 c -8e-5,4.799984 -2.26674,7.199981 -6.800002,7.2 l -61.1,0 c -4.533338,-1.9e-5 -6.800002,-2.400016 -6.8,-7.2 l 0,-80.7 c -2e-6,-4.799926 2.266662,-7.199924 6.8,-7.2 l 61.1,0 c 4.533262,7.6e-5 6.799922,2.400074 6.800002,7.2 l 0,80.7 m -1.7,0 0,-80.7 c -8e-5,-3.666594 -1.70008,-5.499925 -5.100002,-5.5 l -61.1,0 c -3.400005,7.5e-5 -5.100004,1.833406 -5.1,5.5 l 0,80.7 c -4e-6,3.733318 1.699995,5.599983 5.1,5.6 l 61.1,0 c 3.399922,-1.7e-5 5.099922,-1.866682 5.100002,-5.6" sodipodi:nodetypes="cccccccccccccccccc"/>
    </g>
  </g>
</svg>