<?xml version="1.0" encoding="UTF-8" standalone="no"?>
<!-- Created with Inkscape (http://www.inkscape.org/) -->
<svg xmlns:dc="http://purl.org/dc/elements/1.1/" xmlns:cc="http://creativecommons.org/ns#" xmlns:rdf="http://www.w3.org/1999/02/22-rdf-syntax-ns#" xmlns:svg="http://www.w3.org/2000/svg" xmlns="http://www.w3.org/2000/svg" xmlns:sodipodi="http://sodipodi.sourceforge.net/DTD/sodipodi-0.dtd" xmlns:inkscape="http://www.inkscape.org/namespaces/inkscape" width="74.699997" height="95.099998" id="svg3739" version="1.1" inkscape:version="0.47 r22583" sodipodi:docname="MJGreendragon.svg">
  <defs id="defs3741"/>
  <sodipodi:namedview id="base" pagecolor="#ffffff" bordercolor="#666666" borderopacity="1.0" inkscape:pageopacity="0.0" inkscape:pageshadow="2" inkscape:zoom="1.922232" inkscape:cx="14.333723" inkscape:cy="16.394961" inkscape:document-units="px" inkscape:current-layer="layer1" showgrid="false" inkscape:window-width="1440" inkscape:window-height="851" inkscape:window-x="0" inkscape:window-y="25" inkscape:window-maximized="1"/>
  <metadata id="metadata3744">
    <rdf:RDF>
      <cc:Work rdf:about="">
        <dc:format>image/svg+xml</dc:format>
        <dc:type rdf:resource="http://purl.org/dc/dcmitype/StillImage"/>
        <dc:title/>
      </cc:Work>
    </rdf:RDF>
  </metadata>
  <g inkscape:label="Layer 1" inkscape:groupmode="layer" id="layer1" transform="translate(-453.68412,-379.26187)">
    <g transform="translate(423.19178,397.0981)" style="font-size:100px;font-style:normal;font-variant:normal;font-weight:normal;font-stretch:normal;fill:#000000;fill-opacity:1;stroke:none;font-family:Droid Serif;-inkscape-font-specification:Droid Serif" id="text4106">
      <path d="m 105.19234,70.063773 c -7e-5,4.799983 -2.26674,7.19998 -6.799998,7.2 l -61.1,0 c -4.533338,-2e-5 -6.800002,-2.400017 -6.8,-7.2 l 0,-80.7 c -2e-6,-4.799927 2.266662,-7.199924 6.8,-7.2 l 61.1,0 c 4.533258,7.6e-5 6.799928,2.400073 6.799998,7.2 l 0,80.7 m -1.7,0 0,-80.7 c -7e-5,-3.666595 -1.70007,-5.499926 -5.099998,-5.5 l -61.1,0 c -3.400005,7.4e-5 -5.100004,1.833405 -5.1,5.5 l 0,80.7 c -4e-6,3.733317 1.699995,5.599982 5.1,5.6 l 61.1,0 c 3.399928,-1.8e-5 5.099928,-1.866683 5.099998,-5.6" id="path4111" sodipodi:nodetypes="cccccccccccccccccc"/>
    </g>
    <path style="fill:#ffffff;fill-opacity:1;fill-rule:nonzero;stroke:none" d="m 458.26682,471.98181 c -2.65477,-1.35628 -2.59553,-0.33201 -2.60373,-45.01402 -0.009,-46.61849 -0.18688,-44.31177 3.50471,-45.33698 2.6196,-0.7275 61.0588,-0.74084 63.67368,-0.0145 3.7852,1.05138 3.56503,-1.75624 3.56503,45.4601 l 0,42.38792 -1.25533,1.45964 -1.25533,1.45964 -32.16936,0.12872 c -25.14858,0.10063 -32.45096,-0.0151 -33.45967,-0.53048 l 0,0 z" id="path4488"/>
    <g id="g4113" style="font-size:100px;font-style:normal;font-variant:normal;font-weight:normal;font-stretch:normal;fill:#004c00;fill-opacity:1;stroke:none;font-family:Droid Serif;-inkscape-font-specification:Droid Serif" transform="translate(282.73007,401.78016)">
      <path id="path4115" d="m 215.05405,10.531713 c 1.46662,-0.7999566 2.83329,-2.0332886 4.1,-3.6999996 1.33328,-1.6666189 2.13328,-3.1332841 2.4,-4.4000004 1.59995,0.8000501 3.13328,1.6667159 4.6,2.6 -0.20006,0.4000474 -0.46672,0.7667144 -0.8,1.1000004 -0.33339,0.33338 -0.66672,0.633379 -1,0.9 -0.33339,0.266712 -0.83339,0.633379 -1.5,1.1 -0.66672,0.400044 -1.23338,0.733377 -1.7,1 -0.40005,0.200044 -1.10005,0.600043 -2.1,1.1999996 -1.00005,0.533375 -1.80005,0.966708 -2.4,1.3 4.73328,5.866702 11.66661,10.033365 20.8,12.5 l -3.8,0.9 c -2.53339,0.600027 -4.23339,0.900027 -5.1,0.9 -1.40006,2.7e-5 -2.36672,-0.199973 -2.9,-0.6 -1.40005,-1.133305 -4.86672,-4.699968 -10.4,-10.7 l -5.3,-5.9999996 c -2.13337,-2.333287 -3.9667,-4.0999516 -5.5,-5.3000004 0.59997,-0.3999496 1.1333,-0.5999494 1.6,-0.6 1.46663,5.06e-5 2.6333,0.7000499 3.5,2.1 1.99996,-1.2666169 2.99996,-3.499948 3,-6.7 2.93329,5.52e-5 4.73329,0.6000546 5.4,1.79999999 l -7,6.00000041 c 1.33329,1.666712 2.69996,3.200044 4.1,4.5999996 m -6.7,7.9 c 0.46663,0.266701 0.76663,0.400034 0.9,0.4 0.13329,3.4e-5 0.96663,-0.333299 2.5,-1 1.53329,-0.733298 2.36662,-1.099964 2.5,-1.1 0.26662,3.6e-5 1.46662,0.600036 3.6,1.8 -1.46671,3.400031 -2.20005,5.600029 -2.2,6.6 -5e-5,0.533361 0.26662,0.93336 0.8,1.2 0.53329,0.200026 1.86662,0.433359 4,0.7 1.73328,0.200026 2.59995,0.500025 2.6,0.9 -5e-5,0.333358 -0.63339,0.766691 -1.9,1.3 -1.26672,0.46669 -2.23338,0.700023 -2.9,0.7 -3.06671,2.3e-5 -4.60004,-1.333309 -4.6,-4 -4e-5,-0.266639 0.0333,-0.899972 0.1,-1.9 0.0666,-0.99997 0.1,-1.633303 0.1,-1.9 -4e-5,-1.199968 -0.20004,-2.1333 -0.6,-2.8 -1.73337,0.400033 -2.93337,0.900033 -3.6,1.5 -0.0667,0.200032 -0.16671,0.700031 -0.3,1.5 -0.13337,0.80003 -0.23337,1.333363 -0.3,1.6 -4e-5,0.200029 -0.0667,0.633362 -0.2,1.3 -0.13337,0.666694 -0.2667,1.13336 -0.4,1.4 -0.0667,0.200026 -0.20004,0.600026 -0.4,1.2 -0.20004,0.533358 -0.40004,0.933357 -0.6,1.2 -0.20004,0.200024 -0.4667,0.533357 -0.8,1 -0.2667,0.400022 -0.5667,0.733355 -0.9,1 -0.33337,0.200022 -0.73337,0.466688 -1.2,0.8 -0.40003,0.266687 -0.8667,0.500021 -1.4,0.7 2.3333,-3.13331 3.49996,-6.433307 3.5,-9.9 -4e-5,-1.533302 -0.2667,-3.099967 -0.8,-4.7 l 1.8,0 c 0.0666,3.5e-5 0.29996,0.166701 0.7,0.5 m 11.8,16.9 c -5e-5,0.200017 -0.26672,0.766683 -0.8,1.7 -0.53338,0.866682 -1.16671,1.866681 -1.9,3 -0.66671,1.066678 -1.10005,1.800011 -1.3,2.2 l 4.5,3.2 c 1.93328,1.733339 2.89995,3.233338 2.9,4.5 l -0.5,2 c -1.73338,-0.799998 -4.80005,-3.099996 -9.2,-6.9 -3.46671,3.133338 -7.2667,4.700003 -11.4,4.7 l -1.1,0 c 1.79997,-0.799996 3.8333,-1.933328 6.1,-3.4 2.33329,-1.533325 3.49996,-2.499991 3.5,-2.9 -4e-5,-0.39999 -0.86671,-1.266656 -2.6,-2.6 l -3.8,-2.8 c 1.66663,0.466681 4.29996,1.36668 7.9,2.7 0.53329,-0.199988 1.03329,-0.83332 1.5,-1.9 0.53329,-1.133318 0.79996,-1.999984 0.8,-2.6 -4e-5,-0.799983 -0.46671,-1.199982 -1.4,-1.2 -0.20004,1.8e-5 -1.03338,0.233351 -2.5,0.7 -1.46671,0.466683 -2.2667,0.700016 -2.4,0.7 -0.33337,1.6e-5 -0.8667,-0.16665 -1.6,-0.5 -0.73337,-0.333316 -1.20004,-0.666649 -1.4,-1 l 10.6,-3 c 2.73329,1.20002 4.09995,2.333352 4.1,3.4 m -25.8,-15.5 c 0.19998,3.3e-5 1.16664,-0.299967 2.9,-0.9 1.79997,-0.666632 2.79997,-0.999965 3,-1 0.9333,3.5e-5 2.16663,0.766701 3.7,2.3 l -4.3,5.4 c 0.19997,0.13336 0.76664,0.966693 1.7,2.5 -2.93336,0.200025 -5.06669,0.433358 -6.4,0.7 -1.33336,0.26669 -2.03336,0.46669 -2.1,0.6 -0.0667,0.06669 -0.23336,0.333356 -0.5,0.8 -0.13336,0.133356 -0.50002,1.300021 -1.1,3.5 0.33331,1.9e-5 1.13331,-0.06665 2.4,-0.2 1.26664,-0.133314 1.93331,-0.19998 2,-0.2 0.66664,2e-5 1.53331,0.300019 2.6,0.9 1.1333,0.533351 1.69997,1.033351 1.7,1.5 -3e-5,0.13335 -0.1667,0.666683 -0.5,1.6 -0.33336,0.933348 -0.50003,1.466681 -0.5,1.6 -0.26669,2.000012 -1.06669,5.066676 -2.4,9.2 -0.80003,1.933336 -2.00002,3.200002 -3.6,3.8 -0.66669,-0.666665 -2.50002,-2.899996 -5.5,-6.7 l 5,1.2 c 1.06664,6e-6 1.93331,-0.899993 2.6,-2.7 0.73331,-1.799989 1.09997,-3.73332 1.1,-5.8 -3e-5,-1.66665 -0.76669,-2.499983 -2.3,-2.5 -1.20002,1.7e-5 -3.33335,1.13335 -6.4,3.4 -0.66668,-0.199986 -1.00002,-0.633319 -1,-1.3 -2e-5,-0.06665 0.19998,-0.433318 0.6,-1.1 0.46665,-0.733316 0.96665,-1.666649 1.5,-2.8 0.59998,-1.133313 1.03331,-2.099979 1.3,-2.9 0.19998,-0.533311 0.29998,-2.099976 0.3,-4.7 1.86665,1.066692 3.29998,1.600025 4.3,1.6 0.86664,2.5e-5 1.73331,-0.399974 2.6,-1.2 0.86664,-0.799973 1.29997,-1.566639 1.3,-2.3 l 0,-2.6 -5.2,-1.4 c -4.40002,5.000028 -9.06668,8.466691 -14,10.4 l 12.2,-12.6 c -1.40002,-1.399964 -3.10002,-3.399962 -5.1,-6 l 2.7,0 c 0.53331,4.1e-5 1.16665,0.466707 1.9,1.4 l 1.6,2 c 1.59998,-1.466628 3.13331,-4.666624 4.6,-9.5999996 -0.26669,-0.133286 -0.53336,-0.199953 -0.8,-0.2 l -4.3,0.7 c -0.46669,4.7e-5 -1.50002,-0.36662 -3.1,-1.1000004 5.99998,-2.1999496 9.06664,-3.2999485 9.2,-3.3 0.26664,5.15e-5 1.79997,0.8000507 4.6,2.4 l -9.1,15.2 c 0.26664,0.2667 0.53331,0.400033 0.8,0.4" sodipodi:nodetypes="ccccssccccccsccccsccccccscscsccscssssccscssccscscsccccccccccccccsccccssssscccccscccssccsscssccccccsscsccccsscccccccccccccsccc" style="fill:#004c00;fill-opacity:1"/>
    </g>
  </g>
</svg>