<?xml version="1.0" encoding="UTF-8" standalone="no"?>
<!-- Created with Inkscape (http://www.inkscape.org/) -->

<svg
   xmlns:dc="http://purl.org/dc/elements/1.1/"
   xmlns:cc="http://creativecommons.org/ns#"
   xmlns:rdf="http://www.w3.org/1999/02/22-rdf-syntax-ns#"
   xmlns:svg="http://www.w3.org/2000/svg"
   xmlns="http://www.w3.org/2000/svg"
   xmlns:sodipodi="http://sodipodi.sourceforge.net/DTD/sodipodi-0.dtd"
   xmlns:inkscape="http://www.inkscape.org/namespaces/inkscape"
   width="74.700005"
   height="95.099998"
   id="svg2"
   version="1.1"
   inkscape:version="0.47 r22583"
   sodipodi:docname="绘图-1.svg">
  <defs
     id="defs4" />
  <sodipodi:namedview
     id="base"
     pagecolor="#ffffff"
     bordercolor="#666666"
     borderopacity="1.0"
     inkscape:pageopacity="0.0"
     inkscape:pageshadow="2"
     inkscape:zoom="3.959798"
     inkscape:cx="-19.901885"
     inkscape:cy="33.498194"
     inkscape:document-units="px"
     inkscape:current-layer="g3205"
     showgrid="false"
     inkscape:window-width="1440"
     inkscape:window-height="851"
     inkscape:window-x="0"
     inkscape:window-y="25"
     inkscape:window-maximized="1" />
  <metadata
     id="metadata7">
    <rdf:RDF>
      <cc:Work
         rdf:about="">
        <dc:format>image/svg+xml</dc:format>
        <dc:type
           rdf:resource="http://purl.org/dc/dcmitype/StillImage" />
        <dc:title></dc:title>
      </cc:Work>
    </rdf:RDF>
  </metadata>
  <g
     transform="translate(-862.3434,-406.46302)"
     id="g3205"
     inkscape:groupmode="layer"
     inkscape:label="Layer 1">
    <g
       transform="translate(829.38628,411.35415)"
       style="font-size:100px;font-style:normal;font-variant:normal;font-weight:normal;font-stretch:normal;fill:#000000;fill-opacity:1;stroke:none;font-family:Droid Serif;-inkscape-font-specification:Droid Serif"
       id="text4347">
      <path
         d="m 107.65712,83.008871 c -8e-5,4.799984 -2.26675,7.199981 -6.8,7.2 l -61.100004,0 c -4.533338,-1.9e-5 -6.800003,-2.400016 -6.8,-7.2 l 0,-80.6999995 c -3e-6,-4.7999264 2.266662,-7.199924 6.8,-7.2 l 61.100004,0 c 4.53325,7.6e-5 6.79992,2.4000736 6.8,7.2 l 0,80.6999995 m -1.7,0 0,-80.6999995 c -8e-5,-3.6665942 -1.70008,-5.4999257 -5.1,-5.5 l -61.100004,0 c -3.400006,7.43e-5 -5.100005,1.8334058 -5.1,5.5 l 0,80.6999995 c -5e-6,3.733318 1.699994,5.599983 5.1,5.6 l 61.100004,0 c 3.39992,-1.7e-5 5.09992,-1.866682 5.1,-5.6"
         id="path4352"
         sodipodi:nodetypes="cccccccccccccccccc" />
    </g>
    <path
       style="fill:#ffffff;fill-opacity:1;fill-rule:nonzero;stroke:none"
       d="M 4.7710912,93.045729 C 3.5733851,92.621629 2.4549515,91.384607 2.1095864,90.102018 1.9499957,89.509342 1.8847001,74.094295 1.9271173,47.024551 L 1.9931717,4.8700289 2.7043909,3.7953434 C 4.076525,1.7219844 1.2861098,1.876535 37.348511,1.876535 c 36.062479,0 33.272005,-0.154557 34.644121,1.9188477 l 0.711218,1.0747248 0,42.7158305 0,42.715831 -0.693402,1.047801 c -1.401528,2.117853 1.66453,1.939002 -34.28313,1.999809 -27.014227,0.0457 -32.1020221,-0.0013 -32.9562268,-0.30365 l 0,0 z"
       id="path4358"
       transform="translate(862.3434,406.46302)" />
    <path
       style="font-size:100px;font-style:normal;font-variant:normal;font-weight:normal;font-stretch:normal;fill:#10106c;fill-opacity:1;stroke:none;font-family:Droid Serif;-inkscape-font-specification:Droid Serif"
       id="path4356-1"
       d="m 920.0434,475.96302 c -6e-5,5.8 -2.00006,10.63333 -6,14.5 -3.93338,3.93332 -8.73338,5.89998 -14.4,5.9 -5.73337,-2e-5 -10.5667,-2.00001 -14.5,-6 -3.86669,-3.93334 -5.80002,-8.7 -5.8,-14.3 -2e-5,-5.66665 1.96664,-10.46665 5.9,-14.4 3.9333,-3.99998 8.7333,-5.99997 14.4,-6 5.79995,3e-5 10.63328,2.00002 14.5,6 3.93328,3.93335 5.89994,8.70001 5.9,14.3 m -1.5,0 c -6e-5,-5.26666 -1.83339,-9.73332 -5.5,-13.4 -3.66672,-3.66664 -8.13338,-5.49997 -13.4,-5.5 -5.2667,3e-5 -9.73336,1.86669 -13.4,5.6 -3.60002,3.66668 -5.40002,8.10001 -5.4,13.3 -2e-5,5.4 1.83331,9.9 5.5,13.5 3.66664,3.59999 8.09996,5.39999 13.3,5.4 5.33329,-1e-5 9.79995,-1.83334 13.4,-5.5 3.66661,-3.66667 5.49994,-8.13333 5.5,-13.4 m -18.9,-16.6 c 4.79995,2e-5 8.76662,1.63335 11.9,4.9 3.19994,3.26668 4.79994,7.16668 4.8,11.7 -6e-5,4.8 -1.63339,8.8 -4.9,12 -3.20005,3.19999 -7.13338,4.79999 -11.8,4.8 -4.73337,-10e-6 -8.70003,-1.66668 -11.9,-5 -3.20003,-3.26667 -4.80002,-7.2 -4.8,-11.8 -2e-5,-4.73332 1.63331,-8.66665 4.9,-11.8 3.3333,-3.19998 7.26663,-4.79998 11.8,-4.8 m -10.8,27.5 c 2.99997,2.93333 6.59996,4.39999 10.8,4.4 4.19996,-10e-6 7.79995,-1.46667 10.8,-4.4 2.99995,-2.93334 4.49995,-6.56666 4.5,-10.9 -5e-5,-4.19999 -1.50005,-7.76665 -4.5,-10.7 -2.93338,-2.99998 -6.53338,-4.49998 -10.8,-4.5 -4.33337,2e-5 -7.9667,1.50002 -10.9,4.5 -2.86669,2.93335 -4.30003,6.50001 -4.3,10.7 -3e-5,4.33334 1.46664,7.96666 4.4,10.9 m 20.9,-15 c 1.26661,10e-6 2.29995,0.40001 3.1,1.2 0.79995,0.80001 1.19994,1.83334 1.2,3.1 -6e-5,1.2 -0.40005,2.16667 -1.2,2.9 -0.73339,0.73334 -1.76672,1.1 -3.1,1.1 l -2.8,0 c 1.33328,2.4 1.99995,3.96666 2,4.7 -5e-5,1.13333 -0.43338,2.13333 -1.3,3 -0.80005,0.86666 -1.83338,1.29999 -3.1,1.3 -0.33338,-1e-5 -0.66671,-0.0667 -1,-0.2 -0.33338,-0.0667 -0.63338,-0.20001 -0.9,-0.4 -0.26671,-0.20001 -0.50004,-0.40001 -0.7,-0.6 -0.20004,-0.20001 -0.43338,-0.50001 -0.7,-0.9 -0.20004,-0.33334 -0.36671,-0.6 -0.5,-0.8 -0.13337,-0.2 -0.33337,-0.53334 -0.6,-1 -0.26671,-0.4 -0.43337,-0.7 -0.5,-0.9 -1.20004,2.2 -2.13337,3.53333 -2.8,4 -0.60004,0.46666 -1.33337,0.69999 -2.2,0.7 -1.20003,-10e-6 -2.23337,-0.40001 -3.1,-1.2 -0.80003,-0.8 -1.20003,-1.76667 -1.2,-2.9 -3e-5,-0.8 0.69997,-2.4 2.1,-4.8 l -2.9,0 c -1.20003,0 -2.20003,-0.4 -3,-1.2 -0.80003,-0.8 -1.20003,-1.8 -1.2,-3 -3e-5,-1.26666 0.36664,-2.26666 1.1,-3 0.79997,-0.73332 1.8333,-1.09999 3.1,-1.1 l 2.9,0 c -1.33337,-2.33332 -2.00003,-3.89999 -2,-4.7 -3e-5,-1.13332 0.39997,-2.09998 1.2,-2.9 0.79997,-0.86665 1.8333,-1.29998 3.1,-1.3 0.46663,2e-5 0.86663,0.0667 1.2,0.2 0.39996,0.13335 0.69996,0.30002 0.9,0.5 0.26663,0.13335 0.56663,0.43335 0.9,0.9 0.33329,0.40002 0.5333,0.70002 0.6,0.9 0.13329,0.13335 0.36663,0.53335 0.7,1.2 0.33329,0.60001 0.53329,0.93335 0.6,1 1.26663,-2.26665 2.19996,-3.59998 2.8,-4 0.59996,-0.39998 1.33329,-0.59998 2.2,-0.6 1.19995,2e-5 2.23329,0.40002 3.1,1.2 0.86662,0.80002 1.29995,1.73335 1.3,2.8 -5e-5,0.73335 -0.70005,2.33335 -2.1,4.8 l 2.8,0 m -5.2,15.8 c 0.79995,-1e-5 1.46662,-0.26667 2,-0.8 0.59995,-0.53334 0.89995,-1.2 0.9,-2 -5e-5,-0.53334 -0.13338,-1 -0.4,-1.4 l -2.7,-4.8 5.4,0 c 1.86661,0 2.79995,-0.9 2.8,-2.7 -5e-5,-1.79999 -0.93339,-2.69999 -2.8,-2.7 l -5.4,0 2.7,-4.6 c 0.33328,-0.53332 0.49995,-1.09999 0.5,-1.7 -5e-5,-0.66665 -0.30005,-1.23332 -0.9,-1.7 -0.53338,-0.53332 -1.16671,-0.79998 -1.9,-0.8 -1.00004,2e-5 -1.76671,0.46668 -2.3,1.4 l -2.8,4.7 -2.7,-4.7 c -0.53337,-0.99998 -1.2667,-1.49998 -2.2,-1.5 -0.80003,2e-5 -1.50003,0.30002 -2.1,0.9 -0.53337,0.53335 -0.80003,1.16668 -0.8,1.9 -3e-5,0.46668 0.1333,0.96668 0.4,1.5 l 2.7,4.6 -5.4,0 c -1.80003,1e-5 -2.70003,0.90001 -2.7,2.7 -3e-5,1.8 0.89997,2.7 2.7,2.7 l 5.4,0 -2.7,4.8 c -0.33337,0.53333 -0.50003,1.03333 -0.5,1.5 -3e-5,0.73333 0.26663,1.33333 0.8,1.8 0.59997,0.53333 1.29997,0.79999 2.1,0.8 0.99996,-10e-6 1.76663,-0.46667 2.3,-1.4 l 2.7,-4.7 2.8,4.7 c 0.53329,0.99999 1.23329,1.49999 2.1,1.5 m -8,-14.7 c 0.86663,-0.86666 1.89996,-1.29999 3.1,-1.3 1.19996,10e-6 2.23329,0.43334 3.1,1.3 0.86662,0.80001 1.29996,1.80001 1.3,3 -4e-5,1.33334 -0.43338,2.43334 -1.3,3.3 -0.80004,0.8 -1.83337,1.2 -3.1,1.2 -1.26671,0 -2.33337,-0.43333 -3.2,-1.3 -0.80004,-0.93333 -1.20004,-2 -1.2,-3.2 -4e-5,-1.19999 0.4333,-2.19999 1.3,-3 m 3.1,6 c 0.86663,0 1.56662,-0.3 2.1,-0.9 0.59996,-0.6 0.89996,-1.29999 0.9,-2.1 -4e-5,-0.79999 -0.30004,-1.46666 -0.9,-2 -0.53338,-0.59999 -1.23337,-0.89999 -2.1,-0.9 -0.86671,1e-5 -1.56671,0.30001 -2.1,0.9 -0.53337,0.53334 -0.80004,1.20001 -0.8,2 -4e-5,0.86667 0.26663,1.6 0.8,2.2 0.59996,0.53334 1.29996,0.8 2.1,0.8 m 1.5,-3 c -4e-5,1.00001 -0.50004,1.5 -1.5,1.5 -0.93337,0 -1.40004,-0.49999 -1.4,-1.5 -4e-5,-0.93333 0.46663,-1.39999 1.4,-1.4 0.99996,1e-5 1.49996,0.46667 1.5,1.4 m 18.9,-44 c -6e-5,5.80004 -2.00006,10.66671 -6,14.6 -3.93338,3.8667 -8.73338,5.80003 -14.4,5.8 -5.73337,3e-5 -10.5667,-1.96663 -14.5,-5.9 -3.86669,-3.99996 -5.80002,-8.79996 -5.8,-14.4 -2e-5,-5.66661 1.96664,-10.46661 5.9,-14.4 3.9333,-3.99993 8.7333,-5.99993 14.4,-6 5.79995,7e-5 10.63328,2.00007 14.5,6 3.93328,3.93339 5.89994,8.70006 5.9,14.3 m -1.5,0 c -6e-5,-5.26661 -1.83339,-9.73327 -5.5,-13.4 -3.66672,-3.6666 -8.13338,-5.49993 -13.4,-5.5 -5.2667,7e-5 -9.73336,1.86673 -13.4,5.6 -3.60002,3.66673 -5.40002,8.10006 -5.4,13.3 -2e-5,5.40004 1.83331,9.90004 5.5,13.5 3.66664,3.60003 8.09996,5.40003 13.3,5.4 5.33329,3e-5 9.79995,-1.8333 13.4,-5.5 3.66661,-3.66663 5.49994,-8.13329 5.5,-13.4 m -18.9,-16.6 c 4.79995,7e-5 8.76662,1.6334 11.9,4.9 3.19994,3.26673 4.79994,7.16672 4.8,11.7 -6e-5,4.80005 -1.63339,8.80004 -4.9,12 -3.20005,3.20003 -7.13338,4.80003 -11.8,4.8 -4.73337,3e-5 -8.70003,-1.6333 -11.9,-4.9 -3.20003,-3.33329 -4.80002,-7.29995 -4.8,-11.9 -2e-5,-4.73328 1.63331,-8.66661 4.9,-11.8 3.3333,-3.19993 7.26663,-4.79993 11.8,-4.8 m -10.8,27.5 c 2.99997,2.93337 6.59996,4.40003 10.8,4.4 4.19996,3e-5 7.79995,-1.46663 10.8,-4.4 2.99995,-2.93329 4.49995,-6.56662 4.5,-10.9 -5e-5,-4.19995 -1.50005,-7.76661 -4.5,-10.7 -2.93338,-2.99994 -6.53338,-4.49993 -10.8,-4.5 -4.33337,7e-5 -7.9667,1.50006 -10.9,4.5 -2.86669,2.93339 -4.30003,6.50005 -4.3,10.7 -3e-5,4.33338 1.46664,7.96671 4.4,10.9 m 20.9,-15 c 1.26661,5e-5 2.29995,0.40005 3.1,1.2 0.79995,0.80005 1.19994,1.83338 1.2,3.1 -6e-5,1.20005 -0.40005,2.16671 -1.2,2.9 -0.73339,0.73338 -1.76672,1.10005 -3.1,1.1 l -2.8,0 c 1.33328,2.40004 1.99995,3.96671 2,4.7 -5e-5,1.13337 -0.43338,2.13337 -1.3,3 -0.80005,0.8667 -1.83338,1.30004 -3.1,1.3 -0.33338,4e-5 -0.66671,-0.0333 -1,-0.1 -0.33338,-0.1333 -0.63338,-0.29996 -0.9,-0.5 -0.26671,-0.19996 -0.50004,-0.39996 -0.7,-0.6 -0.20004,-0.19996 -0.43338,-0.46663 -0.7,-0.8 -0.20004,-0.39996 -0.36671,-0.69996 -0.5,-0.9 -0.13337,-0.19996 -0.33337,-0.49996 -0.6,-0.9 -0.26671,-0.46663 -0.43337,-0.79996 -0.5,-1 -1.20004,2.20004 -2.13337,3.53337 -2.8,4 -0.60004,0.4667 -1.33337,0.70004 -2.2,0.7 -1.20003,4e-5 -2.23337,-0.39996 -3.1,-1.2 -0.80003,-0.79996 -1.20003,-1.76663 -1.2,-2.9 -3e-5,-0.79996 0.69997,-2.39996 2.1,-4.8 l -2.9,0 c -1.20003,5e-5 -2.20003,-0.39995 -3,-1.2 -0.80003,-0.79995 -1.20003,-1.79995 -1.2,-3 -3e-5,-1.26662 0.36664,-2.26661 1.1,-3 0.79997,-0.73328 1.8333,-1.09995 3.1,-1.1 l 2.9,0 c -1.33337,-2.33328 -2.00003,-3.89994 -2,-4.7 -3e-5,-1.13327 0.39997,-2.09994 1.2,-2.9 0.79997,-0.8666 1.8333,-1.29994 3.1,-1.3 0.46663,6e-5 0.86663,0.0667 1.2,0.2 0.39996,0.1334 0.69996,0.30006 0.9,0.5 0.26663,0.1334 0.56663,0.4334 0.9,0.9 0.33329,0.40006 0.5333,0.70006 0.6,0.9 0.13329,0.13339 0.36663,0.53339 0.7,1.2 0.33329,0.60006 0.53329,0.93339 0.6,1 1.26663,-2.26661 2.19996,-3.59994 2.8,-4 0.59996,-0.39994 1.33329,-0.59994 2.2,-0.6 1.19995,6e-5 2.23329,0.40006 3.1,1.2 0.86662,0.80006 1.29995,1.73339 1.3,2.8 -5e-5,0.73339 -0.70005,2.33339 -2.1,4.8 l 2.8,0 m -5.2,15.8 c 0.79995,4e-5 1.46662,-0.26663 2,-0.8 0.59995,-0.53329 0.89995,-1.19996 0.9,-2 -5e-5,-0.53329 -0.13338,-0.99996 -0.4,-1.4 l -2.7,-4.8 5.4,0 c 1.86661,5e-5 2.79995,-0.89995 2.8,-2.7 -5e-5,-1.79995 -0.93339,-2.69995 -2.8,-2.7 l -5.4,0 2.7,-4.6 c 0.33328,-0.53328 0.49995,-1.09994 0.5,-1.7 -5e-5,-0.66661 -0.30005,-1.23327 -0.9,-1.7 -0.53338,-0.53327 -1.16671,-0.79994 -1.9,-0.8 -1.00004,6e-5 -1.76671,0.46673 -2.3,1.4 l -2.8,4.7 -2.7,-4.7 c -0.53337,-0.99994 -1.2667,-1.49994 -2.2,-1.5 -0.80003,6e-5 -1.50003,0.30006 -2.1,0.9 -0.53337,0.53339 -0.80003,1.16673 -0.8,1.9 -3e-5,0.46673 0.1333,0.96672 0.4,1.5 l 2.7,4.6 -5.4,0 c -1.80003,5e-5 -2.70003,0.90005 -2.7,2.7 -3e-5,1.80005 0.89997,2.70005 2.7,2.7 l 5.4,0 -2.7,4.8 c -0.33337,0.53338 -0.50003,1.03337 -0.5,1.5 -3e-5,0.73337 0.26663,1.36671 0.8,1.9 0.59997,0.46671 1.29997,0.70004 2.1,0.7 0.99996,4e-5 1.76663,-0.46663 2.3,-1.4 l 2.7,-4.7 2.8,4.7 c 0.53329,1.00004 1.23329,1.50004 2.1,1.5 m -8,-14.7 c 0.86663,-0.86661 1.89996,-1.29995 3.1,-1.3 1.19996,5e-5 2.23329,0.43339 3.1,1.3 0.86662,0.80005 1.29996,1.80005 1.3,3 -4e-5,1.33338 -0.43338,2.43338 -1.3,3.3 -0.80004,0.80005 -1.83337,1.20005 -3.1,1.2 -1.26671,5e-5 -2.33337,-0.43329 -3.2,-1.3 -0.80004,-0.93329 -1.20004,-1.99995 -1.2,-3.2 -4e-5,-1.19995 0.4333,-2.19995 1.3,-3 m 3.1,6 c 0.86663,5e-5 1.56662,-0.29995 2.1,-0.9 0.59996,-0.59995 0.89996,-1.29995 0.9,-2.1 -4e-5,-0.79995 -0.30004,-1.46662 -0.9,-2 -0.53338,-0.59995 -1.23337,-0.89995 -2.1,-0.9 -0.86671,5e-5 -1.56671,0.30005 -2.1,0.9 -0.53337,0.53338 -0.80004,1.20005 -0.8,2 -4e-5,0.86672 0.26663,1.60005 0.8,2.2 0.59996,0.53338 1.29996,0.80005 2.1,0.8 m 1.5,-3 c -4e-5,1.00005 -0.50004,1.50005 -1.5,1.5 -0.93337,5e-5 -1.40004,-0.49995 -1.4,-1.5 -4e-5,-0.93328 0.46663,-1.39995 1.4,-1.4 0.99996,5e-5 1.49996,0.46672 1.5,1.4"
       sodipodi:nodetypes="ccssscscccssssssccccscscssccssscsssccsscccscscsssscccscsccsscccscsscccccssssccccscccscccscscccssscccscccssscccccscssscscccscscscccsssccsscscscccssssssccccscscssccssscsssccsscccscscsscscccscsccsscccscsscccccssssccccscccscccscscccssscccscccscscccccscssscscccscscscccsssc" />
  </g>
</svg>
