<?xml version="1.0" encoding="UTF-8" standalone="no"?>
<!-- Created with Inkscape (http://www.inkscape.org/) -->

<svg
   xmlns:dc="http://purl.org/dc/elements/1.1/"
   xmlns:cc="http://creativecommons.org/ns#"
   xmlns:rdf="http://www.w3.org/1999/02/22-rdf-syntax-ns#"
   xmlns:svg="http://www.w3.org/2000/svg"
   xmlns="http://www.w3.org/2000/svg"
   xmlns:sodipodi="http://sodipodi.sourceforge.net/DTD/sodipodi-0.dtd"
   xmlns:inkscape="http://www.inkscape.org/namespaces/inkscape"
   width="74.699997"
   height="95.099998"
   id="svg2"
   version="1.1"
   inkscape:version="0.47 r22583"
   sodipodi:docname="绘图-1.svg">
  <defs
     id="defs4">
    <inkscape:perspective
       id="perspective3079"
       inkscape:persp3d-origin="0.5 : 0.33333333 : 1"
       inkscape:vp_z="1 : 0.5 : 1"
       inkscape:vp_y="0 : 1000 : 0"
       inkscape:vp_x="0 : 0.5 : 1"
       sodipodi:type="inkscape:persp3d" />
  </defs>
  <sodipodi:namedview
     id="base"
     pagecolor="#ffffff"
     bordercolor="#666666"
     borderopacity="1.0"
     inkscape:pageopacity="0.0"
     inkscape:pageshadow="2"
     inkscape:zoom="3.959798"
     inkscape:cx="28.98384"
     inkscape:cy="49.041277"
     inkscape:document-units="px"
     inkscape:current-layer="layer1"
     showgrid="false"
     inkscape:window-width="1440"
     inkscape:window-height="851"
     inkscape:window-x="0"
     inkscape:window-y="25"
     inkscape:window-maximized="1" />
  <metadata
     id="metadata7">
    <rdf:RDF>
      <cc:Work
         rdf:about="">
        <dc:format>image/svg+xml</dc:format>
        <dc:type
           rdf:resource="http://purl.org/dc/dcmitype/StillImage" />
        <dc:title></dc:title>
      </cc:Work>
    </rdf:RDF>
  </metadata>
  <g
     inkscape:label="Layer 1"
     inkscape:groupmode="layer"
     id="layer1"
     transform="translate(-259.54285,-636.36218)">
    <g
       style="font-size:100px;font-style:normal;font-variant:normal;font-weight:normal;font-stretch:normal;fill:#000000;fill-opacity:1;stroke:none;font-family:Droid Serif;-inkscape-font-specification:Droid Serif"
       id="text2816">
      <path
         d="m 334.24285,724.26218 c -7e-5,4.79999 -2.26674,7.19998 -6.8,7.2 l -61.1,0 c -4.53334,-2e-5 -6.8,-2.40001 -6.8,-7.2 l 0,-80.7 c 0,-4.79992 2.26666,-7.19992 6.8,-7.2 l 61.1,0 c 4.53326,8e-5 6.79993,2.40008 6.8,7.2 l 0,80.7 m -1.7,0 0,-80.7 c -7e-5,-3.66659 -1.70007,-5.49992 -5.1,-5.5 l -61.1,0 c -3.4,8e-5 -5.1,1.83341 -5.1,5.5 l 0,80.7 c 0,3.73332 1.7,5.59999 5.1,5.6 l 61.1,0 c 3.39993,-10e-6 5.09993,-1.86668 5.1,-5.6"
         id="path2821"
         sodipodi:nodetypes="cccccccccccccccccc" />
    </g>
    <path
       style="fill:#ffffff;fill-opacity:1;fill-rule:nonzero;stroke:none"
       d="M 4.1926936,92.734203 C 3.4794008,92.357005 2.9168476,91.808262 2.5746101,91.15584 2.0502754,90.156279 2.049937,90.131356 1.98467,47.709987 L 1.9193655,5.2642697 2.5030648,4.1604776 C 2.9039368,3.4024172 3.43342,2.8733694 4.193507,2.4714257 L 5.3002499,1.886166 37.686161,1.9530309 c 32.263783,0.066613 32.388542,0.068828 33.083254,0.5875452 1.007225,0.7520613 1.613473,1.6511876 1.875709,2.7818604 0.132865,0.572878 0.23229,18.4094935 0.235772,42.2978915 0.0065,44.732164 0.05569,43.077895 -1.318683,44.369054 -1.478245,1.388738 0.227764,1.32305 -34.361607,1.32305 l -31.9144647,0 -1.0934477,-0.578229 0,0 z"
       id="path2981"
       transform="translate(259.54285,636.36218)" />
    <g
       id="g2973"
       style="font-size:100px;font-style:normal;font-variant:normal;font-weight:normal;font-stretch:normal;fill:#10106c;fill-opacity:1;stroke:none;font-family:Droid Serif;-inkscape-font-specification:Droid Serif"
       transform="translate(-206.4762,14.397209)">
      <path
         id="path2975"
         d="m 531.41905,698.71497 c -6e-5,3.86666 -1.3334,7.06666 -4,9.6 -2.60006,2.59999 -5.73339,3.89999 -9.4,3.9 -3.80005,-10e-6 -7.00004,-1.33334 -9.6,-4 -2.60004,-2.60001 -3.90004,-5.76667 -3.9,-9.5 -4e-5,-3.73333 1.29996,-6.89999 3.9,-9.5 2.66662,-2.59999 5.86662,-3.89998 9.6,-3.9 3.79994,2e-5 6.96661,1.33335 9.5,4 2.59994,2.60001 3.89994,5.73334 3.9,9.4 m -1,0 c -6e-5,-3.46666 -1.2334,-6.39999 -3.7,-8.8 -2.40006,-2.39999 -5.33339,-3.59999 -8.8,-3.6 -3.40005,10e-6 -6.33338,1.20001 -8.8,3.6 -2.40004,2.40001 -3.60004,5.33334 -3.6,8.8 -4e-5,3.53333 1.19996,6.5 3.6,8.9 2.46662,2.39999 5.43329,3.59999 8.9,3.6 3.46661,-10e-6 6.39994,-1.23334 8.8,-3.7 2.39994,-2.4 3.59994,-5.33334 3.6,-8.8 m -12.4,-10.9 c 3.13328,10e-6 5.73328,1.06668 7.8,3.2 2.13327,2.13334 3.19994,4.7 3.2,7.7 -6e-5,3.13333 -1.06673,5.76666 -3.2,7.9 -2.13339,2.13332 -4.73339,3.19999 -7.8,3.2 -3.13338,-10e-6 -5.76671,-1.10001 -7.9,-3.3 -2.06671,-2.13334 -3.10004,-4.73333 -3.1,-7.8 -4e-5,-3.13333 1.06663,-5.73333 3.2,-7.8 2.13329,-2.06666 4.73328,-3.09999 7.8,-3.1 m -7.2,18.1 c 1.99995,1.93333 4.36662,2.89999 7.1,2.9 2.79995,-10e-6 5.16661,-0.96667 7.1,-2.9 1.99994,-1.93334 2.99994,-4.33333 3,-7.2 -6e-5,-2.73333 -0.96673,-5.06666 -2.9,-7 -1.93339,-1.99999 -4.30005,-2.99999 -7.1,-3 -2.86672,10e-6 -5.26671,1.00001 -7.2,3 -1.93338,1.93334 -2.90004,4.26667 -2.9,7 -4e-5,2.86667 0.96662,5.26666 2.9,7.2 m 13.8,-9.9 c 0.86661,0 1.56661,0.26667 2.1,0.8 0.53327,0.53334 0.79994,1.2 0.8,2 -6e-5,0.8 -0.26673,1.43333 -0.8,1.9 -0.53339,0.53333 -1.23339,0.8 -2.1,0.8 l -1.8,0 c 0.86661,1.53333 1.29994,2.56666 1.3,3.1 -6e-5,0.73333 -0.26672,1.36666 -0.8,1.9 -0.53339,0.59999 -1.23339,0.89999 -2.1,0.9 -0.20005,-1e-5 -0.43339,-0.0333 -0.7,-0.1 -0.20005,-10e-6 -0.40005,-0.10001 -0.6,-0.3 -0.13339,-0.13334 -0.26672,-0.26667 -0.4,-0.4 -0.13339,-0.0667 -0.30005,-0.23334 -0.5,-0.5 -0.13339,-0.26667 -0.26672,-0.46667 -0.4,-0.6 -0.0667,-0.13334 -0.16672,-0.36667 -0.3,-0.7 -0.13339,-0.26667 -0.23338,-0.43334 -0.3,-0.5 -0.80005,1.46666 -1.43338,2.33333 -1.9,2.6 -0.40005,0.33333 -0.86672,0.49999 -1.4,0.5 -0.80005,-1e-5 -1.50005,-0.26667 -2.1,-0.8 -0.53338,-0.53334 -0.80005,-1.16667 -0.8,-1.9 -5e-5,-0.53334 0.46662,-1.6 1.4,-3.2 l -1.9,0 c -0.80004,0 -1.46671,-0.26667 -2,-0.8 -0.53338,-0.53333 -0.80004,-1.2 -0.8,-2 -4e-5,-0.8 0.23329,-1.43333 0.7,-1.9 0.53329,-0.53333 1.23329,-0.8 2.1,-0.8 l 1.9,0 c -0.86671,-1.53333 -1.30005,-2.56666 -1.3,-3.1 -5e-5,-0.73333 0.26662,-1.36666 0.8,-1.9 0.53329,-0.59999 1.19995,-0.89999 2,-0.9 0.33328,10e-6 0.59995,0.0667 0.8,0.2 0.26662,0.0667 0.46662,0.16668 0.6,0.3 0.19995,0.0667 0.39995,0.26668 0.6,0.6 0.19995,0.26668 0.33328,0.46668 0.4,0.6 0.0666,0.0667 0.19995,0.30001 0.4,0.7 0.26662,0.40001 0.43328,0.63334 0.5,0.7 0.79995,-1.46666 1.39995,-2.33332 1.8,-2.6 0.39995,-0.26666 0.89995,-0.39999 1.5,-0.4 0.79994,10e-6 1.46661,0.26668 2,0.8 0.53328,0.53334 0.79994,1.16667 0.8,1.9 -6e-5,0.46667 -0.43339,1.50001 -1.3,3.1 l 1.8,0 m -3.4,10.4 c 0.53328,-1e-5 0.96661,-0.16667 1.3,-0.5 0.39994,-0.33334 0.59994,-0.76667 0.6,-1.3 -6e-5,-0.33334 -0.0667,-0.66667 -0.2,-1 l -1.8,-3.1 3.5,0 c 1.26661,0 1.89994,-0.6 1.9,-1.8 -6e-5,-1.13333 -0.63339,-1.7 -1.9,-1.7 l -3.5,0 1.8,-3.1 c 0.13328,-0.39999 0.19994,-0.76666 0.2,-1.1 -6e-5,-0.46666 -0.16672,-0.86666 -0.5,-1.2 -0.33339,-0.33332 -0.76672,-0.49999 -1.3,-0.5 -0.66672,10e-6 -1.16672,0.33334 -1.5,1 l -1.8,3.1 -1.8,-3.1 c -0.40005,-0.66666 -0.90005,-0.99999 -1.5,-1 -0.53338,10e-6 -1.00005,0.20001 -1.4,0.6 -0.33338,0.33334 -0.50005,0.73334 -0.5,1.2 -5e-5,0.33334 0.1,0.66667 0.3,1 l 1.8,3.1 -3.6,0 c -1.20004,0 -1.80004,0.56667 -1.8,1.7 -4e-5,1.2 0.59996,1.8 1.8,1.8 l 3.6,0 -1.8,3.1 c -0.20005,0.4 -0.30005,0.76666 -0.3,1.1 -5e-5,0.46666 0.16662,0.86666 0.5,1.2 0.39995,0.33333 0.83329,0.49999 1.3,0.5 0.66662,-1e-5 1.19995,-0.33334 1.6,-1 l 1.8,-3 1.8,3 c 0.33328,0.66666 0.79995,0.99999 1.4,1 m -5.3,-9.7 c 0.59995,-0.53333 1.26662,-0.8 2,-0.8 0.79995,0 1.49995,0.26667 2.1,0.8 0.59995,0.53334 0.89995,1.2 0.9,2 -5e-5,0.86667 -0.30005,1.56667 -0.9,2.1 -0.53339,0.6 -1.23339,0.9 -2.1,0.9 -0.80005,0 -1.46672,-0.3 -2,-0.9 -0.53338,-0.6 -0.80005,-1.3 -0.8,-2.1 -5e-5,-0.8 0.26662,-1.46666 0.8,-2 m 2.1,4 c 0.53328,0 0.96661,-0.2 1.3,-0.6 0.39995,-0.4 0.59995,-0.86667 0.6,-1.4 -5e-5,-0.53333 -0.20005,-0.96666 -0.6,-1.3 -0.33339,-0.4 -0.80005,-0.6 -1.4,-0.6 -0.53338,0 -1.00005,0.2 -1.4,0.6 -0.33338,0.33334 -0.50005,0.76667 -0.5,1.3 -5e-5,0.6 0.19995,1.06667 0.6,1.4 0.39995,0.4 0.86662,0.6 1.4,0.6 m 0.9,-2 c -5e-5,0.66667 -0.30005,1 -0.9,1 -0.66672,0 -1.00005,-0.33333 -1,-1 -5e-5,-0.6 0.33328,-0.9 1,-0.9 0.59995,0 0.89995,0.3 0.9,0.9 m -16.7,-58.5 c -4e-5,3.86672 -1.33337,7.10005 -4,9.7 -2.60003,2.53338 -5.73336,3.80005 -9.4,3.8 -3.80002,5e-5 -7.00002,-1.29995 -9.6,-3.9 -2.60001,-2.66661 -3.90001,-5.86661 -3.9,-9.6 -1e-5,-3.73327 1.29999,-6.89993 3.9,-9.5 2.66665,-2.59993 5.86665,-3.89993 9.6,-3.9 3.79997,7e-5 6.96664,1.33341 9.5,4 2.59997,2.60007 3.89996,5.7334 3.9,9.4 m -1,0 c -3e-5,-3.4666 -1.23337,-6.39993 -3.7,-8.8 -2.40003,-2.39993 -5.33336,-3.59993 -8.8,-3.6 -3.40002,7e-5 -6.33335,1.20007 -8.8,3.6 -2.40001,2.40007 -3.60001,5.3334 -3.6,8.8 -1e-5,3.53339 1.19999,6.50005 3.6,8.9 2.46665,2.40005 5.43331,3.60005 8.9,3.6 3.46664,5e-5 6.39997,-1.19995 8.8,-3.6 2.39997,-2.46661 3.59997,-5.43328 3.6,-8.9 m -12.4,-10.9 c 3.13331,7e-5 5.73331,1.06674 7.8,3.2 2.1333,2.1334 3.19997,4.70006 3.2,7.7 -3e-5,3.13339 -1.0667,5.76672 -3.2,7.9 -2.13336,2.13338 -4.73336,3.20005 -7.8,3.2 -3.13335,5e-5 -5.76668,-1.06662 -7.9,-3.2 -2.06668,-2.19995 -3.10001,-4.83328 -3.1,-7.9 -1e-5,-3.13327 1.06665,-5.73327 3.2,-7.8 2.13332,-2.0666 4.73331,-3.09993 7.8,-3.1 m -7.2,18.1 c 1.99998,1.93338 4.36665,2.90005 7.1,2.9 2.79997,5e-5 5.16664,-0.96662 7.1,-2.9 1.99997,-1.93328 2.99997,-4.33328 3,-7.2 -3e-5,-2.73327 -0.9667,-5.0666 -2.9,-7 -1.93336,-1.99993 -4.30003,-2.99993 -7.1,-3 -2.86669,7e-5 -5.26668,1.00007 -7.2,3 -1.93335,1.9334 -2.90001,4.26673 -2.9,7 -10e-6,2.86672 0.96665,5.26672 2.9,7.2 m 13.8,-9.9 c 0.86664,6e-5 1.56664,0.26673 2.1,0.8 0.5333,0.53339 0.79997,1.20006 0.8,2 -3e-5,0.80006 -0.2667,1.46673 -0.8,2 -0.53336,0.46672 -1.23336,0.70006 -2.1,0.7 l -1.8,0 c 0.86664,1.53339 1.29997,2.56672 1.3,3.1 -3e-5,0.73339 -0.26669,1.40005 -0.8,2 -0.53336,0.53339 -1.23336,0.80005 -2.1,0.8 -0.20003,5e-5 -0.43336,5e-5 -0.7,0 -0.20002,-0.0666 -0.40002,-0.16662 -0.6,-0.3 -0.13336,-0.19995 -0.26669,-0.33328 -0.4,-0.4 -0.13336,-0.13328 -0.30002,-0.33328 -0.5,-0.6 -0.13336,-0.26661 -0.26669,-0.46661 -0.4,-0.6 -0.0667,-0.13328 -0.16669,-0.33328 -0.3,-0.6 -0.13336,-0.33328 -0.23336,-0.53328 -0.3,-0.6 -0.80002,1.46672 -1.43335,2.33339 -1.9,2.6 -0.40002,0.33338 -0.86669,0.50005 -1.4,0.5 -0.80002,5e-5 -1.50002,-0.26661 -2.1,-0.8 -0.53335,-0.53328 -0.80002,-1.16661 -0.8,-1.9 -2e-5,-0.53328 0.46665,-1.59994 1.4,-3.2 l -1.9,0 c -0.80001,6e-5 -1.46668,-0.26661 -2,-0.8 -0.53335,-0.53327 -0.80001,-1.19994 -0.8,-2 -1e-5,-0.79994 0.23332,-1.43327 0.7,-1.9 0.53332,-0.53327 1.23332,-0.79994 2.1,-0.8 l 1.9,0 c -0.86668,-1.53327 -1.30002,-2.5666 -1.3,-3.1 -2e-5,-0.73327 0.26665,-1.3666 0.8,-1.9 0.53332,-0.59993 1.19998,-0.89993 2,-0.9 0.33331,7e-5 0.59998,0.0667 0.8,0.2 0.26665,0.0667 0.46665,0.16674 0.6,0.3 0.19998,0.0667 0.39998,0.26673 0.6,0.6 0.19998,0.26673 0.33331,0.46673 0.4,0.6 0.0666,0.0667 0.19998,0.30007 0.4,0.7 0.26664,0.40007 0.43331,0.6334 0.5,0.7 0.79998,-1.4666 1.39998,-2.33327 1.8,-2.6 0.39998,-0.2666 0.89997,-0.39993 1.5,-0.4 0.79997,7e-5 1.46664,0.26674 2,0.8 0.53331,0.5334 0.79997,1.16673 0.8,1.9 -3e-5,0.46673 -0.43336,1.50006 -1.3,3.1 l 1.8,0 m -3.4,10.4 c 0.53331,5e-5 0.96664,-0.16661 1.3,-0.5 0.39997,-0.33328 0.59997,-0.76661 0.6,-1.3 -3e-5,-0.33328 -0.0667,-0.66661 -0.2,-1 l -1.8,-3.1 3.5,0 c 1.26664,6e-5 1.89997,-0.56661 1.9,-1.7 -3e-5,-1.19994 -0.63336,-1.79994 -1.9,-1.8 l -3.5,0 1.8,-3.1 c 0.13331,-0.39993 0.19997,-0.7666 0.2,-1.1 -3e-5,-0.4666 -0.16669,-0.8666 -0.5,-1.2 -0.33336,-0.33327 -0.76669,-0.49993 -1.3,-0.5 -0.66669,7e-5 -1.16669,0.3334 -1.5,1 l -1.8,3.1 -1.8,-3.1 c -0.40002,-0.6666 -0.90002,-0.99993 -1.5,-1 -0.53335,7e-5 -1.00002,0.20007 -1.4,0.6 -0.33335,0.3334 -0.50002,0.7334 -0.5,1.2 -2e-5,0.3334 0.1,0.66673 0.3,1 l 1.8,3.1 -3.6,0 c -1.20001,6e-5 -1.80001,0.60006 -1.8,1.8 -1e-5,1.13339 0.59999,1.70006 1.8,1.7 l 3.6,0 -1.8,3.1 c -0.20002,0.40005 -0.30002,0.76672 -0.3,1.1 -2e-5,0.46672 0.16665,0.86672 0.5,1.2 0.39998,0.33339 0.83331,0.50005 1.3,0.5 0.66665,5e-5 1.19998,-0.33328 1.6,-1 l 1.8,-3 1.8,3 c 0.33331,0.66672 0.79998,1.00005 1.4,1 m -5.3,-9.7 c 0.59998,-0.53327 1.26665,-0.79994 2,-0.8 0.79998,6e-5 1.49998,0.26673 2.1,0.8 0.59998,0.53339 0.89997,1.20006 0.9,2 -3e-5,0.86673 -0.30002,1.60006 -0.9,2.2 -0.53336,0.53339 -1.23336,0.80006 -2.1,0.8 -0.80002,6e-5 -1.46669,-0.29994 -2,-0.9 -0.53335,-0.59994 -0.80002,-1.29994 -0.8,-2.1 -2e-5,-0.79994 0.26665,-1.46661 0.8,-2 m 2.1,4 c 0.53331,6e-5 0.96664,-0.19994 1.3,-0.6 0.39998,-0.39994 0.59998,-0.86661 0.6,-1.4 -2e-5,-0.53327 -0.20002,-0.96661 -0.6,-1.3 -0.33336,-0.39994 -0.80002,-0.59994 -1.4,-0.6 -0.53336,6e-5 -1.00002,0.20006 -1.4,0.6 -0.33335,0.33339 -0.50002,0.76673 -0.5,1.3 -2e-5,0.60006 0.19998,1.10006 0.6,1.5 0.39998,0.33339 0.86664,0.50006 1.4,0.5 m 0.9,-2 c -2e-5,0.66673 -0.30002,1.00006 -0.9,1 -0.66669,6e-5 -1.00002,-0.33327 -1,-1 -2e-5,-0.59994 0.33331,-0.89994 1,-0.9 0.59998,6e-5 0.89998,0.30006 0.9,0.9"
         sodipodi:nodetypes="ccscscsccccscscsccccssssssccscscscsccsscccscscsscssccscsccsssccscscccsccssssccccscccscccssscccssscccscccscscccccssscssscccscssscccsssccsscscsccccscscsccccssscssccscscscsccsscccscsccscssccscsccsssccscscccsccssssccccscccscccssscccssscccscccscscccccssssssscccscssscccsssc"
         style="fill:#10106c;fill-opacity:1" />
    </g>
    <g
       transform="translate(5.0507585,10.054059)"
       style="font-size:100px;font-style:normal;font-variant:normal;font-weight:normal;font-stretch:normal;fill:#9c0000;fill-opacity:1;stroke:none;font-family:Droid Serif;-inkscape-font-specification:Droid Serif"
       id="g2977">
      <path
         d="m 305.29209,673.80812 c -5e-5,3.86669 -1.33338,7.10002 -4,9.7 -2.60004,2.53335 -5.73337,3.80002 -9.4,3.8 -3.80003,2e-5 -7.00003,-1.29998 -9.6,-3.9 -2.60002,-2.66664 -3.90002,-5.86664 -3.9,-9.6 -2e-5,-3.7333 1.29998,-6.89996 3.9,-9.5 2.66664,-2.59996 5.86663,-3.89996 9.6,-3.9 3.79996,4e-5 6.96662,1.33338 9.5,4 2.59995,2.60004 3.89995,5.73337 3.9,9.4 m -1,0 c -5e-5,-3.46663 -1.23338,-6.39996 -3.7,-8.8 -2.40004,-2.39996 -5.33337,-3.59996 -8.8,-3.6 -3.40003,4e-5 -6.33336,1.20004 -8.8,3.6 -2.40003,2.40004 -3.60002,5.33337 -3.6,8.8 -2e-5,3.53336 1.19997,6.50002 3.6,8.9 2.46664,2.40002 5.4333,3.60002 8.9,3.6 3.46663,2e-5 6.39996,-1.19998 8.8,-3.6 2.39995,-2.46664 3.59995,-5.43331 3.6,-8.9 m -12.4,-10.9 c 3.13329,4e-5 5.73329,1.06671 7.8,3.2 2.13329,2.13337 3.19995,4.70003 3.2,7.7 -5e-5,3.13336 -1.06671,5.76669 -3.2,7.9 -2.13338,2.13335 -4.73337,3.20002 -7.8,3.2 -3.13337,2e-5 -5.7667,-1.06665 -7.9,-3.2 -2.06669,-2.19997 -3.10003,-4.83331 -3.1,-7.9 -3e-5,-3.1333 1.06664,-5.7333 3.2,-7.8 2.1333,-2.06663 4.7333,-3.09996 7.8,-3.1 m -7.2,18.1 c 1.99997,1.93336 4.36663,2.90002 7.1,2.9 2.79996,2e-5 5.16662,-0.96664 7.1,-2.9 1.99995,-1.93331 2.99995,-4.33331 3,-7.2 -5e-5,-2.7333 -0.96671,-5.06663 -2.9,-7 -1.93338,-1.99996 -4.30004,-2.99996 -7.1,-3 -2.8667,4e-5 -5.2667,1.00004 -7.2,3 -1.93336,1.93337 -2.90003,4.2667 -2.9,7 -3e-5,2.86669 0.96664,5.26669 2.9,7.2 m 13.8,-9.9 c 0.86662,3e-5 1.56662,0.2667 2.1,0.8 0.53329,0.53337 0.79995,1.20003 0.8,2 -5e-5,0.80003 -0.26671,1.4667 -0.8,2 -0.53338,0.46669 -1.23338,0.70003 -2.1,0.7 l -1.8,0 c 0.86662,1.53336 1.29996,2.56669 1.3,3.1 -4e-5,0.73336 -0.26671,1.40002 -0.8,2 -0.53338,0.53336 -1.23337,0.80002 -2.1,0.8 -0.20004,2e-5 -0.43337,2e-5 -0.7,0 -0.20004,-0.0666 -0.40004,-0.16664 -0.6,-0.3 -0.13337,-0.19998 -0.26671,-0.33331 -0.4,-0.4 -0.13337,-0.13331 -0.30004,-0.33331 -0.5,-0.6 -0.13337,-0.26664 -0.2667,-0.46664 -0.4,-0.6 -0.0667,-0.13331 -0.1667,-0.33331 -0.3,-0.6 -0.13337,-0.33331 -0.23337,-0.53331 -0.3,-0.6 -0.80004,1.46669 -1.43337,2.33336 -1.9,2.6 -0.40003,0.33336 -0.8667,0.50002 -1.4,0.5 -0.80003,2e-5 -1.50003,-0.26664 -2.1,-0.8 -0.53336,-0.53331 -0.80003,-1.16664 -0.8,-1.9 -3e-5,-0.53331 0.46664,-1.59997 1.4,-3.2 l -1.9,0 c -0.80003,3e-5 -1.4667,-0.26664 -2,-0.8 -0.53336,-0.5333 -0.80003,-1.19997 -0.8,-2 -3e-5,-0.79997 0.23331,-1.4333 0.7,-1.9 0.5333,-0.5333 1.2333,-0.79997 2.1,-0.8 l 1.9,0 c -0.8667,-1.5333 -1.30003,-2.56663 -1.3,-3.1 -3e-5,-0.7333 0.26664,-1.36663 0.8,-1.9 0.5333,-0.59996 1.19997,-0.89996 2,-0.9 0.3333,4e-5 0.59997,0.0667 0.8,0.2 0.26663,0.0667 0.46663,0.16671 0.6,0.3 0.19996,0.0667 0.39996,0.26671 0.6,0.6 0.19996,0.2667 0.3333,0.4667 0.4,0.6 0.0666,0.0667 0.19996,0.30004 0.4,0.7 0.26663,0.40004 0.4333,0.63337 0.5,0.7 0.79996,-1.46663 1.39996,-2.33329 1.8,-2.6 0.39996,-0.26663 0.89996,-0.39996 1.5,-0.4 0.79996,4e-5 1.46662,0.26671 2,0.8 0.53329,0.53337 0.79996,1.1667 0.8,1.9 -4e-5,0.4667 -0.43338,1.50004 -1.3,3.1 l 1.8,0 m -3.4,10.4 c 0.53329,2e-5 0.96663,-0.16664 1.3,-0.5 0.39996,-0.33331 0.59996,-0.76664 0.6,-1.3 -4e-5,-0.33331 -0.0667,-0.66664 -0.2,-1 l -1.8,-3.1 3.5,0 c 1.26662,3e-5 1.89995,-0.56664 1.9,-1.7 -5e-5,-1.19997 -0.63338,-1.79997 -1.9,-1.8 l -3.5,0 1.8,-3.1 c 0.13329,-0.39996 0.19996,-0.76663 0.2,-1.1 -4e-5,-0.46663 -0.16671,-0.86663 -0.5,-1.2 -0.33337,-0.3333 -0.76671,-0.49996 -1.3,-0.5 -0.66671,4e-5 -1.16671,0.33337 -1.5,1 l -1.8,3.1 -1.8,-3.1 c -0.40003,-0.66663 -0.90003,-0.99996 -1.5,-1 -0.53337,4e-5 -1.00003,0.20004 -1.4,0.6 -0.33337,0.33337 -0.50003,0.73337 -0.5,1.2 -3e-5,0.33337 0.1,0.6667 0.3,1 l 1.8,3.1 -3.6,0 c -1.20003,3e-5 -1.80003,0.60003 -1.8,1.8 -3e-5,1.13336 0.59997,1.70003 1.8,1.7 l 3.6,0 -1.8,3.1 c -0.20003,0.40003 -0.30003,0.76669 -0.3,1.1 -3e-5,0.46669 0.16663,0.86669 0.5,1.2 0.39997,0.33336 0.8333,0.50002 1.3,0.5 0.66663,2e-5 1.19997,-0.33331 1.6,-1 l 1.8,-3 1.8,3 c 0.33329,0.66669 0.79996,1.00002 1.4,1 m -5.3,-9.7 c 0.59996,-0.5333 1.26663,-0.79997 2,-0.8 0.79996,3e-5 1.49996,0.2667 2.1,0.8 0.59996,0.53337 0.89996,1.20003 0.9,2 -4e-5,0.8667 -0.30004,1.60003 -0.9,2.2 -0.53337,0.53336 -1.23337,0.80003 -2.1,0.8 -0.80004,3e-5 -1.4667,-0.29997 -2,-0.9 -0.53337,-0.59997 -0.80003,-1.29997 -0.8,-2.1 -3e-5,-0.79997 0.26663,-1.46663 0.8,-2 m 2.1,4 c 0.5333,3e-5 0.96663,-0.19997 1.3,-0.6 0.39996,-0.39997 0.59996,-0.86664 0.6,-1.4 -4e-5,-0.5333 -0.20004,-0.96663 -0.6,-1.3 -0.33337,-0.39997 -0.80004,-0.59997 -1.4,-0.6 -0.53337,3e-5 -1.00004,0.20003 -1.4,0.6 -0.33337,0.33337 -0.50004,0.7667 -0.5,1.3 -4e-5,0.60003 0.19996,1.10003 0.6,1.5 0.39996,0.33336 0.86663,0.50003 1.4,0.5 m 0.9,-2 c -4e-5,0.6667 -0.30004,1.00003 -0.9,1 -0.6667,3e-5 -1.00004,-0.3333 -1,-1 -4e-5,-0.59997 0.3333,-0.89997 1,-0.9 0.59996,3e-5 0.89996,0.30003 0.9,0.9"
         id="path2979"
         sodipodi:nodetypes="csscscsccccscscsccccssscssccscscscsccsscccscsccscssccscsccsssccscscccsccssssccccscccscccssscccssscccscccscscccccssssssscccscssscccsssc"
         style="fill:#9c0000;fill-opacity:1" />
    </g>
  </g>
</svg>
