<?xml version="1.0" encoding="UTF-8" standalone="no"?>
<!-- Created with Inkscape (http://www.inkscape.org/) -->

<svg
   xmlns:dc="http://purl.org/dc/elements/1.1/"
   xmlns:cc="http://creativecommons.org/ns#"
   xmlns:rdf="http://www.w3.org/1999/02/22-rdf-syntax-ns#"
   xmlns:svg="http://www.w3.org/2000/svg"
   xmlns="http://www.w3.org/2000/svg"
   xmlns:sodipodi="http://sodipodi.sourceforge.net/DTD/sodipodi-0.dtd"
   xmlns:inkscape="http://www.inkscape.org/namespaces/inkscape"
   width="74.699997"
   height="95.099998"
   id="svg2"
   version="1.1"
   inkscape:version="0.47 r22583"
   sodipodi:docname="绘图-2.svg">
  <defs
     id="defs4" />
  <sodipodi:namedview
     id="base"
     pagecolor="#ffffff"
     bordercolor="#666666"
     borderopacity="1.0"
     inkscape:pageopacity="0.0"
     inkscape:pageshadow="2"
     inkscape:zoom="2.8"
     inkscape:cx="17.151127"
     inkscape:cy="35.306731"
     inkscape:document-units="px"
     inkscape:current-layer="g2850"
     showgrid="false"
     inkscape:window-width="1440"
     inkscape:window-height="851"
     inkscape:window-x="0"
     inkscape:window-y="25"
     inkscape:window-maximized="1" />
  <metadata
     id="metadata7">
    <rdf:RDF>
      <cc:Work
         rdf:about="">
        <dc:format>image/svg+xml</dc:format>
        <dc:type
           rdf:resource="http://purl.org/dc/dcmitype/StillImage" />
        <dc:title></dc:title>
      </cc:Work>
    </rdf:RDF>
  </metadata>
  <g
     inkscape:label="Layer 1"
     inkscape:groupmode="layer"
     id="layer1"
     transform="translate(-336.68571,-433.50504)">
    <g
       style="font-size:100px;font-style:normal;font-variant:normal;font-weight:normal;font-stretch:normal;fill:#000000;fill-opacity:1;stroke:none;font-family:Droid Serif;-inkscape-font-specification:Droid Serif"
       id="text2816">
      <path
         d="m 411.38571,521.40504 c -8e-5,4.79998 -2.26675,7.19998 -6.8,7.2 l -61.1,0 c -4.53334,-2e-5 -6.80001,-2.40002 -6.8,-7.2 l 0,-80.7 c -10e-6,-4.79993 2.26666,-7.19993 6.8,-7.2 l 61.1,0 c 4.53325,7e-5 6.79992,2.40007 6.8,7.2 l 0,80.7 m -1.7,0 0,-80.7 c -8e-5,-3.6666 -1.70008,-5.49993 -5.1,-5.5 l -61.1,0 c -3.40001,7e-5 -5.10001,1.8334 -5.1,5.5 l 0,80.7 c -1e-5,3.73331 1.69999,5.59998 5.1,5.6 l 61.1,0 c 3.39992,-2e-5 5.09992,-1.86669 5.1,-5.6"
         id="path2827"
         sodipodi:nodetypes="cccccccccccccccccc" />
    </g>
    <path
       style="fill:#ffffff;fill-opacity:1;fill-rule:nonzero;stroke:none"
       d="M 4.4816543,92.843578 C 3.8580874,92.572339 3.0545159,91.90271 2.69594,91.355514 2.0756696,90.408964 2.0388047,88.320328 1.9374194,48.38051 1.8660983,20.284157 1.9526981,5.9799342 2.1992702,5.1290223 2.4018985,4.4297589 2.9850833,3.4654731 3.4952364,2.9861651 L 4.4227875,2.114696 37.011712,2.0199215 69.600634,1.925147 70.807912,2.7387324 c 2.2243,1.4989535 2.147511,-0.2149894 2.044161,45.6259636 -0.08666,38.436889 -0.140225,41.691914 -0.703071,42.7197 -1.307747,2.388014 0.323382,2.281797 -34.80185,2.266322 -26.18051,-0.01154 -31.9300821,-0.100254 -32.8654977,-0.50714 l 0,0 z"
       id="path2856"
       transform="translate(336.68571,433.50504)" />
  </g>
  <g
     transform="translate(-456.32857,-432.43361)"
     id="g2850"
     inkscape:groupmode="layer"
     inkscape:label="Layer 1">
    <g
       id="g2852"
       style="font-size:100px;font-style:normal;font-variant:normal;font-weight:normal;font-stretch:normal;fill:#10106c;fill-opacity:1;stroke:none;font-family:Droid Serif;-inkscape-font-specification:Droid Serif"
       transform="translate(-1.4785715,-0.65714076)">
      <path
         id="path2854"
         d="m 523.35714,496.19075 c -7e-5,3.86667 -1.3334,7.1 -4,9.7 -2.60007,2.53333 -5.7334,3.79999 -9.4,3.8 -3.80006,-10e-6 -7.00005,-1.3 -9.6,-3.9 -2.60005,-2.66667 -3.90005,-5.86666 -3.9,-9.6 -5e-5,-3.73332 1.29995,-6.89999 3.9,-9.5 2.66661,-2.59998 5.86661,-3.89998 9.6,-3.9 3.79994,2e-5 6.9666,1.33335 9.5,4 2.59993,2.60001 3.89993,5.73335 3.9,9.4 m -1,0 c -7e-5,-3.46666 -1.2334,-6.39999 -3.7,-8.8 -2.40007,-2.39998 -5.3334,-3.59998 -8.8,-3.6 -3.40006,2e-5 -6.33339,1.20002 -8.8,3.6 -2.40005,2.40001 -3.60005,5.33334 -3.6,8.8 -5e-5,3.53334 1.19995,6.5 3.6,8.9 2.46661,2.4 5.43328,3.6 8.9,3.6 3.4666,0 6.39993,-1.2 8.8,-3.6 2.39993,-2.46667 3.59993,-5.43333 3.6,-8.9 m -12.4,-10.9 c 3.13327,2e-5 5.73327,1.06668 7.8,3.2 2.13326,2.13335 3.19993,4.70001 3.2,7.7 -7e-5,3.13334 -1.06674,5.76667 -3.2,7.9 -2.1334,2.13333 -4.7334,3.2 -7.8,3.2 -3.13339,0 -5.76672,-1.06667 -7.9,-3.2 -2.06672,-2.2 -3.10005,-4.83333 -3.1,-7.9 -5e-5,-3.13332 1.06662,-5.73332 3.2,-7.8 2.13328,-2.06665 4.73328,-3.09998 7.8,-3.1 m -7.2,18.1 c 1.99995,1.93333 4.36661,2.9 7.1,2.9 2.79994,0 5.1666,-0.96667 7.1,-2.9 1.99993,-1.93333 2.99993,-4.33333 3,-7.2 -7e-5,-2.73332 -0.96673,-5.06665 -2.9,-7 -1.9334,-1.99998 -4.30006,-2.99998 -7.1,-3 -2.86672,2e-5 -5.26672,1.00002 -7.2,3 -1.93338,1.93335 -2.90005,4.26668 -2.9,7 -5e-5,2.86667 0.96662,5.26667 2.9,7.2 m 13.8,-9.9 c 0.8666,1e-5 1.5666,0.26668 2.1,0.8 0.53327,0.53334 0.79993,1.20001 0.8,2 -7e-5,0.80001 -0.26673,1.46667 -0.8,2 -0.5334,0.46667 -1.2334,0.70001 -2.1,0.7 l -1.8,0 c 0.8666,1.53334 1.29993,2.56667 1.3,3.1 -7e-5,0.73333 -0.26673,1.4 -0.8,2 -0.5334,0.53333 -1.2334,0.8 -2.1,0.8 -0.20006,0 -0.4334,0 -0.7,0 -0.20006,-0.0667 -0.40006,-0.16667 -0.6,-0.3 -0.13339,-0.2 -0.26673,-0.33333 -0.4,-0.4 -0.13339,-0.13333 -0.30006,-0.33333 -0.5,-0.6 -0.13339,-0.26667 -0.26673,-0.46667 -0.4,-0.6 -0.0667,-0.13333 -0.16673,-0.33333 -0.3,-0.6 -0.13339,-0.33333 -0.23339,-0.53333 -0.3,-0.6 -0.80006,1.46667 -1.43339,2.33333 -1.9,2.6 -0.40006,0.33333 -0.86672,0.5 -1.4,0.5 -0.80005,0 -1.50005,-0.26667 -2.1,-0.8 -0.53339,-0.53333 -0.80005,-1.16667 -0.8,-1.9 -5e-5,-0.53333 0.46661,-1.6 1.4,-3.2 l -1.9,0 c -0.80005,1e-5 -1.46672,-0.26666 -2,-0.8 -0.53338,-0.53333 -0.80005,-1.19999 -0.8,-2 -5e-5,-0.79999 0.23328,-1.43332 0.7,-1.9 0.53328,-0.53332 1.23328,-0.79999 2.1,-0.8 l 1.9,0 c -0.86672,-1.53332 -1.30005,-2.56665 -1.3,-3.1 -5e-5,-0.73332 0.26661,-1.36665 0.8,-1.9 0.53328,-0.59998 1.19995,-0.89998 2,-0.9 0.33328,2e-5 0.59994,0.0667 0.8,0.2 0.26661,0.0667 0.46661,0.16668 0.6,0.3 0.19994,0.0667 0.39994,0.26668 0.6,0.6 0.19994,0.26668 0.33328,0.46668 0.4,0.6 0.0666,0.0667 0.19994,0.30001 0.4,0.7 0.26661,0.40001 0.43327,0.63335 0.5,0.7 0.79994,-1.46665 1.39994,-2.33332 1.8,-2.6 0.39994,-0.26665 0.89994,-0.39998 1.5,-0.4 0.79994,2e-5 1.4666,0.26668 2,0.8 0.53327,0.53335 0.79993,1.16668 0.8,1.9 -7e-5,0.46668 -0.4334,1.50001 -1.3,3.1 l 1.8,0 m -3.4,10.4 c 0.53327,0 0.9666,-0.16667 1.3,-0.5 0.39994,-0.33333 0.59994,-0.76667 0.6,-1.3 -6e-5,-0.33333 -0.0667,-0.66666 -0.2,-1 l -1.8,-3.1 3.5,0 c 1.2666,1e-5 1.89993,-0.56666 1.9,-1.7 -7e-5,-1.19999 -0.6334,-1.79999 -1.9,-1.8 l -3.5,0 1.8,-3.1 c 0.13327,-0.39999 0.19994,-0.76665 0.2,-1.1 -6e-5,-0.46665 -0.16673,-0.86665 -0.5,-1.2 -0.3334,-0.33332 -0.76673,-0.49998 -1.3,-0.5 -0.66673,2e-5 -1.16673,0.33335 -1.5,1 l -1.8,3.1 -1.8,-3.1 c -0.40006,-0.66665 -0.90006,-0.99998 -1.5,-1 -0.53339,2e-5 -1.00005,0.20002 -1.4,0.6 -0.33339,0.33335 -0.50005,0.73335 -0.5,1.2 -5e-5,0.33335 0.1,0.66668 0.3,1 l 1.8,3.1 -3.6,0 c -1.20005,1e-5 -1.80005,0.60001 -1.8,1.8 -5e-5,1.13334 0.59995,1.70001 1.8,1.7 l 3.6,0 -1.8,3.1 c -0.20005,0.4 -0.30005,0.76667 -0.3,1.1 -5e-5,0.46667 0.16661,0.86667 0.5,1.2 0.39995,0.33333 0.83328,0.5 1.3,0.5 0.66661,0 1.19994,-0.33333 1.6,-1 l 1.8,-3 1.8,3 c 0.33327,0.66667 0.79994,1 1.4,1 m -5.3,-9.7 c 0.59994,-0.53332 1.26661,-0.79999 2,-0.8 0.79994,10e-6 1.49994,0.26668 2.1,0.8 0.59994,0.53334 0.89994,1.20001 0.9,2 -6e-5,0.86667 -0.30006,1.60001 -0.9,2.2 -0.53339,0.53334 -1.23339,0.80001 -2.1,0.8 -0.80006,1e-5 -1.46672,-0.29999 -2,-0.9 -0.53339,-0.59999 -0.80006,-1.29999 -0.8,-2.1 -6e-5,-0.79999 0.26661,-1.46666 0.8,-2 m 2.1,4 c 0.53327,1e-5 0.96661,-0.19999 1.3,-0.6 0.39994,-0.39999 0.59994,-0.86666 0.6,-1.4 -6e-5,-0.53332 -0.20006,-0.96666 -0.6,-1.3 -0.33339,-0.39999 -0.80006,-0.59999 -1.4,-0.6 -0.53339,10e-6 -1.00006,0.20001 -1.4,0.6 -0.33339,0.33334 -0.50006,0.76668 -0.5,1.3 -6e-5,0.60001 0.19994,1.10001 0.6,1.5 0.39994,0.33334 0.86661,0.50001 1.4,0.5 m 0.9,-2 c -6e-5,0.66667 -0.30006,1.00001 -0.9,1 -0.66673,1e-5 -1.00006,-0.33333 -1,-1 -6e-5,-0.59999 0.33327,-0.89999 1,-0.9 0.59994,10e-6 0.89994,0.30001 0.9,0.9 m 12.5,-31.2 c -7e-5,3.8667 -1.3334,7.10003 -4,9.7 -2.60007,2.53336 -5.7334,3.80003 -9.4,3.8 -3.80006,3e-5 -7.00005,-1.29997 -9.6,-3.9 -2.60005,-2.66663 -3.90005,-5.86663 -3.9,-9.6 -5e-5,-3.73329 1.29995,-6.89995 3.9,-9.5 2.66661,-2.59995 5.86661,-3.89995 9.6,-3.9 3.79994,5e-5 6.9666,1.33338 9.5,4 2.59993,2.60005 3.89993,5.73338 3.9,9.4 m -1,0 c -7e-5,-3.46662 -1.2334,-6.39995 -3.7,-8.8 -2.40007,-2.39995 -5.3334,-3.59995 -8.8,-3.6 -3.40006,5e-5 -6.33339,1.20005 -8.8,3.6 -2.40005,2.40005 -3.60005,5.33338 -3.6,8.8 -5e-5,3.53337 1.19995,6.50003 3.6,8.9 2.46661,2.40003 5.43328,3.60003 8.9,3.6 3.4666,3e-5 6.39993,-1.19997 8.8,-3.6 2.39993,-2.46663 3.59993,-5.4333 3.6,-8.9 m -12.4,-10.9 c 3.13327,5e-5 5.73327,1.06672 7.8,3.2 2.13326,2.13338 3.19993,4.70004 3.2,7.7 -7e-5,3.13337 -1.06674,5.7667 -3.2,7.9 -2.1334,2.13336 -4.7334,3.20003 -7.8,3.2 -3.13339,3e-5 -5.76672,-1.06664 -7.9,-3.2 -2.06672,-2.19997 -3.10005,-4.8333 -3.1,-7.9 -5e-5,-3.13329 1.06662,-5.73329 3.2,-7.8 2.13328,-2.06662 4.73328,-3.09995 7.8,-3.1 m -7.2,18.1 c 1.99995,1.93336 4.36661,2.90003 7.1,2.9 2.79994,3e-5 5.1666,-0.96664 7.1,-2.9 1.99993,-1.9333 2.99993,-4.3333 3,-7.2 -7e-5,-2.73329 -0.96673,-5.06662 -2.9,-7 -1.9334,-1.99995 -4.30006,-2.99995 -7.1,-3 -2.86672,5e-5 -5.26672,1.00005 -7.2,3 -1.93338,1.93338 -2.90005,4.26671 -2.9,7 -5e-5,2.8667 0.96662,5.2667 2.9,7.2 m 13.8,-9.9 c 0.8666,4e-5 1.5666,0.26671 2.1,0.8 0.53327,0.53337 0.79993,1.20004 0.8,2 -7e-5,0.80004 -0.26673,1.4667 -0.8,2 -0.5334,0.4667 -1.2334,0.70004 -2.1,0.7 l -1.8,0 c 0.8666,1.53337 1.29993,2.5667 1.3,3.1 -7e-5,0.73337 -0.26673,1.40003 -0.8,2 -0.5334,0.53336 -1.2334,0.80003 -2.1,0.8 -0.20006,3e-5 -0.4334,3e-5 -0.7,0 -0.20006,-0.0666 -0.40006,-0.16664 -0.6,-0.3 -0.13339,-0.19997 -0.26673,-0.3333 -0.4,-0.4 -0.13339,-0.1333 -0.30006,-0.3333 -0.5,-0.6 -0.13339,-0.26663 -0.26673,-0.46663 -0.4,-0.6 -0.0667,-0.1333 -0.16673,-0.3333 -0.3,-0.6 -0.13339,-0.3333 -0.23339,-0.5333 -0.3,-0.6 -0.80006,1.4667 -1.43339,2.33336 -1.9,2.6 -0.40006,0.33336 -0.86672,0.50003 -1.4,0.5 -0.80005,3e-5 -1.50005,-0.26664 -2.1,-0.8 -0.53339,-0.5333 -0.80005,-1.16663 -0.8,-1.9 -5e-5,-0.5333 0.46661,-1.59997 1.4,-3.2 l -1.9,0 c -0.80005,4e-5 -1.46672,-0.26663 -2,-0.8 -0.53338,-0.5333 -0.80005,-1.19996 -0.8,-2 -5e-5,-0.79996 0.23328,-1.43329 0.7,-1.9 0.53328,-0.53329 1.23328,-0.79996 2.1,-0.8 l 1.9,0 c -0.86672,-1.53329 -1.30005,-2.56662 -1.3,-3.1 -5e-5,-0.73329 0.26661,-1.36662 0.8,-1.9 0.53328,-0.59995 1.19995,-0.89995 2,-0.9 0.33328,5e-5 0.59994,0.0667 0.8,0.2 0.26661,0.0667 0.46661,0.16671 0.6,0.3 0.19994,0.0667 0.39994,0.26671 0.6,0.6 0.19994,0.26671 0.33328,0.46671 0.4,0.6 0.0666,0.0667 0.19994,0.30005 0.4,0.7 0.26661,0.40005 0.43327,0.63338 0.5,0.7 0.79994,-1.46662 1.39994,-2.33329 1.8,-2.6 0.39994,-0.26662 0.89994,-0.39995 1.5,-0.4 0.79994,5e-5 1.4666,0.26671 2,0.8 0.53327,0.53338 0.79993,1.16671 0.8,1.9 -7e-5,0.46671 -0.4334,1.50004 -1.3,3.1 l 1.8,0 m -3.4,10.4 c 0.53327,3e-5 0.9666,-0.16663 1.3,-0.5 0.39994,-0.3333 0.59994,-0.76663 0.6,-1.3 -6e-5,-0.3333 -0.0667,-0.66663 -0.2,-1 l -1.8,-3.1 3.5,0 c 1.2666,4e-5 1.89993,-0.56663 1.9,-1.7 -7e-5,-1.19996 -0.6334,-1.79996 -1.9,-1.8 l -3.5,0 1.8,-3.1 c 0.13327,-0.39996 0.19994,-0.76662 0.2,-1.1 -6e-5,-0.46662 -0.16673,-0.86662 -0.5,-1.2 -0.3334,-0.33329 -0.76673,-0.49995 -1.3,-0.5 -0.66673,5e-5 -1.16673,0.33338 -1.5,1 l -1.8,3.1 -1.8,-3.1 c -0.40006,-0.66662 -0.90006,-0.99995 -1.5,-1 -0.53339,5e-5 -1.00005,0.20005 -1.4,0.6 -0.33339,0.33338 -0.50005,0.73338 -0.5,1.2 -5e-5,0.33338 0.1,0.66671 0.3,1 l 1.8,3.1 -3.6,0 c -1.20005,4e-5 -1.80005,0.60004 -1.8,1.8 -5e-5,1.13337 0.59995,1.70004 1.8,1.7 l 3.6,0 -1.8,3.1 c -0.20005,0.40003 -0.30005,0.7667 -0.3,1.1 -5e-5,0.4667 0.16661,0.8667 0.5,1.2 0.39995,0.33337 0.83328,0.50003 1.3,0.5 0.66661,3e-5 1.19994,-0.3333 1.6,-1 l 1.8,-3 1.8,3 c 0.33327,0.6667 0.79994,1.00003 1.4,1 m -5.3,-9.7 c 0.59994,-0.53329 1.26661,-0.79996 2,-0.8 0.79994,4e-5 1.49994,0.26671 2.1,0.8 0.59994,0.53337 0.89994,1.20004 0.9,2 -6e-5,0.86671 -0.30006,1.60004 -0.9,2.2 -0.53339,0.53337 -1.23339,0.80004 -2.1,0.8 -0.80006,4e-5 -1.46672,-0.29996 -2,-0.9 -0.53339,-0.59996 -0.80006,-1.29996 -0.8,-2.1 -6e-5,-0.79996 0.26661,-1.46663 0.8,-2 m 2.1,4 c 0.53327,4e-5 0.96661,-0.19996 1.3,-0.6 0.39994,-0.39996 0.59994,-0.86663 0.6,-1.4 -6e-5,-0.53329 -0.20006,-0.96663 -0.6,-1.3 -0.33339,-0.39996 -0.80006,-0.59996 -1.4,-0.6 -0.53339,4e-5 -1.00006,0.20004 -1.4,0.6 -0.33339,0.33337 -0.50006,0.76671 -0.5,1.3 -6e-5,0.60004 0.19994,1.10004 0.6,1.5 0.39994,0.33337 0.86661,0.50004 1.4,0.5 m 0.9,-2 c -6e-5,0.66671 -0.30006,1.00004 -0.9,1 -0.66673,4e-5 -1.00006,-0.33329 -1,-1 -6e-5,-0.59996 0.33327,-0.89996 1,-0.9 0.59994,4e-5 0.89994,0.30004 0.9,0.9 m -17,31.2 c -4e-5,3.86667 -1.33337,7.1 -4,9.7 -2.60004,2.53333 -5.73337,3.79999 -9.4,3.8 -3.80003,-10e-6 -7.00002,-1.3 -9.6,-3.9 -2.60002,-2.66667 -3.90002,-5.86666 -3.9,-9.6 -2e-5,-3.73332 1.29998,-6.89999 3.9,-9.5 2.66664,-2.59998 5.86664,-3.89998 9.6,-3.9 3.79997,2e-5 6.96663,1.33335 9.5,4 2.59996,2.60001 3.89996,5.73335 3.9,9.4 m -1,0 c -4e-5,-3.46666 -1.23337,-6.39999 -3.7,-8.8 -2.40004,-2.39998 -5.33337,-3.59998 -8.8,-3.6 -3.40003,2e-5 -6.33336,1.20002 -8.8,3.6 -2.40002,2.40001 -3.60002,5.33334 -3.6,8.8 -2e-5,3.53334 1.19998,6.5 3.6,8.9 2.46664,2.4 5.43331,3.6 8.9,3.6 3.46663,0 6.39996,-1.2 8.8,-3.6 2.39996,-2.46667 3.59996,-5.43333 3.6,-8.9 m -12.4,-10.9 c 3.1333,2e-5 5.7333,1.06668 7.8,3.2 2.13329,2.13335 3.19996,4.70001 3.2,7.7 -4e-5,3.13334 -1.06671,5.76667 -3.2,7.9 -2.13337,2.13333 -4.73337,3.2 -7.8,3.2 -3.13336,0 -5.76669,-1.06667 -7.9,-3.2 -2.06669,-2.2 -3.10002,-4.83333 -3.1,-7.9 -2e-5,-3.13332 1.06665,-5.73332 3.2,-7.8 2.13331,-2.06665 4.73331,-3.09998 7.8,-3.1 m -7.2,18.1 c 1.99998,1.93333 4.36664,2.9 7.1,2.9 2.79997,0 5.16663,-0.96667 7.1,-2.9 1.99996,-1.93333 2.99996,-4.33333 3,-7.2 -4e-5,-2.73332 -0.96671,-5.06665 -2.9,-7 -1.93337,-1.99998 -4.30003,-2.99998 -7.1,-3 -2.86669,2e-5 -5.26669,1.00002 -7.2,3 -1.93335,1.93335 -2.90002,4.26668 -2.9,7 -2e-5,2.86667 0.96665,5.26667 2.9,7.2 m 13.8,-9.9 c 0.86663,1e-5 1.56663,0.26668 2.1,0.8 0.53329,0.53334 0.79996,1.20001 0.8,2 -4e-5,0.80001 -0.26671,1.46667 -0.8,2 -0.53337,0.46667 -1.23337,0.70001 -2.1,0.7 l -1.8,0 c 0.86663,1.53334 1.29996,2.56667 1.3,3.1 -4e-5,0.73333 -0.2667,1.4 -0.8,2 -0.53337,0.53333 -1.23337,0.8 -2.1,0.8 -0.20003,0 -0.43337,0 -0.7,0 -0.20003,-0.0667 -0.40003,-0.16667 -0.6,-0.3 -0.13336,-0.2 -0.2667,-0.33333 -0.4,-0.4 -0.13336,-0.13333 -0.30003,-0.33333 -0.5,-0.6 -0.13336,-0.26667 -0.2667,-0.46667 -0.4,-0.6 -0.0667,-0.13333 -0.1667,-0.33333 -0.3,-0.6 -0.13336,-0.33333 -0.23336,-0.53333 -0.3,-0.6 -0.80003,1.46667 -1.43336,2.33333 -1.9,2.6 -0.40003,0.33333 -0.86669,0.5 -1.4,0.5 -0.80003,0 -1.50002,-0.26667 -2.1,-0.8 -0.53336,-0.53333 -0.80002,-1.16667 -0.8,-1.9 -2e-5,-0.53333 0.46664,-1.6 1.4,-3.2 l -1.9,0 c -0.80002,1e-5 -1.46669,-0.26666 -2,-0.8 -0.53335,-0.53333 -0.80002,-1.19999 -0.8,-2 -2e-5,-0.79999 0.23331,-1.43332 0.7,-1.9 0.53331,-0.53332 1.23331,-0.79999 2.1,-0.8 l 1.9,0 c -0.86669,-1.53332 -1.30002,-2.56665 -1.3,-3.1 -2e-5,-0.73332 0.26664,-1.36665 0.8,-1.9 0.53331,-0.59998 1.19997,-0.89998 2,-0.9 0.33331,2e-5 0.59997,0.0667 0.8,0.2 0.26664,0.0667 0.46664,0.16668 0.6,0.3 0.19997,0.0667 0.39997,0.26668 0.6,0.6 0.19997,0.26668 0.3333,0.46668 0.4,0.6 0.0666,0.0667 0.19997,0.30001 0.4,0.7 0.26664,0.40001 0.4333,0.63335 0.5,0.7 0.79997,-1.46665 1.39997,-2.33332 1.8,-2.6 0.39997,-0.26665 0.89997,-0.39998 1.5,-0.4 0.79997,2e-5 1.46663,0.26668 2,0.8 0.5333,0.53335 0.79996,1.16668 0.8,1.9 -4e-5,0.46668 -0.43337,1.50001 -1.3,3.1 l 1.8,0 m -3.4,10.4 c 0.5333,0 0.96663,-0.16667 1.3,-0.5 0.39997,-0.33333 0.59997,-0.76667 0.6,-1.3 -3e-5,-0.33333 -0.0667,-0.66666 -0.2,-1 l -1.8,-3.1 3.5,0 c 1.26663,1e-5 1.89996,-0.56666 1.9,-1.7 -4e-5,-1.19999 -0.63337,-1.79999 -1.9,-1.8 l -3.5,0 1.8,-3.1 c 0.1333,-0.39999 0.19997,-0.76665 0.2,-1.1 -3e-5,-0.46665 -0.1667,-0.86665 -0.5,-1.2 -0.33337,-0.33332 -0.7667,-0.49998 -1.3,-0.5 -0.6667,2e-5 -1.1667,0.33335 -1.5,1 l -1.8,3.1 -1.8,-3.1 c -0.40003,-0.66665 -0.90003,-0.99998 -1.5,-1 -0.53336,2e-5 -1.00003,0.20002 -1.4,0.6 -0.33336,0.33335 -0.50002,0.73335 -0.5,1.2 -2e-5,0.33335 0.1,0.66668 0.3,1 l 1.8,3.1 -3.6,0 c -1.20002,1e-5 -1.80002,0.60001 -1.8,1.8 -2e-5,1.13334 0.59998,1.70001 1.8,1.7 l 3.6,0 -1.8,3.1 c -0.20002,0.4 -0.30002,0.76667 -0.3,1.1 -2e-5,0.46667 0.16664,0.86667 0.5,1.2 0.39997,0.33333 0.83331,0.5 1.3,0.5 0.66664,0 1.19997,-0.33333 1.6,-1 l 1.8,-3 1.8,3 c 0.3333,0.66667 0.79997,1 1.4,1 m -5.3,-9.7 c 0.59997,-0.53332 1.26664,-0.79999 2,-0.8 0.79997,10e-6 1.49997,0.26668 2.1,0.8 0.59997,0.53334 0.89997,1.20001 0.9,2 -3e-5,0.86667 -0.30003,1.60001 -0.9,2.2 -0.53336,0.53334 -1.23336,0.80001 -2.1,0.8 -0.80003,1e-5 -1.46669,-0.29999 -2,-0.9 -0.53336,-0.59999 -0.80003,-1.29999 -0.8,-2.1 -3e-5,-0.79999 0.26664,-1.46666 0.8,-2 m 2.1,4 c 0.5333,1e-5 0.96664,-0.19999 1.3,-0.6 0.39997,-0.39999 0.59997,-0.86666 0.6,-1.4 -3e-5,-0.53332 -0.20003,-0.96666 -0.6,-1.3 -0.33336,-0.39999 -0.80003,-0.59999 -1.4,-0.6 -0.53336,10e-6 -1.00003,0.20001 -1.4,0.6 -0.33336,0.33334 -0.50003,0.76668 -0.5,1.3 -3e-5,0.60001 0.19997,1.10001 0.6,1.5 0.39997,0.33334 0.86664,0.50001 1.4,0.5 m 0.9,-2 c -3e-5,0.66667 -0.30003,1.00001 -0.9,1 -0.6667,1e-5 -1.00003,-0.33333 -1,-1 -3e-5,-0.59999 0.3333,-0.89999 1,-0.9 0.59997,10e-6 0.89997,0.30001 0.9,0.9 m 12.5,-31.2 c -4e-5,3.8667 -1.33337,7.10003 -4,9.7 -2.60004,2.53336 -5.73337,3.80003 -9.4,3.8 -3.80003,3e-5 -7.00002,-1.29997 -9.6,-3.9 -2.60002,-2.66663 -3.90002,-5.86663 -3.9,-9.6 -2e-5,-3.73329 1.29998,-6.89995 3.9,-9.5 2.66664,-2.59995 5.86664,-3.89995 9.6,-3.9 3.79997,5e-5 6.96663,1.33338 9.5,4 2.59996,2.60005 3.89996,5.73338 3.9,9.4 m -1,0 c -4e-5,-3.46662 -1.23337,-6.39995 -3.7,-8.8 -2.40004,-2.39995 -5.33337,-3.59995 -8.8,-3.6 -3.40003,5e-5 -6.33336,1.20005 -8.8,3.6 -2.40002,2.40005 -3.60002,5.33338 -3.6,8.8 -2e-5,3.53337 1.19998,6.50003 3.6,8.9 2.46664,2.40003 5.43331,3.60003 8.9,3.6 3.46663,3e-5 6.39996,-1.19997 8.8,-3.6 2.39996,-2.46663 3.59996,-5.4333 3.6,-8.9 m -12.4,-10.9 c 3.1333,5e-5 5.7333,1.06672 7.8,3.2 2.13329,2.13338 3.19996,4.70004 3.2,7.7 -4e-5,3.13337 -1.06671,5.7667 -3.2,7.9 -2.13337,2.13336 -4.73337,3.20003 -7.8,3.2 -3.13336,3e-5 -5.76669,-1.06664 -7.9,-3.2 -2.06669,-2.19997 -3.10002,-4.8333 -3.1,-7.9 -2e-5,-3.13329 1.06665,-5.73329 3.2,-7.8 2.13331,-2.06662 4.73331,-3.09995 7.8,-3.1 m -7.2,18.1 c 1.99998,1.93336 4.36664,2.90003 7.1,2.9 2.79997,3e-5 5.16663,-0.96664 7.1,-2.9 1.99996,-1.9333 2.99996,-4.3333 3,-7.2 -4e-5,-2.73329 -0.96671,-5.06662 -2.9,-7 -1.93337,-1.99995 -4.30003,-2.99995 -7.1,-3 -2.86669,5e-5 -5.26669,1.00005 -7.2,3 -1.93335,1.93338 -2.90002,4.26671 -2.9,7 -2e-5,2.8667 0.96665,5.2667 2.9,7.2 m 13.8,-9.9 c 0.86663,4e-5 1.56663,0.26671 2.1,0.8 0.53329,0.53337 0.79996,1.20004 0.8,2 -4e-5,0.80004 -0.26671,1.4667 -0.8,2 -0.53337,0.4667 -1.23337,0.70004 -2.1,0.7 l -1.8,0 c 0.86663,1.53337 1.29996,2.5667 1.3,3.1 -4e-5,0.73337 -0.2667,1.40003 -0.8,2 -0.53337,0.53336 -1.23337,0.80003 -2.1,0.8 -0.20003,3e-5 -0.43337,3e-5 -0.7,0 -0.20003,-0.0666 -0.40003,-0.16664 -0.6,-0.3 -0.13336,-0.19997 -0.2667,-0.3333 -0.4,-0.4 -0.13336,-0.1333 -0.30003,-0.3333 -0.5,-0.6 -0.13336,-0.26663 -0.2667,-0.46663 -0.4,-0.6 -0.0667,-0.1333 -0.1667,-0.3333 -0.3,-0.6 -0.13336,-0.3333 -0.23336,-0.5333 -0.3,-0.6 -0.80003,1.4667 -1.43336,2.33336 -1.9,2.6 -0.40003,0.33336 -0.86669,0.50003 -1.4,0.5 -0.80003,3e-5 -1.50002,-0.26664 -2.1,-0.8 -0.53336,-0.5333 -0.80002,-1.16663 -0.8,-1.9 -2e-5,-0.5333 0.46664,-1.59997 1.4,-3.2 l -1.9,0 c -0.80002,4e-5 -1.46669,-0.26663 -2,-0.8 -0.53335,-0.5333 -0.80002,-1.19996 -0.8,-2 -2e-5,-0.79996 0.23331,-1.43329 0.7,-1.9 0.53331,-0.53329 1.23331,-0.79996 2.1,-0.8 l 1.9,0 c -0.86669,-1.53329 -1.30002,-2.56662 -1.3,-3.1 -2e-5,-0.73329 0.26664,-1.36662 0.8,-1.9 0.53331,-0.59995 1.19997,-0.89995 2,-0.9 0.33331,5e-5 0.59997,0.0667 0.8,0.2 0.26664,0.0667 0.46664,0.16671 0.6,0.3 0.19997,0.0667 0.39997,0.26671 0.6,0.6 0.19997,0.26671 0.3333,0.46671 0.4,0.6 0.0666,0.0667 0.19997,0.30005 0.4,0.7 0.26664,0.40005 0.4333,0.63338 0.5,0.7 0.79997,-1.46662 1.39997,-2.33329 1.8,-2.6 0.39997,-0.26662 0.89997,-0.39995 1.5,-0.4 0.79997,5e-5 1.46663,0.26671 2,0.8 0.5333,0.53338 0.79996,1.16671 0.8,1.9 -4e-5,0.46671 -0.43337,1.50004 -1.3,3.1 l 1.8,0 m -3.4,10.4 c 0.5333,3e-5 0.96663,-0.16663 1.3,-0.5 0.39997,-0.3333 0.59997,-0.76663 0.6,-1.3 -3e-5,-0.3333 -0.0667,-0.66663 -0.2,-1 l -1.8,-3.1 3.5,0 c 1.26663,4e-5 1.89996,-0.56663 1.9,-1.7 -4e-5,-1.19996 -0.63337,-1.79996 -1.9,-1.8 l -3.5,0 1.8,-3.1 c 0.1333,-0.39996 0.19997,-0.76662 0.2,-1.1 -3e-5,-0.46662 -0.1667,-0.86662 -0.5,-1.2 -0.33337,-0.33329 -0.7667,-0.49995 -1.3,-0.5 -0.6667,5e-5 -1.1667,0.33338 -1.5,1 l -1.8,3.1 -1.8,-3.1 c -0.40003,-0.66662 -0.90003,-0.99995 -1.5,-1 -0.53336,5e-5 -1.00003,0.20005 -1.4,0.6 -0.33336,0.33338 -0.50002,0.73338 -0.5,1.2 -2e-5,0.33338 0.1,0.66671 0.3,1 l 1.8,3.1 -3.6,0 c -1.20002,4e-5 -1.80002,0.60004 -1.8,1.8 -2e-5,1.13337 0.59998,1.70004 1.8,1.7 l 3.6,0 -1.8,3.1 c -0.20002,0.40003 -0.30002,0.7667 -0.3,1.1 -2e-5,0.4667 0.16664,0.8667 0.5,1.2 0.39997,0.33337 0.83331,0.50003 1.3,0.5 0.66664,3e-5 1.19997,-0.3333 1.6,-1 l 1.8,-3 1.8,3 c 0.3333,0.6667 0.79997,1.00003 1.4,1 m -5.3,-9.7 c 0.59997,-0.53329 1.26664,-0.79996 2,-0.8 0.79997,4e-5 1.49997,0.26671 2.1,0.8 0.59997,0.53337 0.89997,1.20004 0.9,2 -3e-5,0.86671 -0.30003,1.60004 -0.9,2.2 -0.53336,0.53337 -1.23336,0.80004 -2.1,0.8 -0.80003,4e-5 -1.46669,-0.29996 -2,-0.9 -0.53336,-0.59996 -0.80003,-1.29996 -0.8,-2.1 -3e-5,-0.79996 0.26664,-1.46663 0.8,-2 m 2.1,4 c 0.5333,4e-5 0.96664,-0.19996 1.3,-0.6 0.39997,-0.39996 0.59997,-0.86663 0.6,-1.4 -3e-5,-0.53329 -0.20003,-0.96663 -0.6,-1.3 -0.33336,-0.39996 -0.80003,-0.59996 -1.4,-0.6 -0.53336,4e-5 -1.00003,0.20004 -1.4,0.6 -0.33336,0.33337 -0.50003,0.76671 -0.5,1.3 -3e-5,0.60004 0.19997,1.10004 0.6,1.5 0.39997,0.33337 0.86664,0.50004 1.4,0.5 m 0.9,-2 c -3e-5,0.66671 -0.30003,1.00004 -0.9,1 -0.6667,4e-5 -1.00003,-0.33329 -1,-1 -3e-5,-0.59996 0.3333,-0.89996 1,-0.9 0.59997,4e-5 0.89997,0.30004 0.9,0.9"
         sodipodi:nodetypes="csscscsccccscscsccccssscssccscscscsccsscccscsccscssccscsccsssccscscccsccssssccccscccscccssscccssscccscccscscccccssssssscccscssscccsssccsscscsccccscscsccccssscssccscscscsccsscccscsccscssccscsccsssccscscccsccssssccccscccscccssscccssscccscccscscccccssssssscccscssscccsssccsscscsccccscscsccccssscssccscscscsccsscccscsccscssccscsccsssccscscccsccssssccccscccscccssscccssscccscccscscccccssssssscccscssscccsssccsscscsccccscscsccccssscssccscscscsccsscccscsccscssccscsccsssccscscccsccssssccccscccscccssscccssscccscccscscccccssssssscccscssscccsssc"
         style="fill:#10106c;fill-opacity:1" />
    </g>
  </g>
</svg>
