<?xml version="1.0" encoding="UTF-8" standalone="no"?>
<!-- Created with Inkscape (http://www.inkscape.org/) -->

<svg
   xmlns:dc="http://purl.org/dc/elements/1.1/"
   xmlns:cc="http://creativecommons.org/ns#"
   xmlns:rdf="http://www.w3.org/1999/02/22-rdf-syntax-ns#"
   xmlns:svg="http://www.w3.org/2000/svg"
   xmlns="http://www.w3.org/2000/svg"
   xmlns:sodipodi="http://sodipodi.sourceforge.net/DTD/sodipodi-0.dtd"
   xmlns:inkscape="http://www.inkscape.org/namespaces/inkscape"
   width="74.699997"
   height="95.099998"
   id="svg3739"
   version="1.1"
   inkscape:version="0.47 r22583"
   sodipodi:docname="MJ2wan.svg">
  <defs
     id="defs3741" />
  <sodipodi:namedview
     id="base"
     pagecolor="#ffffff"
     bordercolor="#666666"
     borderopacity="1.0"
     inkscape:pageopacity="0.0"
     inkscape:pageshadow="2"
     inkscape:zoom="3.844464"
     inkscape:cx="5.9761434"
     inkscape:cy="36.068226"
     inkscape:document-units="px"
     inkscape:current-layer="layer1"
     showgrid="false"
     inkscape:window-width="1440"
     inkscape:window-height="851"
     inkscape:window-x="0"
     inkscape:window-y="25"
     inkscape:window-maximized="1" />
  <metadata
     id="metadata3744">
    <rdf:RDF>
      <cc:Work
         rdf:about="">
        <dc:format>image/svg+xml</dc:format>
        <dc:type
           rdf:resource="http://purl.org/dc/dcmitype/StillImage" />
        <dc:title />
      </cc:Work>
    </rdf:RDF>
  </metadata>
  <g
     inkscape:label="Layer 1"
     inkscape:groupmode="layer"
     id="layer1"
     transform="translate(-431.2311,-445.40575)">
    <path
       style="fill:#ffffff;fill-opacity:1;fill-rule:nonzero;stroke:none"
       d="m 436.02694,538.46161 c -1.03914,-0.30104 -2.32354,-1.75251 -2.67697,-3.02519 -0.40057,-1.44247 -0.38193,-83.95329 0.0192,-85.15572 0.40985,-1.22842 1.63151,-2.44632 2.80719,-2.79857 0.71802,-0.21512 9.66293,-0.29502 32.56365,-0.29088 30.08079,0.005 31.6229,0.0283 32.61416,0.4835 1.27511,0.58553 1.89207,1.25374 2.35435,2.54992 0.52656,1.47642 0.52656,84.00555 0,85.48198 -0.46228,1.29617 -1.07924,1.96438 -2.35435,2.54991 -0.99227,0.45566 -2.51019,0.47696 -32.7744,0.46004 -18.28515,-0.0102 -32.08101,-0.11829 -32.55288,-0.25499 l 0,0 z"
       id="path4957" />
    <g
       id="g4786"
       style="font-size:100px;font-style:normal;font-variant:normal;font-weight:normal;font-stretch:normal;fill:#20208c;fill-opacity:1;stroke:none;font-family:Droid Serif;-inkscape-font-specification:Droid Serif"
       transform="translate(302.41556,461.68129)">
      <path
         id="path4788"
         d="m 176.83577,-0.15531388 c -5e-5,0.33339 -0.16672,0.56672 -0.5,0.7 -0.26672,0.0667 -1.13338,0.23339 -2.6,0.49999998 -1.86671,0.33339 -3.53338,0.63339 -5,0.9 -4.00004,0.60006 -6.8667,0.90006 -8.6,0.9 -1.6667,6e-5 -3.40003,-0.69994 -5.2,-2.09999998 l 18.2,-2.90000002 c 0.0666,6e-5 0.13329,6e-5 0.2,0 1.53328,6e-5 2.69995,0.66673 3.5,2.00000002 m 4.1,15.79999988 c 0.99994,4e-5 2.29994,0.33338 3.9,1 1.59994,0.60004 2.39994,1.36671 2.4,2.3 -6e-5,0.93337 -0.40006,1.40004 -1.2,1.4 -9.60005,-0.66663 -14.90005,-0.99996 -15.9,-1 -2.40004,4e-5 -5.16671,0.16671 -8.3,0.5 -3.13337,0.33337 -5.80003,0.6667 -8,0.999998 -2.20003,0.333372 -3.36669,0.500039 -3.5,0.5 -2.00002,3.9e-5 -3.40002,-0.799958 -4.2,-2.399998 0.86664,-0.33329 3.83331,-0.49996 8.9,-0.5 l 25.9,-2.8"
         sodipodi:nodetypes="ccscsccscccscssssccc"
         style="fill:#20208c;fill-opacity:1" />
    </g>
    <g
       transform="translate(294.0919,353.47375)"
       style="font-size:100px;font-style:normal;font-variant:normal;font-weight:normal;font-stretch:normal;fill:#ba0000;fill-opacity:1;stroke:none;font-family:Droid Serif;-inkscape-font-specification:Droid Serif"
       id="g4790">
      <path
         d="m 187.6392,140.91177 c 0.46661,2e-5 1.09995,0.26669 1.9,0.8 0.86661,0.46669 1.36661,0.80002 1.5,1 l 0,0.8 c -0.33339,0.33336 -0.80006,0.50002 -1.4,0.5 -0.33339,2e-5 -1.16672,-0.0333 -2.5,-0.1 -1.33338,-0.13331 -2.16672,-0.19998 -2.5,-0.2 -2.33338,2e-5 -3.90005,0.30002 -4.7,0.9 l -3.4,3.5 c 0.13329,-0.26665 0.49995,-1.36665 1.1,-3.3 -0.20005,-0.19998 -0.83338,-0.29998 -1.9,-0.3 -0.60004,2e-5 -2.16671,0.10002 -4.7,0.3 -4e-5,0.93335 -0.26671,2.30002 -0.8,4.1 l -0.3,-0.9 c -0.26671,-0.66665 -0.56671,-1.26665 -0.9,-1.8 -0.2667,-0.53331 -0.53337,-0.79998 -0.8,-0.8 -0.60004,2e-5 -1.90004,0.20002 -3.9,0.6 -1.93336,0.40002 -3.20003,0.60002 -3.8,0.6 -1.13336,2e-5 -2.23336,-0.56665 -3.3,-1.7 l 11,-1.2 -2.2,-4.3 2.5,0 c 0.0666,3e-5 0.59996,0.23336 1.6,0.7 -4e-5,0.80002 0.23329,2.00002 0.7,3.6 0.53329,-0.0666 2.93329,-0.43331 7.2,-1.1 0.66662,-2.19997 1.06662,-4.19997 1.2,-6 2.46662,1.40003 3.69995,2.26669 3.7,2.6 l -1.6,2.5 c 0.19995,0.20002 0.56662,0.30002 1.1,0.3 0.33328,2e-5 1.19995,-0.16664 2.6,-0.5 1.39995,-0.39998 2.26661,-0.59998 2.6,-0.6 m -24.7,9.4 c 3.9333,-0.19998 7.19996,-0.53332 9.8,-1 2.59996,-0.46665 4.46662,-0.86665 5.6,-1.2 1.13328,-0.33332 1.99995,-0.49998 2.6,-0.5 0.99995,2e-5 2.33328,0.83335 4,2.5 -0.86672,1.60001 -1.56672,2.96668 -2.1,4.1 -0.53338,1.06668 -0.90005,1.76668 -1.1,2.1 -0.13338,0.33334 -0.36672,0.76668 -0.7,1.3 -0.33338,0.53334 -0.83338,1.33334 -1.5,2.4 -0.73338,-0.66666 -1.43338,-0.99999 -2.1,-1 -1.00005,10e-6 -2.16671,0.26667 -3.5,0.8 l 0,2.2 c 0.13329,0.0667 0.49996,0.1 1.1,0.1 0.0666,0 2.13329,-0.2 6.2,-0.6 4.06662,-0.46666 6.16661,-0.7 6.3,-0.7 0.66661,0 2.06661,0.7 4.2,2.1 -0.46672,0.93334 -0.83339,2.43333 -1.1,4.5 -0.26672,2.06666 -0.70006,4.03333 -1.3,5.9 -0.53339,1.93332 -1.53339,3.53332 -3,4.8 -0.80005,-1.00001 -2.40005,-2.80001 -4.8,-5.4 1.99995,0.33333 3.13328,0.49999 3.4,0.5 1.13328,-1e-5 1.83328,-0.60001 2.1,-1.8 0.26661,-1.13334 0.39995,-3.5 0.4,-7.1 -0.53339,-0.73333 -1.43338,-1.1 -2.7,-1.1 -4.40005,0 -8.10005,0.43334 -11.1,1.3 l 0,2.7 c 0.39996,0.4 0.76662,0.6 1.1,0.6 0.93329,0 1.99995,-0.3 3.2,-0.9 -0.33338,-0.26667 -0.50005,-0.8 -0.5,-1.6 0.79995,0.0667 1.76662,0.53333 2.9,1.4 1.13328,0.8 1.69995,1.6 1.7,2.4 -5e-5,1.06666 -0.40005,1.59999 -1.2,1.6 -0.33338,-1e-5 -0.90005,-0.43334 -1.7,-1.3 -0.73338,-0.8 -1.16671,-1.23334 -1.3,-1.3 -6.80004,2 -10.2667,2.99999 -10.4,3 -0.40004,-1e-5 -0.83337,-0.20001 -1.3,-0.6 -0.40003,-0.4 -0.6667,-0.83334 -0.8,-1.3 1.46663,-0.2 3.59996,-0.6 6.4,-1.2 l 0,-2.4 c -0.0667,-0.6 -0.50004,-0.9 -1.3,-0.9 -3.40004,0 -6.03337,0.26667 -7.9,0.8 -3e-5,1.86666 -3e-5,3.33333 0,4.4 0.0666,1.13333 0.1,1.83333 0.1,2.1 0.0666,0.26666 0.1,0.49999 0.1,0.7 0.0666,0.26666 0.1,0.56666 0.1,0.9 -3e-5,0.13333 -0.10003,0.53332 -0.3,1.2 -0.13336,0.66666 -0.20003,1.09999 -0.2,1.3 -3e-5,0.26666 0.0666,0.46666 0.2,0.6 l -1.1,0 c -0.40003,-1e-5 -0.63336,-0.23334 -0.7,-0.7 -0.40003,-5.53334 -0.9667,-9.63333 -1.7,-12.3 0.59997,0.0667 1.5333,0.23334 2.8,0.5 l 10,-1.5 0.1,-0.2 0,-2.2 c -0.20004,-0.19999 -0.60004,-0.29999 -1.2,-0.3 -1.6667,10e-6 -2.73337,0.26667 -3.2,0.8 -0.6667,-0.59999 -1.4667,-2.29999 -2.4,-5.1 -0.93337,-2.86665 -1.6667,-4.66665 -2.2,-5.4 m 14.2,7.3 c 0.86662,1e-5 1.59995,-0.63332 2.2,-1.9 0.66662,-1.26666 0.99995,-2.53332 1,-3.8 -5e-5,-0.46665 -0.13338,-1.06665 -0.4,-1.8 l -5.9,0 0,2.5 c 0.39996,0.20001 0.73329,0.30001 1,0.3 0.19996,1e-5 0.39996,-0.0333 0.6,-0.1 0.26662,-0.0667 0.46662,-0.1 0.6,-0.1 0.79995,1e-5 1.36662,0.40001 1.7,1.2 -0.80005,0.60001 -2.10004,1.10001 -3.9,1.5 l 0,2.2 3.1,0 m -5.3,-6.8 c -0.26671,1e-5 -0.90004,0.10001 -1.9,0.3 -1.00004,0.20001 -1.63337,0.30001 -1.9,0.3 -0.20004,1e-5 -0.63337,-0.16665 -1.3,-0.5 l 1.2,7.8 c 1.66663,-0.19999 2.99996,-0.46666 4,-0.8 l 0,-2.3 c -0.46671,-0.0667 -0.93337,-0.1 -1.4,-0.1 -0.40004,10e-6 -0.76671,0.0333 -1.1,0.1 -0.20004,-0.19999 -0.4667,-0.49999 -0.8,-0.9 0.0666,-0.0667 1.16663,-0.43332 3.3,-1.1 -0.0667,-1.73332 -0.10004,-2.66665 -0.1,-2.8"
         id="path4792"
         sodipodi:nodetypes="ccccscscccsccccscsccccccccccscccssscccscsccscscscccsccsccscccssscsccccsccccscsccccccccscccccscccssscccccssccccscccc"
         style="fill:#ba0000;fill-opacity:1" />
    </g>
    <g
       transform="translate(378.36893,470.00495)"
       style="font-size:100px;font-style:normal;font-variant:normal;font-weight:normal;font-stretch:normal;fill:#000000;fill-opacity:1;stroke:none;font-family:Droid Serif;-inkscape-font-specification:Droid Serif"
       id="text4664-4">
      <path
         d="m 127.56217,63.300799 c -8e-5,4.799983 -2.26674,7.199981 -6.8,7.2 l -61.1,0 c -4.533338,-1.9e-5 -6.800003,-2.400017 -6.8,-7.2 l 0,-80.7 c -3e-6,-4.799927 2.266662,-7.199924 6.8,-7.2 l 61.1,0 c 4.53326,7.6e-5 6.79992,2.400073 6.8,7.2 l 0,80.7 m -1.7,0 0,-80.7 c -8e-5,-3.666594 -1.70007,-5.499926 -5.1,-5.5 l -61.1,0 c -3.400006,7.4e-5 -5.100004,1.833406 -5.1,5.5 l 0,80.7 c -4e-6,3.733317 1.699994,5.599982 5.1,5.6 l 61.1,0 c 3.39993,-1.8e-5 5.09992,-1.866683 5.1,-5.6"
         id="path4711-8"
         sodipodi:nodetypes="cccccccccccccccccc" />
    </g>
  </g>
</svg>
