<?xml version="1.0" encoding="UTF-8" standalone="no"?>
<!-- Created with Inkscape (http://www.inkscape.org/) -->

<svg
   xmlns:dc="http://purl.org/dc/elements/1.1/"
   xmlns:cc="http://creativecommons.org/ns#"
   xmlns:rdf="http://www.w3.org/1999/02/22-rdf-syntax-ns#"
   xmlns:svg="http://www.w3.org/2000/svg"
   xmlns="http://www.w3.org/2000/svg"
   xmlns:sodipodi="http://sodipodi.sourceforge.net/DTD/sodipodi-0.dtd"
   xmlns:inkscape="http://www.inkscape.org/namespaces/inkscape"
   width="74.699997"
   height="95.099998"
   id="svg2"
   version="1.1"
   inkscape:version="0.47 r22583"
   sodipodi:docname="MJ3wan.svg">
  <defs
     id="defs4" />
  <sodipodi:namedview
     id="base"
     pagecolor="#ffffff"
     bordercolor="#666666"
     borderopacity="1.0"
     inkscape:pageopacity="0.0"
     inkscape:pageshadow="2"
     inkscape:zoom="5.6"
     inkscape:cx="46.214314"
     inkscape:cy="42.710902"
     inkscape:document-units="px"
     inkscape:current-layer="layer1"
     showgrid="false"
     inkscape:window-width="1440"
     inkscape:window-height="851"
     inkscape:window-x="0"
     inkscape:window-y="25"
     inkscape:window-maximized="1" />
  <metadata
     id="metadata7">
    <rdf:RDF>
      <cc:Work
         rdf:about="">
        <dc:format>image/svg+xml</dc:format>
        <dc:type
           rdf:resource="http://purl.org/dc/dcmitype/StillImage" />
      </cc:Work>
    </rdf:RDF>
  </metadata>
  <g
     inkscape:label="Layer 1"
     inkscape:groupmode="layer"
     id="layer1"
     transform="translate(-189.90001,-420.64789)">
    <g
       id="g3231"
       style="font-size:100px;font-style:normal;font-variant:normal;font-weight:normal;font-stretch:normal;fill:#000000;fill-opacity:1;stroke:none;font-family:Droid Serif;-inkscape-font-specification:Droid Serif"
       transform="translate(-145,2.4999885)">
      <path
         id="path3233"
         d="m 409.60001,506.0479 c -8e-5,4.79998 -2.26674,7.19998 -6.8,7.2 l -61.1,0 c -4.53334,-2e-5 -6.80001,-2.40002 -6.8,-7.2 l 0,-80.7 c -1e-5,-4.79993 2.26666,-7.19993 6.8,-7.2 l 61.1,0 c 4.53326,7e-5 6.79992,2.40007 6.8,7.2 l 0,80.7 m -1.7,0 0,-80.7 c -8e-5,-3.6666 -1.70008,-5.49993 -5.1,-5.5 l -61.1,0 c -3.40001,7e-5 -5.10001,1.8334 -5.1,5.5 l 0,80.7 c -10e-6,3.73331 1.69999,5.59998 5.1,5.6 l 61.1,0 c 3.39992,-2e-5 5.09992,-1.86669 5.1,-5.6"
         sodipodi:nodetypes="cccccccccccccccccc" />
    </g>
    <path
       style="fill:#ffffff;fill-opacity:1;fill-rule:nonzero;stroke:none"
       d="m 195.79289,513.98462 c -1.8832,-0.3313 -2.90192,-1.06837 -3.59472,-2.60092 l -0.42313,-0.93601 0,-42.23214 0,-42.23214 0.4105,-0.89063 c 0.50159,-1.08824 0.97715,-1.61529 1.91092,-2.11782 l 0.71429,-0.38441 32.41072,0 32.41071,0 0.73119,0.39127 c 0.40216,0.21519 0.98261,0.6776 1.28989,1.02758 1.18748,1.35247 1.11166,-1.83335 1.06076,44.56944 l -0.0461,42.04743 -0.49296,1.00381 c -0.48999,0.99776 -1.20816,1.65264 -2.36418,2.15585 -0.43348,0.18869 -6.55018,0.23739 -32.05357,0.25521 -17.33482,0.0121 -31.71875,-0.0133 -31.96429,-0.0565 z"
       id="path3247" />
    <g
       transform="translate(-124.64286,6.4285643)"
       style="font-size:100px;font-style:normal;font-variant:normal;font-weight:normal;font-stretch:normal;fill:#20208c;fill-opacity:1;stroke:none;font-family:Droid Serif;-inkscape-font-specification:Droid Serif"
       id="g3235">
      <path
         style="fill:#20208c;fill-opacity:1"
         d="m 363.24286,428.07647 c -1.33339,1.00006 -4.10005,1.83339 -8.3,2.5 -4.13337,0.60005 -6.90004,0.90005 -8.3,0.9 -2.00004,5e-5 -3.70003,-0.46661 -5.1,-1.4 l 18.7,-3.9 c 0.66662,0.13339 1.66661,0.36673 3,0.7 l 0,1.2 m -3.3,13 c -2.73338,0.13338 -5.10005,0.33338 -7.1,0.6 -1.93337,0.20004 -3.40004,0.40004 -4.4,0.6 -0.93337,0.20004 -1.50004,0.30004 -1.7,0.3 -0.80004,4e-5 -2.20004,-0.49996 -4.2,-1.5 l 14.4,-2.8 c 2.19995,0.13338 3.73328,0.73338 4.6,1.8 -0.66672,0.66671 -1.20005,1.00004 -1.6,1 m 6.9,8.5 c 1.86661,4e-5 3.33327,0.40004 4.4,1.2 1.13327,0.73337 1.69994,1.50003 1.7,2.3 -6e-5,0.73337 -0.60006,1.13337 -1.8,1.2 l -3,-0.5 c -2.00006,-0.39997 -4.63339,-0.59997 -7.9,-0.6 -2.86671,3e-5 -5.80005,0.10003 -8.8,0.3 -2.93337,0.20003 -5.13337,0.40003 -6.6,0.6 -1.40003,0.20003 -3.3667,0.50003 -5.9,0.9 -2.53336,0.40003 -3.83336,0.60003 -3.9,0.6 -1.60002,3e-5 -3.00002,-0.69997 -4.2,-2.1 l 36,-3.9"
         id="path3237"
         sodipodi:nodetypes="ccscccccccsccccccsccsccsscc" />
    </g>
    <path
       id="path3239"
       d="m 240.4,470.32648 c 0.46661,2e-5 1.09994,0.26669 1.9,0.8 0.86661,0.46669 1.36661,0.80002 1.5,1 l 0,0.8 c -0.33339,0.33335 -0.80006,0.50002 -1.4,0.5 -0.33339,2e-5 -1.16672,-0.0333 -2.5,-0.1 -1.33339,-0.13331 -2.16672,-0.19998 -2.5,-0.2 -2.33338,2e-5 -3.90005,0.30002 -4.7,0.9 l -3.4,3.5 c 0.13329,-0.26665 0.49995,-1.36665 1.1,-3.3 -0.20005,-0.19998 -0.83338,-0.29998 -1.9,-0.3 -0.60004,2e-5 -2.16671,0.10002 -4.7,0.3 -4e-5,0.93335 -0.26671,2.30002 -0.8,4.1 l -0.3,-0.9 c -0.2667,-0.66665 -0.5667,-1.26665 -0.9,-1.8 -0.2667,-0.53332 -0.53337,-0.79998 -0.8,-0.8 -0.60004,2e-5 -1.90003,0.20002 -3.9,0.6 -1.93336,0.40002 -3.20003,0.60002 -3.8,0.6 -1.13336,2e-5 -2.23336,-0.56665 -3.3,-1.7 l 11,-1.2 -2.2,-4.3 2.5,0 c 0.0666,2e-5 0.59996,0.23336 1.6,0.7 -4e-5,0.80002 0.23329,2.00002 0.7,3.6 0.53329,-0.0667 2.93329,-0.43331 7.2,-1.1 0.66662,-2.19998 1.06662,-4.19998 1.2,-6 2.46662,1.40002 3.69995,2.26669 3.7,2.6 l -1.6,2.5 c 0.19995,0.20002 0.56662,0.30002 1.1,0.3 0.33328,2e-5 1.19995,-0.16665 2.6,-0.5 1.39995,-0.39998 2.26661,-0.59998 2.6,-0.6 m -24.7,9.4 c 3.9333,-0.19999 7.19996,-0.53332 9.8,-1 2.59996,-0.46665 4.46662,-0.86665 5.6,-1.2 1.13329,-0.33332 1.99995,-0.49998 2.6,-0.5 0.99995,2e-5 2.33328,0.83335 4,2.5 -0.86672,1.60001 -1.56672,2.96668 -2.1,4.1 -0.53338,1.06667 -0.90005,1.76667 -1.1,2.1 -0.13338,0.33334 -0.36672,0.76667 -0.7,1.3 -0.33338,0.53334 -0.83338,1.33334 -1.5,2.4 -0.73338,-0.66666 -1.43338,-1 -2.1,-1 -1.00004,0 -2.16671,0.26667 -3.5,0.8 l 0,2.2 c 0.13329,0.0667 0.49996,0.1 1.1,0.1 0.0666,0 2.13329,-0.2 6.2,-0.6 4.06661,-0.46666 6.16661,-0.7 6.3,-0.7 0.66661,0 2.06661,0.7 4.2,2.1 -0.46673,0.93333 -0.83339,2.43333 -1.1,4.5 -0.26673,2.06666 -0.70006,4.03332 -1.3,5.9 -0.53339,1.93332 -1.53339,3.53332 -3,4.8 -0.80005,-1.00001 -2.40005,-2.80001 -4.8,-5.4 1.99995,0.33332 3.13328,0.49999 3.4,0.5 1.13328,-1e-5 1.83328,-0.60001 2.1,-1.8 0.26661,-1.13334 0.39994,-3.50001 0.4,-7.1 -0.53339,-0.73333 -1.43339,-1.1 -2.7,-1.1 -4.40005,0 -8.10004,0.43333 -11.1,1.3 l 0,2.7 c 0.39996,0.4 0.76662,0.6 1.1,0.6 0.93329,0 1.99996,-0.3 3.2,-0.9 -0.33338,-0.26667 -0.50005,-0.8 -0.5,-1.6 0.79995,0.0667 1.76662,0.53333 2.9,1.4 1.13328,0.8 1.69995,1.59999 1.7,2.4 -5e-5,1.06666 -0.40005,1.59999 -1.2,1.6 -0.33338,-1e-5 -0.90005,-0.43334 -1.7,-1.3 -0.73338,-0.80001 -1.16671,-1.23334 -1.3,-1.3 -6.80004,1.99999 -10.2667,2.99999 -10.4,3 -0.40004,-10e-6 -0.83337,-0.20001 -1.3,-0.6 -0.40003,-0.40001 -0.6667,-0.83334 -0.8,-1.3 1.46663,-0.20001 3.59996,-0.60001 6.4,-1.2 l 0,-2.4 c -0.0667,-0.6 -0.50004,-0.9 -1.3,-0.9 -3.40004,0 -6.03337,0.26666 -7.9,0.8 -3e-5,1.86666 -3e-5,3.33333 0,4.4 0.0666,1.13333 0.1,1.83332 0.1,2.1 0.0666,0.26666 0.1,0.49999 0.1,0.7 0.0666,0.26666 0.1,0.56666 0.1,0.9 -3e-5,0.13332 -0.10003,0.53332 -0.3,1.2 -0.13336,0.66665 -0.20003,1.09999 -0.2,1.3 -3e-5,0.26665 0.0666,0.46665 0.2,0.6 l -1.1,0 c -0.40003,-1e-5 -0.63336,-0.23335 -0.7,-0.7 -0.40003,-5.53334 -0.96669,-9.63334 -1.7,-12.3 0.59997,0.0667 1.5333,0.23333 2.8,0.5 l 10,-1.5 0.1,-0.2 0,-2.2 c -0.20004,-0.2 -0.60004,-0.3 -1.2,-0.3 -1.6667,0 -2.73337,0.26667 -3.2,0.8 -0.6667,-0.6 -1.4667,-2.3 -2.4,-5.1 -0.93337,-2.86666 -1.6667,-4.66665 -2.2,-5.4 m 14.2,7.3 c 0.86662,1e-5 1.59995,-0.63333 2.2,-1.9 0.66662,-1.26666 0.99995,-2.53332 1,-3.8 -5e-5,-0.46666 -0.13338,-1.06665 -0.4,-1.8 l -5.9,0 0,2.5 c 0.39996,0.20001 0.73329,0.30001 1,0.3 0.19996,10e-6 0.39996,-0.0333 0.6,-0.1 0.26662,-0.0667 0.46662,-0.1 0.6,-0.1 0.79995,10e-6 1.36662,0.40001 1.7,1.2 -0.80005,0.60001 -2.10004,1.10001 -3.9,1.5 l 0,2.2 3.1,0 m -5.3,-6.8 c -0.26671,1e-5 -0.90004,0.10001 -1.9,0.3 -1.00004,0.20001 -1.63337,0.30001 -1.9,0.3 -0.20004,10e-6 -0.63337,-0.16666 -1.3,-0.5 l 1.2,7.8 c 1.66663,-0.2 2.99996,-0.46666 4,-0.8 l 0,-2.3 c -0.46671,-0.0667 -0.93337,-0.1 -1.4,-0.1 -0.40004,10e-6 -0.7667,0.0333 -1.1,0.1 -0.20004,-0.19999 -0.4667,-0.49999 -0.8,-0.9 0.0666,-0.0667 1.16663,-0.43332 3.3,-1.1 -0.0667,-1.73332 -0.10004,-2.66665 -0.1,-2.8"
       sodipodi:nodetypes="ccccscscccsccccscsccccccccccscccssscccscsccscscscccsccsccscccssscsccccsccccscsccccccccscccccscccssscccccssccccscccc"
       style="font-size:100px;font-style:normal;font-variant:normal;font-weight:normal;font-stretch:normal;fill:#ba0000;fill-opacity:1;stroke:none;font-family:Droid Serif;-inkscape-font-specification:Droid Serif" />
  </g>
</svg>
