<?xml version="1.0" encoding="UTF-8" standalone="no"?>
<!-- Created with Inkscape (http://www.inkscape.org/) -->

<svg
   xmlns:dc="http://purl.org/dc/elements/1.1/"
   xmlns:cc="http://creativecommons.org/ns#"
   xmlns:rdf="http://www.w3.org/1999/02/22-rdf-syntax-ns#"
   xmlns:svg="http://www.w3.org/2000/svg"
   xmlns="http://www.w3.org/2000/svg"
   xmlns:sodipodi="http://sodipodi.sourceforge.net/DTD/sodipodi-0.dtd"
   xmlns:inkscape="http://www.inkscape.org/namespaces/inkscape"
   width="74.699997"
   height="95.099998"
   id="svg2"
   version="1.1"
   inkscape:version="0.47 r22583"
   sodipodi:docname="MJ4wan.svg">
  <defs
     id="defs4" />
  <sodipodi:namedview
     id="base"
     pagecolor="#ffffff"
     bordercolor="#666666"
     borderopacity="1.0"
     inkscape:pageopacity="0.0"
     inkscape:pageshadow="2"
     inkscape:zoom="5.6"
     inkscape:cx="71.384497"
     inkscape:cy="52.338454"
     inkscape:document-units="px"
     inkscape:current-layer="svg2"
     showgrid="false"
     inkscape:window-width="1440"
     inkscape:window-height="851"
     inkscape:window-x="0"
     inkscape:window-y="25"
     inkscape:window-maximized="1" />
  <metadata
     id="metadata7">
    <rdf:RDF>
      <cc:Work
         rdf:about="">
        <dc:format>image/svg+xml</dc:format>
        <dc:type
           rdf:resource="http://purl.org/dc/dcmitype/StillImage" />
      </cc:Work>
    </rdf:RDF>
  </metadata>
  <g
     inkscape:label="Layer 1"
     inkscape:groupmode="layer"
     id="layer1"
     transform="translate(-163.90716,-402.24788)">
    <path
       style="fill:#ffffff;fill-opacity:1;fill-rule:nonzero;stroke:none"
       d="m 169.63581,495.43755 c -1.67757,-0.28743 -2.71582,-1.07538 -3.41457,-2.59137 l -0.41051,-0.89063 0,-42.23215 0,-42.23214 0.41051,-0.89063 c 0.50159,-1.08824 0.97715,-1.61529 1.91092,-2.11782 l 0.71428,-0.38441 32.11664,-0.0466 c 21.07046,-0.0306 32.34551,0.0151 32.78206,0.13262 1.01772,0.27404 1.92098,1.06021 2.46573,2.14609 l 0.49271,0.98214 0,42.41071 0,42.41072 -0.49296,1.00381 c -0.51353,1.04568 -1.32848,1.76137 -2.46901,2.1683 -0.46902,0.16735 -7.83067,0.22367 -31.94874,0.24444 -17.23661,0.0148 -31.70728,-0.0361 -32.15706,-0.11312 l 0,0 z"
       id="path3473" />
    <g
       id="g3043"
       style="font-size:100px;font-style:normal;font-variant:normal;font-weight:normal;font-stretch:normal;fill:#20208c;fill-opacity:1;stroke:none;font-family:Droid Serif;-inkscape-font-specification:Droid Serif"
       transform="translate(313.1143,428.86217)">
      <path
         id="path3045"
         d="m -98.285715,-14.69286 c 0.533279,6.4e-5 1.566612,0.500064 3.1,1.5 1.533275,1.000062 2.299941,1.800061 2.3,2.4 -5.9e-5,0.06673 -0.166725,0.366727 -0.5,0.9000003 -0.266725,0.4667253 -0.633391,1.0333914 -1.1,1.7 -0.400057,0.6000568 -0.666723,1.1000563 -0.8,1.5 -0.06672,0.6667218 -0.166723,1.3667211 -0.3,2.0999999 -0.133389,0.6667199 -0.400056,1.900052 -0.8,3.70000006 -0.400055,1.8000483 -0.800055,3.80004634 -1.2,6.00000034 -0.933387,3.60004 -2.433385,6.3000374 -4.499995,8.1000004 -0.46672,-0.333297 -0.73339,-0.633297 -0.8,-0.9 -0.73339,-2.9999604 -1.30005,-4.6999594 -1.7,-5.1000004 -0.40005,-0.466625 -1.60005,-0.699958 -3.6,-0.7 l -14.9,1.4 c -0.4667,4.1e-5 -1.1667,-0.133292 -2.1,-0.4 -0.2667,0.466708 -0.50003,1.10004 -0.7,1.9 l -0.6,0 c -0.33336,3.9e-5 -0.5667,-0.19996 -0.7,-0.6 -0.0667,-0.39996 -0.23336,-1.766625 -0.5,-4.1000003 -0.40003,-3.3999521 -0.80003,-6.5666156 -1.2,-9.5000001 -0.13336,-0.999945 -0.36669,-1.899944 -0.7,-2.6999999 -0.26669,-0.8666091 -0.60003,-1.633275 -1,-2.3 -0.33336,-0.7332733 -0.53336,-1.1999403 -0.6,-1.4000003 -3e-5,-0.733272 0.19997,-1.099938 0.6,-1.1 0.0666,6.2e-5 0.59997,0.133395 1.6,0.4 1.06664,0.200061 1.7333,0.300061 2,0.3 l 28.699995,-3.1 m -4.199995,21.7000006 c 0.59995,-0.599958 1.39994,-2.8332886 2.4,-6.70000034 0.999942,-3.86661386 1.499942,-6.89994416 1.499995,-9.09999996 -5.3e-5,-1.2666073 -0.300053,-2.0999403 -0.9,-2.5000003 -0.533385,-0.399939 -1.566715,-0.599939 -3.099995,-0.6 l -7.9,0.7 c 0.59995,0.333394 1.39995,0.90006 2.4,1.7000003 -0.53338,2.8000559 -0.80005,4.4667208 -0.8,4.9999999 -5e-5,0.8667196 0.16662,1.466719 0.5,1.8000001 0.39995,0.2667183 1.06662,0.4000515 2,0.4 0.19995,5.15e-5 0.63328,-0.066615 1.3,-0.2 0.73328,-0.1332815 1.19995,-0.1999481 1.4,-0.2 1.26661,5.19e-5 2.16661,0.6333846 2.7,1.89999996 -0.86672,0.8667158 -2.53339,1.3000487 -5,1.3 -3.66671,4.87e-5 -5.50004,-1.66661626 -5.5,-5.00000006 -4e-5,-0.2666127 0.0333,-0.8999454 0.1,-1.8999999 0.0666,-1.06661 0.1,-1.733276 0.1,-2 -5e-5,-1.8666073 -0.80004,-2.7999393 -2.4,-2.8000003 -0.0667,6.1e-5 -0.63338,0.06673 -1.7,0.2 -1.00004,0.06673 -1.83337,0.10006 -2.5,0.1 0.13329,0.266727 0.43329,0.666726 0.9,1.2000003 0.53329,0.5333917 0.79996,1.1000578 0.8,1.7 -4e-5,0.9333896 -0.60004,2.7000544 -1.8,5.3 -1.20004,2.60004926 -2.6667,4.3000476 -4.4,5.1 l -1.1,0.7 c -0.20003,4.61e-5 -0.30003,-0.066621 -0.3,-0.2 -3e-5,-0.1999535 0.0666,-0.3999533 0.2,-0.6 2.99996,-3.3999497 4.49996,-6.866613 4.5,-10.4 -4e-5,-0.1332759 -0.0334,-0.4666089 -0.1,-1 -0.0667,-0.5332745 -0.10004,-0.9332743 -0.1,-1.2000003 l 0.2,-0.2 c -0.93337,6e-5 -3.63337,0.233393 -8.1,0.7000003 l 1.7,15.9000003 3.7,0 15.2,-2.2000003 c 0.73328,0.066712 2.09995,1.1000443 4.1,3.1000003"
         sodipodi:nodetypes="csscccssccsccccccccscccsccccssccccscssscssssscccssccscssccccccc"
         style="fill:#20208c;fill-opacity:1" />
    </g>
    <g
       id="g3047"
       style="font-size:100px;font-style:normal;font-variant:normal;font-weight:normal;font-stretch:normal;fill:#ba0000;fill-opacity:1;stroke:none;font-family:Droid Serif;-inkscape-font-specification:Droid Serif"
       transform="translate(234.18573,529.57646)">
      <path
         id="path3049"
         d="m -19.778572,-77.828574 c 0.466613,2.6e-5 1.099946,0.266693 1.9,0.8 0.866611,0.466692 1.366611,0.800025 1.5,1 l 0,0.8 c -0.333389,0.333357 -0.800056,0.500023 -1.4,0.5 -0.333388,2.3e-5 -1.16672,-0.03331 -2.5,-0.1 -1.333384,-0.13331 -2.166717,-0.199977 -2.5,-0.2 -2.333381,2.3e-5 -3.900046,0.300023 -4.7,0.9 l -3.4,3.5 c 0.133291,-0.266647 0.499958,-1.366646 1.1,-3.3 -0.200043,-0.199978 -0.833375,-0.299977 -1.9,-0.3 -0.60004,2.3e-5 -2.166706,0.100022 -4.7,0.3 -3.6e-5,0.933355 -0.266703,2.30002 -0.8,4.1 l -0.3,-0.9 c -0.266702,-0.666647 -0.566701,-1.266646 -0.9,-1.8 -0.266701,-0.533312 -0.533367,-0.799978 -0.8,-0.8 -0.600033,2.2e-5 -1.900032,0.200021 -3.9,0.6 -1.933361,0.400021 -3.200026,0.60002 -3.8,0.6 -1.133358,2e-5 -2.233357,-0.566646 -3.3,-1.7 l 11,-1.2 -2.2,-4.3 2.5,0 c 0.06663,2.8e-5 0.599966,0.233361 1.6,0.7 -3.5e-5,0.800026 0.233298,2.000025 0.7,3.6 0.533297,-0.06664 2.933294,-0.43331 7.2,-1.1 0.666623,-2.199973 1.066622,-4.199971 1.2,-6 2.46662,1.400029 3.699952,2.266695 3.7,2.6 l -1.6,2.5 c 0.199953,0.200025 0.566619,0.300025 1.1,0.3 0.333285,2.5e-5 1.199951,-0.166641 2.6,-0.5 1.399948,-0.399974 2.266614,-0.599974 2.6,-0.6 m -24.7,9.4 c 3.933301,-0.199983 7.199965,-0.533316 9.8,-1 2.599959,-0.466648 4.466624,-0.866648 5.6,-1.2 1.133289,-0.333314 1.999954,-0.499981 2.6,-0.5 0.999953,1.9e-5 2.333285,0.833352 4,2.5 -0.866716,1.600015 -1.566715,2.966681 -2.1,4.1 -0.533381,1.066678 -0.900047,1.766678 -1.1,2.1 -0.13338,0.333344 -0.366713,0.766677 -0.7,1.3 -0.333379,0.533342 -0.833379,1.333341 -1.5,2.4 -0.733377,-0.666659 -1.433377,-0.999992 -2.1,-1 -1.000042,8e-6 -2.166707,0.266674 -3.5,0.8 l 0,2.2 c 0.133294,0.06667 0.49996,0.100005 1.1,0.1 0.06663,5e-6 2.133291,-0.199995 6.2,-0.6 4.066616,-0.466661 6.166614,-0.699994 6.3,-0.7 0.666613,6e-6 2.066612,0.700006 4.2,2.1 -0.466723,0.933337 -0.833389,2.433335 -1.1,4.5 -0.266722,2.066664 -0.700055,4.033329 -1.3,5.9 -0.533387,1.933325 -1.533386,3.533324 -3,4.8 -0.800051,-1.00001 -2.400049,-2.800008 -4.8,-5.4 1.999951,0.333327 3.133283,0.499994 3.4,0.5 1.133282,-6e-6 1.833281,-0.600006 2.1,-1.8 0.266614,-1.133337 0.399947,-3.500001 0.4,-7.1 -0.533386,-0.73333 -1.433385,-1.099996 -2.7,-1.1 -4.400046,4e-6 -8.100042,0.433337 -11.1,1.3 l 0,2.7 c 0.399961,0.399999 0.766627,0.599999 1.1,0.6 0.933292,-1e-6 1.999958,-0.3 3.2,-0.9 -0.333376,-0.266666 -0.500043,-0.799999 -0.5,-1.6 0.799956,0.06667 1.766622,0.533335 2.9,1.4 1.133287,0.8 1.699953,1.599999 1.7,2.4 -4.7e-5,1.066664 -0.400047,1.599996 -1.2,1.6 -0.333379,-4e-6 -0.900045,-0.433337 -1.7,-1.3 -0.733377,-0.800002 -1.16671,-1.233334 -1.3,-1.3 -6.800036,1.999997 -10.2667,2.999996 -10.4,3 -0.400032,-4e-6 -0.833365,-0.200004 -1.3,-0.6 -0.400031,-0.400003 -0.666697,-0.833336 -0.8,-1.3 1.466635,-0.200002 3.599966,-0.600002 6.4,-1.2 l 0,-2.4 c -0.0667,-0.599998 -0.500037,-0.899998 -1.3,-0.9 -3.400032,2e-6 -6.033363,0.266669 -7.9,0.8 -2.8e-5,1.866666 -2.8e-5,3.333332 0,4.4 0.06664,1.133329 0.09997,1.833329 0.1,2.1 0.06664,0.266661 0.09997,0.499995 0.1,0.7 0.06664,0.266661 0.09997,0.56666 0.1,0.9 -2.8e-5,0.133327 -0.100028,0.533326 -0.3,1.2 -0.133361,0.666658 -0.200028,1.099991 -0.2,1.3 -2.8e-5,0.266657 0.06664,0.466657 0.2,0.6 l -1.1,0 c -0.400026,-1e-5 -0.633359,-0.233343 -0.7,-0.7 -0.400026,-5.533337 -0.966692,-9.633333 -1.7,-12.3 0.599975,0.06667 1.533308,0.233336 2.8,0.5 l 10,-1.5 0.1,-0.2 0,-2.2 c -0.200037,-0.199993 -0.600037,-0.299993 -1.2,-0.3 -1.666701,7e-6 -2.733367,0.266673 -3.2,0.8 -0.666699,-0.599993 -1.466698,-2.299991 -2.4,-5.1 -0.933363,-2.866652 -1.666695,-4.666651 -2.2,-5.4 m 14.2,7.3 c 0.866623,9e-6 1.599956,-0.633323 2.2,-1.9 0.666621,-1.266654 0.999954,-2.533319 1,-3.8 -4.6e-5,-0.466651 -0.133379,-1.06665 -0.4,-1.8 l -5.9,0 0,2.5 c 0.39996,0.200014 0.733293,0.300014 1,0.3 0.199959,1.4e-5 0.399959,-0.03332 0.6,-0.1 0.266626,-0.06665 0.466625,-0.09999 0.6,-0.1 0.799958,1.4e-5 1.366624,0.400014 1.7,1.2 -0.800042,0.600013 -2.100041,1.100012 -3.9,1.5 l 0,2.2 3.1,0 m -5.3,-6.8 c -0.266704,1.6e-5 -0.900036,0.100016 -1.9,0.3 -1.000034,0.200016 -1.633367,0.300016 -1.9,0.3 -0.200033,1.6e-5 -0.633366,-0.166651 -1.3,-0.5 l 1.2,7.8 c 1.666632,-0.199991 2.999964,-0.466658 4,-0.8 l 0,-2.3 c -0.466703,-0.06666 -0.93337,-0.09999 -1.4,-0.1 -0.400035,1.2e-5 -0.766702,0.03334 -1.1,0.1 -0.200034,-0.199988 -0.466701,-0.499988 -0.8,-0.9 0.06663,-0.06665 1.166632,-0.433321 3.3,-1.1 -0.0667,-1.733318 -0.100037,-2.666651 -0.1,-2.8"
         sodipodi:nodetypes="ccccscscccsccccscsccccccccccscccssscccscsccscscscccsccsccscccssscsccccsccccscsccccccccscccccscccssscccccssccccscccc"
         style="fill:#ba0000;fill-opacity:1" />
    </g>
  </g>
  <g
     transform="translate(-251.40716,-400.99788)"
     id="g3037"
     inkscape:groupmode="layer"
     inkscape:label="Layer 1">
    <g
       id="g3039"
       style="font-size:100px;font-style:normal;font-variant:normal;font-weight:normal;font-stretch:normal;fill:#000000;fill-opacity:1;stroke:none;font-family:Droid Serif;-inkscape-font-specification:Droid Serif"
       transform="translate(229.00716,422.61217)">
      <path
         id="path3041"
         d="m 97.1,66.285712 c -7.7e-5,4.799983 -2.266742,7.199981 -6.8,7.2 l -61.1,0 c -4.533338,-1.9e-5 -6.800002,-2.400017 -6.8,-7.2 l 0,-80.7 c -2e-6,-4.799927 2.266662,-7.199924 6.8,-7.2 l 61.1,0 c 4.533258,7.6e-5 6.799923,2.400073 6.8,7.2 l 0,80.7 m -1.7,0 0,-80.7 c -7.5e-5,-3.666595 -1.700074,-5.499926 -5.1,-5.5 l -61.1,0 c -3.400006,7.4e-5 -5.100004,1.833405 -5.1,5.5 l 0,80.7 c -4e-6,3.733317 1.699994,5.599982 5.1,5.6 l 61.1,0 c 3.399926,-1.8e-5 5.099925,-1.866683 5.1,-5.6"
         sodipodi:nodetypes="cccccccccccccccccc" />
    </g>
  </g>
</svg>
