<?xml version="1.0" encoding="UTF-8" standalone="no"?>
<!-- Created with Inkscape (http://www.inkscape.org/) -->

<svg
   xmlns:dc="http://purl.org/dc/elements/1.1/"
   xmlns:cc="http://creativecommons.org/ns#"
   xmlns:rdf="http://www.w3.org/1999/02/22-rdf-syntax-ns#"
   xmlns:svg="http://www.w3.org/2000/svg"
   xmlns="http://www.w3.org/2000/svg"
   xmlns:sodipodi="http://sodipodi.sourceforge.net/DTD/sodipodi-0.dtd"
   xmlns:inkscape="http://www.inkscape.org/namespaces/inkscape"
   width="74.699997"
   height="95.099998"
   id="svg2"
   version="1.1"
   inkscape:version="0.47 r22583"
   sodipodi:docname="MJ5wan.svg">
  <defs
     id="defs4" />
  <sodipodi:namedview
     id="base"
     pagecolor="#ffffff"
     bordercolor="#666666"
     borderopacity="1.0"
     inkscape:pageopacity="0.0"
     inkscape:pageshadow="2"
     inkscape:zoom="3.959798"
     inkscape:cx="-20.324449"
     inkscape:cy="43.339391"
     inkscape:document-units="px"
     inkscape:current-layer="g3037"
     showgrid="false"
     inkscape:window-width="1440"
     inkscape:window-height="851"
     inkscape:window-x="0"
     inkscape:window-y="25"
     inkscape:window-maximized="1" />
  <metadata
     id="metadata7">
    <rdf:RDF>
      <cc:Work
         rdf:about="">
        <dc:format>image/svg+xml</dc:format>
        <dc:type
           rdf:resource="http://purl.org/dc/dcmitype/StillImage" />
      </cc:Work>
    </rdf:RDF>
  </metadata>
  <g
     transform="translate(-380.4185,-383.53931)"
     id="g3037"
     inkscape:groupmode="layer"
     inkscape:label="Layer 1">
    <g
       transform="translate(357.12564,414.97503)"
       style="font-size:100px;font-style:normal;font-variant:normal;font-weight:normal;font-stretch:normal;fill:#000000;fill-opacity:1;stroke:none;font-family:Droid Serif;-inkscape-font-specification:Droid Serif"
       id="g3125">
      <path
         d="m 97.992857,56.464285 c -7.8e-5,4.799984 -2.266742,7.199981 -6.8,7.2 l -61.1,0 c -4.533338,-1.9e-5 -6.800003,-2.400016 -6.8,-7.2 l 0,-80.7 c -3e-6,-4.799926 2.266662,-7.199924 6.8,-7.2 l 61.1,0 c 4.533258,7.6e-5 6.799922,2.400074 6.8,7.2 l 0,80.7 m -1.7,0 0,-80.7 c -7.6e-5,-3.666594 -1.700074,-5.499925 -5.1,-5.5 l -61.1,0 c -3.400006,7.5e-5 -5.100005,1.833406 -5.1,5.5 l 0,80.7 c -5e-6,3.733318 1.699994,5.599983 5.1,5.6 l 61.1,0 c 3.399926,-1.7e-5 5.099924,-1.866682 5.1,-5.6"
         id="path3127"
         sodipodi:nodetypes="cccccccccccccccccc" />
    </g>
    <path
       style="fill:#ffffff;fill-opacity:1;fill-rule:nonzero;stroke:none"
       d="m 385.35654,476.52428 c -1.311,-0.47013 -2.08499,-1.24933 -2.62135,-2.639 -0.42285,-1.09557 -0.4483,-3.51994 -0.4483,-42.70403 0,-34.62929 0.0582,-41.74273 0.34948,-42.7456 0.38081,-1.31093 1.57372,-2.56819 2.74874,-2.89702 0.37942,-0.10618 15.06559,-0.19305 32.63593,-0.19305 l 31.94607,0 1.04352,0.59798 c 0.6027,0.34538 1.29612,1.03879 1.64149,1.6415 l 0.59799,1.04351 0,42.42641 0,42.42641 -0.59799,1.04351 c -0.34537,0.60271 -1.03879,1.29612 -1.64149,1.6415 l -1.04352,0.59798 -31.8198,0.0541 c -26.50447,0.045 -31.982,-0.004 -32.79077,-0.29414 z"
       id="path3743" />
    <g
       id="g3129"
       style="font-size:100px;font-style:normal;font-variant:normal;font-weight:normal;font-stretch:normal;fill:#20208c;fill-opacity:1;stroke:none;font-family:Droid Serif;-inkscape-font-specification:Droid Serif"
       transform="translate(447.02921,414.46995)">
      <path
         id="path3131"
         d="m -18.21072,4.7218997 c 0.866615,4.06e-5 1.966613,-0.066626 3.3,-0.2 1.399944,-0.1332924 2.133277,-0.199959 2.2,-0.2 2.533274,4.1e-5 4.3666064,0.9667067 5.5000004,2.9 -0.466728,0.066705 -1.066728,0.2000379 -1.8,0.4 l -16.3000004,0.2 c -0.800043,0.1333707 -2.166709,0.3333705 -4.1,0.6 -1.866705,0.2667033 -3.400037,0.5000364 -4.6,0.7 -1.133368,0.200036 -1.733367,0.3000359 -1.8,0.3 -0.533366,3.59e-5 -1.100033,-0.2332972 -1.7,-0.7 -0.600031,-0.4666296 -0.933364,-0.9332958 -1,-1.4 l 7.4,-0.6 c 0.333295,-0.2666278 0.933294,-1.9332928 1.8,-5 0.933292,-3.1332866 1.399958,-5.0332847 1.4,-5.7 -4.2e-5,-0.4666169 -0.166708,-0.69995 -0.5,-0.7 -0.200041,5e-5 -0.70004,0.1000499 -1.5,0.3 -0.733372,0.2000495 -1.200038,0.3000494 -1.4,0.3 -0.933371,4.94e-5 -1.800036,-0.2332837 -2.6,-0.7 -3.6e-5,-0.3332829 0.06663,-0.5332827 0.2,-0.6 1.333296,-0.1332825 3.233294,-0.4666155 5.7,-1 0.466625,-0.1332815 0.899958,-1.0332806 1.3,-2.7 0.399957,-1.6666107 0.599957,-3.4332757 0.6,-5.3000007 l -5,-1.5 0,-0.6 14.5,-3.3 c 0.866613,0.200065 1.766612,0.533398 2.7,1 l 0,0.9 c -1.466721,0.600063 -3.400052,1.200062 -5.8,1.8 -2.400047,0.533394 -3.733379,0.833394 -4,0.9 0.799953,1.20006 1.199953,1.833392 1.2,1.9 -4.7e-5,0.06672 -0.13338,0.433392 -0.4,1.1 -0.200046,0.666724 -0.500046,1.500056 -0.9,2.5000004 -0.333379,1.0000543 -0.600045,1.8000535 -0.8,2.4000003 0.933288,5.26e-5 2.26662,-0.2666138 4,-0.8 l 2.5,-0.7 c 0.333282,5.41e-5 1.099948,0.4000537 2.3,1.2 1.266612,0.7333855 1.899944,1.3000516 1.9,1.7 -5.6e-5,0.1333844 -0.200055,0.4333841 -0.6,0.9 -0.400055,0.4667165 -0.966721,1.5333821 -1.7,3.2 -0.733386,1.60004549 -1.400052,3.76671 -2,6.5 m -33.1,-7.5 c 3.733311,-4.0666145 6.599975,-7.6332777 8.6,-10.7000007 2.066638,-3.133271 3.233303,-5.199936 3.5,-6.2 0.266636,-1.0666 0.499969,-2.399932 0.7,-4 -3.1e-5,-0.333264 0.233302,-0.59993 0.7,-0.8 2.466633,1.133402 3.699965,2.200068 3.7,3.2 -3.5e-5,0.600066 -0.766701,1.900065 -2.3,3.9 l -3.2,4.2 c 0.06664,5.9e-5 0.166637,0.200059 0.3,0.6 0.133303,0.400058 0.266636,0.900057 0.4,1.5 0.133303,0.533389 0.199969,1.033389 0.2,1.5000004 l -0.2,7.6000003 c -3.1e-5,0.1333805 -0.30003,3.8333768 -0.9,11.1 -0.200029,3.2666993 -0.700029,4.9000313 -1.5,4.8999993 -0.466694,3.2e-5 -0.900027,-0.466635 -1.3,-1.4 -0.33336,-0.999966 -0.500026,-1.866631 -0.5,-2.599999 l 2.1,-18.4000003 c -2.8e-5,-0.5332791 -0.100028,-1.1666123 -0.3,-1.9000007 l -4.8,4.6000007 c -2.000021,1.8667158 -3.733353,2.8333815 -5.2,2.9 m 32.4,-2 c -5.1e-5,-0.3999495 -0.06672,-0.6999492 -0.2,-0.9 l -3.9,0 c -0.200046,5.1e-5 -0.566713,0.1333842 -1.1,0.4 -0.533378,0.266717 -0.833378,0.4667168 -0.9,0.6 l -2.8,10.9 c 0.933291,3.91e-5 2.166623,-0.099961 3.7,-0.3 1.599953,-0.266627 2.566619,-0.3999602 2.9,-0.4 0.466618,-1.0666258 0.799951,-2.0332915 1,-2.9 0.199951,-0.9332897 0.366617,-1.93328871 0.5,-2.99999999 0.133283,-1.06661991 0.29995,-1.96661901 0.5,-2.70000001 0.19995,-1.0666172 0.299949,-1.6332833 0.3,-1.7"
         sodipodi:nodetypes="csscccccsscccsscscccsccccccccsccccccsscccccccsccsscccscccccccccscccccscc"
         style="fill:#20208c;fill-opacity:1" />
    </g>
    <g
       id="g3133"
       style="font-size:100px;font-style:normal;font-variant:normal;font-weight:normal;font-stretch:normal;fill:#ba0000;fill-opacity:1;stroke:none;font-family:Droid Serif;-inkscape-font-specification:Droid Serif"
       transform="translate(262.42384,512.70729)">
      <path
         id="path3135"
         d="m 168.49466,-79.920512 c 0.46661,2.7e-5 1.09994,0.266693 1.9,0.8 0.86661,0.466692 1.36661,0.800025 1.5,1 l 0,0.8 c -0.33339,0.333357 -0.80006,0.500024 -1.4,0.5 -0.33339,2.4e-5 -1.16672,-0.03331 -2.5,-0.1 -1.33339,-0.133309 -2.16672,-0.199976 -2.5,-0.2 -2.33338,2.4e-5 -3.90005,0.300024 -4.7,0.9 l -3.4,3.5 c 0.13329,-0.266647 0.49996,-1.366646 1.1,-3.3 -0.20004,-0.199977 -0.83338,-0.299977 -1.9,-0.3 -0.60004,2.3e-5 -2.16671,0.100023 -4.7,0.3 -4e-5,0.933355 -0.2667,2.300021 -0.8,4.1 l -0.3,-0.9 c -0.2667,-0.666646 -0.5667,-1.266646 -0.9,-1.8 -0.2667,-0.533311 -0.53337,-0.799978 -0.8,-0.8 -0.60003,2.2e-5 -1.90003,0.200022 -3.9,0.6 -1.93336,0.400021 -3.20003,0.600021 -3.8,0.6 -1.13336,2.1e-5 -2.23336,-0.566645 -3.3,-1.7 l 11,-1.2 -2.2,-4.3 2.5,0 c 0.0666,2.8e-5 0.59996,0.233361 1.6,0.7 -4e-5,0.800027 0.2333,2.000026 0.7,3.6 0.53329,-0.06664 2.93329,-0.433309 7.2,-1.1 0.66662,-2.199973 1.06662,-4.199971 1.2,-6 2.46662,1.40003 3.69995,2.266695 3.7,2.6 l -1.6,2.5 c 0.19995,0.200026 0.56662,0.300026 1.1,0.3 0.33328,2.6e-5 1.19995,-0.166641 2.6,-0.5 1.39995,-0.399973 2.26661,-0.599973 2.6,-0.6 m -24.7,9.4 c 3.9333,-0.199982 7.19996,-0.533315 9.8,-1 2.59996,-0.466648 4.46662,-0.866647 5.6,-1.2 1.13329,-0.333313 1.99995,-0.49998 2.6,-0.5 0.99995,2e-5 2.33328,0.833353 4,2.5 -0.86672,1.600016 -1.56672,2.966681 -2.1,4.1 -0.53338,1.066679 -0.90005,1.766678 -1.1,2.1 -0.13338,0.333344 -0.36672,0.766677 -0.7,1.3 -0.33338,0.533343 -0.83338,1.333342 -1.5,2.4 -0.73338,-0.666658 -1.43338,-0.999991 -2.1,-1 -1.00004,9e-6 -2.16671,0.266675 -3.5,0.8 l 0,2.2 c 0.13329,0.06667 0.49996,0.100006 1.1,0.1 0.0666,6e-6 2.13329,-0.199994 6.2,-0.6 4.06661,-0.46666 6.16661,-0.699993 6.3,-0.7 0.66661,7e-6 2.06661,0.700006 4.2,2.1 -0.46673,0.933337 -0.83339,2.433336 -1.1,4.5 -0.26672,2.066665 -0.70006,4.03333 -1.3,5.9 -0.53339,1.933326 -1.53339,3.533324 -3,4.8 -0.80005,-1.000009 -2.40005,-2.800008 -4.8,-5.4 1.99995,0.333328 3.13328,0.499994 3.4,0.5 1.13328,-6e-6 1.83328,-0.600005 2.1,-1.8 0.26661,-1.133336 0.39995,-3.5 0.4,-7.1 -0.53339,-0.733329 -1.43339,-1.099996 -2.7,-1.1 -4.40005,4e-6 -8.10004,0.433337 -11.1,1.3 l 0,2.7 c 0.39996,0.4 0.76663,0.6 1.1,0.6 0.93329,0 1.99996,-0.3 3.2,-0.9 -0.33338,-0.266666 -0.50004,-0.799998 -0.5,-1.6 0.79995,0.06667 1.76662,0.533335 2.9,1.4 1.13328,0.8 1.69995,1.599999 1.7,2.4 -5e-5,1.066664 -0.40005,1.599997 -1.2,1.6 -0.33338,-3e-6 -0.90005,-0.433336 -1.7,-1.3 -0.73338,-0.800001 -1.16671,-1.233334 -1.3,-1.3 -6.80004,1.999998 -10.2667,2.999997 -10.4,3 -0.40003,-3e-6 -0.83337,-0.200003 -1.3,-0.6 -0.40003,-0.400002 -0.6667,-0.833335 -0.8,-1.3 1.46663,-0.200001 3.59996,-0.600001 6.4,-1.2 l 0,-2.4 c -0.0667,-0.599997 -0.50004,-0.899997 -1.3,-0.9 -3.40003,3e-6 -6.03336,0.266669 -7.9,0.8 -3e-5,1.866667 -3e-5,3.333332 0,4.4 0.0666,1.13333 0.1,1.833329 0.1,2.1 0.0666,0.266662 0.1,0.499995 0.1,0.7 0.0666,0.266661 0.1,0.566661 0.1,0.9 -3e-5,0.133327 -0.10003,0.533327 -0.3,1.2 -0.13336,0.666659 -0.20003,1.099992 -0.2,1.3 -3e-5,0.266658 0.0666,0.466658 0.2,0.6 l -1.1,0 c -0.40003,-9e-6 -0.63336,-0.233342 -0.7,-0.7 -0.40003,-5.533336 -0.96669,-9.633332 -1.7,-12.3 0.59997,0.06667 1.53331,0.233337 2.8,0.5 l 10,-1.5 0.1,-0.2 0,-2.2 c -0.20004,-0.199992 -0.60004,-0.299992 -1.2,-0.3 -1.6667,8e-6 -2.73337,0.266674 -3.2,0.8 -0.6667,-0.599993 -1.4667,-2.299991 -2.4,-5.1 -0.93336,-2.866652 -1.6667,-4.66665 -2.2,-5.4 m 14.2,7.3 c 0.86662,10e-6 1.59995,-0.633323 2.2,-1.9 0.66662,-1.266653 0.99995,-2.533319 1,-3.8 -5e-5,-0.46665 -0.13338,-1.06665 -0.4,-1.8 l -5.9,0 0,2.5 c 0.39996,0.200015 0.73329,0.300015 1,0.3 0.19996,1.5e-5 0.39996,-0.03332 0.6,-0.1 0.26662,-0.06665 0.46662,-0.09999 0.6,-0.1 0.79996,1.5e-5 1.36662,0.400015 1.7,1.2 -0.80004,0.600013 -2.10004,1.100013 -3.9,1.5 l 0,2.2 3.1,0 m -5.3,-6.8 c -0.26671,1.7e-5 -0.90004,0.100017 -1.9,0.3 -1.00004,0.200016 -1.63337,0.300016 -1.9,0.3 -0.20004,1.6e-5 -0.63337,-0.16665 -1.3,-0.5 l 1.2,7.8 c 1.66663,-0.199991 2.99996,-0.466657 4,-0.8 l 0,-2.3 c -0.46671,-0.06666 -0.93337,-0.09999 -1.4,-0.1 -0.40004,1.2e-5 -0.7667,0.03334 -1.1,0.1 -0.20004,-0.199988 -0.4667,-0.499987 -0.8,-0.9 0.0666,-0.06665 1.16663,-0.43332 3.3,-1.1 -0.0667,-1.733318 -0.10004,-2.66665 -0.1,-2.8"
         sodipodi:nodetypes="ccccscscccsccccscsccccccccccscccssscccscsccscscscccsccsccscccssscsccccsccccscsccccccccscccccscccssscccccssccccscccc"
         style="fill:#ba0000;fill-opacity:1" />
    </g>
  </g>
</svg>
