<?xml version="1.0" encoding="UTF-8" standalone="no"?>
<!-- Created with Inkscape (http://www.inkscape.org/) -->

<svg
   xmlns:dc="http://purl.org/dc/elements/1.1/"
   xmlns:cc="http://creativecommons.org/ns#"
   xmlns:rdf="http://www.w3.org/1999/02/22-rdf-syntax-ns#"
   xmlns:svg="http://www.w3.org/2000/svg"
   xmlns="http://www.w3.org/2000/svg"
   xmlns:sodipodi="http://sodipodi.sourceforge.net/DTD/sodipodi-0.dtd"
   xmlns:inkscape="http://www.inkscape.org/namespaces/inkscape"
   width="74.699997"
   height="95.099998"
   id="svg2"
   version="1.1"
   inkscape:version="0.47 r22583"
   sodipodi:docname="MJ6wan.svg">
  <defs
     id="defs4" />
  <sodipodi:namedview
     id="base"
     pagecolor="#ffffff"
     bordercolor="#666666"
     borderopacity="1.0"
     inkscape:pageopacity="0.0"
     inkscape:pageshadow="2"
     inkscape:zoom="3.959798"
     inkscape:cx="91.292541"
     inkscape:cy="64.214938"
     inkscape:document-units="px"
     inkscape:current-layer="g3037"
     showgrid="false"
     inkscape:window-width="1440"
     inkscape:window-height="851"
     inkscape:window-x="0"
     inkscape:window-y="25"
     inkscape:window-maximized="1" />
  <metadata
     id="metadata7">
    <rdf:RDF>
      <cc:Work
         rdf:about="">
        <dc:format>image/svg+xml</dc:format>
        <dc:type
           rdf:resource="http://purl.org/dc/dcmitype/StillImage" />
      </cc:Work>
    </rdf:RDF>
  </metadata>
  <g
     transform="translate(-258.31719,-379.91089)"
     id="g3037"
     inkscape:groupmode="layer"
     inkscape:label="Layer 1">
    <path
       style="fill:#ffffff;fill-opacity:1;fill-rule:nonzero;stroke:none"
       d="m 262.33238,472.58364 c -0.66559,-0.37234 -1.20397,-0.94909 -1.57836,-1.69085 l -0.56821,-1.12576 0,-42.29317 c 0,-42.26001 4.1e-4,-42.294 0.52299,-43.37352 0.30701,-0.63419 0.9067,-1.31896 1.4521,-1.6581 l 0.9291,-0.57773 32.07234,-0.0699 c 29.02826,-0.0633 32.17462,-0.0312 33.14997,0.33822 1.23555,0.46795 2.15987,1.55731 2.55797,3.0147 0.19428,0.71123 0.27635,13.23357 0.27734,42.31743 0.002,45.15947 0.0703,43.04126 -1.44475,44.48668 -0.38523,0.36752 -1.02033,0.78909 -1.41134,0.93682 -0.48892,0.18473 -10.74076,0.26731 -32.82996,0.26445 l -32.11903,-0.004 -1.01016,-0.5651 0,0 z"
       id="path3985" />
    <g
       id="g4005"
       style="font-size:100px;font-style:normal;font-variant:normal;font-weight:normal;font-stretch:normal;fill:#20208c;fill-opacity:1;stroke:none;font-family:Droid Serif;-inkscape-font-specification:Droid Serif"
       transform="translate(-29.041889,-1.2626922)">
      <path
         id="path4007"
         d="m 323.55907,392.02612 c 0.79996,6e-5 1.79996,0.50006 3,1.5 1.19996,0.93339 1.79996,1.90006 1.8,2.9 -4e-5,1.26672 -0.56671,1.90005 -1.7,1.9 -0.80004,5e-5 -2.00004,-0.79994 -3.6,-2.4 -1.60004,-1.59994 -2.60004,-2.89994 -3,-3.9 l 3.5,0 m 14.9,9.4 c 1.19994,5e-5 2.46661,0.26672 3.8,0.8 1.39994,0.53338 2.09994,1.20005 2.1,2 -6e-5,0.73338 -1.03339,1.13338 -3.1,1.2 l -8.7,-0.3 c -0.73338,5e-5 -1.46671,5e-5 -2.2,0 -3.86671,5e-5 -8.40004,0.43338 -13.6,1.3 -5.13336,0.80005 -7.76669,1.20005 -7.9,1.2 -1.33336,5e-5 -2.60002,-0.59995 -3.8,-1.8 l 33.4,-4.4 m -0.3,18.7 c -5e-5,0.4667 -0.20005,1.30003 -0.6,2.5 -0.40005,0.13336 -0.63339,0.20003 -0.7,0.2 -0.33339,3e-5 -1.06672,-0.76664 -2.2,-2.3 l -7.5,-10.6 c 7.33328,3.13337 10.99995,6.53337 11,10.2 m -21.2,-10 c 0.66663,0.20004 1.5333,0.63338 2.6,1.3 1.1333,0.60004 1.69996,1.16671 1.7,1.7 -4e-5,0.46671 -0.8667,1.3667 -2.6,2.7 -5.80003,4.6667 -9.23336,7.00003 -10.3,7 l -1.1,0 6.3,-6 c 2.26664,-2.53329 3.39997,-4.76663 3.4,-6.7"
         sodipodi:nodetypes="ccsssccccsccscsccccscccccsccccc"
         style="fill:#20208c;fill-opacity:1" />
    </g>
    <g
       id="g4009"
       style="font-size:100px;font-style:normal;font-variant:normal;font-weight:normal;font-stretch:normal;fill:#ba0000;fill-opacity:1;stroke:none;font-family:Droid Serif;-inkscape-font-specification:Droid Serif"
       transform="translate(154.3008,-6.565993)">
      <path
         id="path4011"
         d="m 154.51639,435.97688 c 0.46661,2e-5 1.09995,0.26669 1.9,0.8 0.86661,0.46669 1.36661,0.80002 1.5,1 l 0,0.8 c -0.33339,0.33335 -0.80006,0.50002 -1.4,0.5 -0.33339,2e-5 -1.16672,-0.0333 -2.5,-0.1 -1.33339,-0.13331 -2.16672,-0.19998 -2.5,-0.2 -2.33338,2e-5 -3.90005,0.30002 -4.7,0.9 l -3.4,3.5 c 0.13329,-0.26665 0.49996,-1.36665 1.1,-3.3 -0.20004,-0.19998 -0.83338,-0.29998 -1.9,-0.3 -0.60004,2e-5 -2.16671,0.10002 -4.7,0.3 -4e-5,0.93335 -0.2667,2.30002 -0.8,4.1 l -0.3,-0.9 c -0.2667,-0.66665 -0.5667,-1.26665 -0.9,-1.8 -0.2667,-0.53332 -0.53337,-0.79998 -0.8,-0.8 -0.60003,2e-5 -1.90003,0.20002 -3.9,0.6 -1.93336,0.40002 -3.20003,0.60002 -3.8,0.6 -1.13336,2e-5 -2.23336,-0.56665 -3.3,-1.7 l 11,-1.2 -2.2,-4.3 2.5,0 c 0.0666,2e-5 0.59996,0.23336 1.6,0.7 -4e-5,0.80002 0.2333,2.00002 0.7,3.6 0.5333,-0.0667 2.93329,-0.43331 7.2,-1.1 0.66662,-2.19998 1.06662,-4.19998 1.2,-6 2.46662,1.40002 3.69995,2.26669 3.7,2.6 l -1.6,2.5 c 0.19995,0.20002 0.56662,0.30002 1.1,0.3 0.33328,2e-5 1.19995,-0.16665 2.6,-0.5 1.39995,-0.39998 2.26661,-0.59998 2.6,-0.6 m -24.7,9.4 c 3.9333,-0.19999 7.19996,-0.53332 9.8,-1 2.59996,-0.46665 4.46662,-0.86665 5.6,-1.2 1.13329,-0.33332 1.99995,-0.49998 2.6,-0.5 0.99995,2e-5 2.33328,0.83335 4,2.5 -0.86672,1.60001 -1.56672,2.96668 -2.1,4.1 -0.53338,1.06667 -0.90005,1.76667 -1.1,2.1 -0.13338,0.33334 -0.36671,0.76667 -0.7,1.3 -0.33338,0.53334 -0.83338,1.33334 -1.5,2.4 -0.73338,-0.66666 -1.43338,-1 -2.1,-1 -1.00004,0 -2.16671,0.26667 -3.5,0.8 l 0,2.2 c 0.13329,0.0667 0.49996,0.1 1.1,0.1 0.0666,0 2.13329,-0.2 6.2,-0.6 4.06662,-0.46667 6.16661,-0.7 6.3,-0.7 0.66661,0 2.06661,0.7 4.2,2.1 -0.46672,0.93333 -0.83339,2.43333 -1.1,4.5 -0.26672,2.06666 -0.70006,4.03332 -1.3,5.9 -0.53339,1.93332 -1.53339,3.53332 -3,4.8 -0.80005,-1.00001 -2.40005,-2.80001 -4.8,-5.4 1.99995,0.33332 3.13328,0.49999 3.4,0.5 1.13328,-1e-5 1.83328,-0.60001 2.1,-1.8 0.26661,-1.13334 0.39995,-3.50001 0.4,-7.1 -0.53339,-0.73333 -1.43339,-1.1 -2.7,-1.1 -4.40005,0 -8.10004,0.43333 -11.1,1.3 l 0,2.7 c 0.39996,0.4 0.76663,0.59999 1.1,0.6 0.93329,-1e-5 1.99996,-0.3 3.2,-0.9 -0.33338,-0.26667 -0.50004,-0.8 -0.5,-1.6 0.79996,0.0667 1.76662,0.53333 2.9,1.4 1.13329,0.8 1.69995,1.59999 1.7,2.4 -5e-5,1.06666 -0.40005,1.59999 -1.2,1.6 -0.33338,-1e-5 -0.90005,-0.43334 -1.7,-1.3 -0.73338,-0.80001 -1.16671,-1.23334 -1.3,-1.3 -6.80004,1.99999 -10.2667,2.99999 -10.4,3 -0.40003,-10e-6 -0.83337,-0.20001 -1.3,-0.6 -0.40003,-0.40001 -0.6667,-0.83334 -0.8,-1.3 1.46663,-0.20001 3.59997,-0.60001 6.4,-1.2 l 0,-2.4 c -0.0667,-0.6 -0.50004,-0.9 -1.3,-0.9 -3.40003,0 -6.03336,0.26666 -7.9,0.8 -3e-5,1.86666 -3e-5,3.33333 0,4.4 0.0666,1.13332 0.1,1.83332 0.1,2.1 0.0666,0.26666 0.1,0.49999 0.1,0.7 0.0666,0.26666 0.1,0.56666 0.1,0.9 -3e-5,0.13332 -0.10003,0.53332 -0.3,1.2 -0.13336,0.66665 -0.20003,1.09999 -0.2,1.3 -3e-5,0.26665 0.0666,0.46665 0.2,0.6 l -1.1,0 c -0.40003,-1e-5 -0.63336,-0.23335 -0.7,-0.7 -0.40003,-5.53334 -0.96669,-9.63334 -1.7,-12.3 0.59997,0.0667 1.53331,0.23333 2.8,0.5 l 10,-1.5 0.1,-0.2 0,-2.2 c -0.20004,-0.2 -0.60004,-0.3 -1.2,-0.3 -1.6667,0 -2.73337,0.26667 -3.2,0.8 -0.6667,-0.6 -1.4667,-2.3 -2.4,-5.1 -0.93336,-2.86666 -1.6667,-4.66666 -2.2,-5.4 m 14.2,7.3 c 0.86662,1e-5 1.59996,-0.63333 2.2,-1.9 0.66662,-1.26666 0.99995,-2.53332 1,-3.8 -5e-5,-0.46666 -0.13338,-1.06665 -0.4,-1.8 l -5.9,0 0,2.5 c 0.39996,0.20001 0.73329,0.30001 1,0.3 0.19996,1e-5 0.39996,-0.0333 0.6,-0.1 0.26662,-0.0667 0.46662,-0.1 0.6,-0.1 0.79996,10e-6 1.36662,0.40001 1.7,1.2 -0.80004,0.60001 -2.10004,1.10001 -3.9,1.5 l 0,2.2 3.1,0 m -5.3,-6.8 c -0.2667,10e-6 -0.90004,0.10001 -1.9,0.3 -1.00003,0.20001 -1.63337,0.30001 -1.9,0.3 -0.20003,1e-5 -0.63337,-0.16666 -1.3,-0.5 l 1.2,7.8 c 1.66663,-0.2 2.99996,-0.46666 4,-0.8 l 0,-2.3 c -0.4667,-0.0667 -0.93337,-0.1 -1.4,-0.1 -0.40004,10e-6 -0.7667,0.0333 -1.1,0.1 -0.20004,-0.19999 -0.4667,-0.49999 -0.8,-0.9 0.0666,-0.0667 1.16663,-0.43332 3.3,-1.1 -0.0667,-1.73332 -0.10004,-2.66665 -0.1,-2.8"
         sodipodi:nodetypes="ccccscscccsccccscsccccccccccscccssscccscsccscscscccsccsccscccssscsccccsccccscsccccccccscccccscccssscccccssccccscccc"
         style="fill:#ba0000;fill-opacity:1" />
    </g>
    <g
       id="g4013"
       style="font-size:100px;font-style:normal;font-variant:normal;font-weight:normal;font-stretch:normal;fill:#000000;fill-opacity:1;stroke:none;font-family:Droid Serif;-inkscape-font-specification:Droid Serif"
       transform="translate(-122.98607,-3.0304592)">
      <path
         id="path4015"
         d="m 456.00326,470.84135 c -8e-5,4.79998 -2.26674,7.19998 -6.8,7.2 l -61.1,0 c -4.53334,-2e-5 -6.8,-2.40002 -6.8,-7.2 l 0,-80.7 c 0,-4.79993 2.26666,-7.19993 6.8,-7.2 l 61.1,0 c 4.53326,7e-5 6.79992,2.40007 6.8,7.2 l 0,80.7 m -1.7,0 0,-80.7 c -8e-5,-3.6666 -1.70007,-5.49993 -5.1,-5.5 l -61.1,0 c -3.40001,7e-5 -5.1,1.8334 -5.1,5.5 l 0,80.7 c 0,3.73331 1.69999,5.59998 5.1,5.6 l 61.1,0 c 3.39993,-2e-5 5.09992,-1.86669 5.1,-5.6"
         sodipodi:nodetypes="cccccccccccccccccc" />
    </g>
  </g>
</svg>
