<?xml version="1.0" encoding="UTF-8" standalone="no"?>
<!-- Created with Inkscape (http://www.inkscape.org/) -->

<svg
   xmlns:dc="http://purl.org/dc/elements/1.1/"
   xmlns:cc="http://creativecommons.org/ns#"
   xmlns:rdf="http://www.w3.org/1999/02/22-rdf-syntax-ns#"
   xmlns:svg="http://www.w3.org/2000/svg"
   xmlns="http://www.w3.org/2000/svg"
   xmlns:sodipodi="http://sodipodi.sourceforge.net/DTD/sodipodi-0.dtd"
   xmlns:inkscape="http://www.inkscape.org/namespaces/inkscape"
   width="74.700005"
   height="95.099998"
   id="svg2"
   version="1.1"
   inkscape:version="0.91 r13725"
   sodipodi:docname="filter.svg">
  <defs
     id="defs4" />
  <sodipodi:namedview
     id="base"
     pagecolor="#ffffff"
     bordercolor="#666666"
     borderopacity="1.0"
     inkscape:pageopacity="0.0"
     inkscape:pageshadow="2"
     inkscape:zoom="3.7"
     inkscape:cx="-34.242066"
     inkscape:cy="18.186271"
     inkscape:document-units="px"
     inkscape:current-layer="g3205"
     showgrid="false"
     inkscape:window-width="1440"
     inkscape:window-height="873"
     inkscape:window-x="0"
     inkscape:window-y="27"
     inkscape:window-maximized="1" />
  <metadata
     id="metadata7">
    <rdf:RDF>
      <cc:Work
         rdf:about="">
        <dc:format>image/svg+xml</dc:format>
        <dc:type
           rdf:resource="http://purl.org/dc/dcmitype/StillImage" />
        <dc:title />
      </cc:Work>
    </rdf:RDF>
  </metadata>
  <g
     transform="translate(-829.38628,-411.35415)"
     id="g3205"
     inkscape:groupmode="layer"
     inkscape:label="Layer 1">
    <g
       transform="translate(799.45962,429.12472)"
       style="font-size:100px;font-style:normal;font-variant:normal;font-weight:normal;font-stretch:normal;fill:#000000;fill-opacity:1;stroke:none;font-family:Droid Serif;-inkscape-font-specification:Droid Serif"
       id="text4077">
      <path
         d="m 104.62666,70.129431 c -8e-5,4.799983 -2.26674,7.199981 -6.800003,7.2 l -61.1,0 c -4.533338,-1.9e-5 -6.800002,-2.400017 -6.8,-7.2 l 0,-80.7 c -2e-6,-4.799926 2.266662,-7.199924 6.8,-7.2 l 61.1,0 c 4.533263,7.6e-5 6.799923,2.400074 6.800003,7.2 l 0,80.7 m -1.7,0 0,-80.7 c -8e-5,-3.666594 -1.70008,-5.499926 -5.100003,-5.5 l -61.1,0 c -3.400006,7.4e-5 -5.100004,1.833406 -5.1,5.5 l 0,80.7 c -4e-6,3.733318 1.699994,5.599983 5.1,5.6 l 61.1,0 c 3.399923,-1.7e-5 5.099923,-1.866682 5.100003,-5.6"
         id="path4082"
         sodipodi:nodetypes="cccccccccccccccccc" />
    </g>
    <path
       style="fill:#810000;fill-opacity:0.23115581;fill-rule:nonzero;stroke:none"
       d="M 4.2572799,92.760496 C 3.4675374,92.362251 2.9416304,91.852351 2.4991372,91.055863 l -0.6313454,-1.136421 0,-42.300138 0,-42.3001379 0.5413383,-1.0101526 c 0.6606408,-1.2327743 1.2158282,-1.734142 2.3374003,-2.1108137 1.2247445,-0.4113214 63.9809956,-0.4113214 65.2057396,0 1.121573,0.3766717 1.67676,0.8780394 2.3374,2.1108137 l 0.541338,1.0101526 0,42.3001379 0,42.300138 -0.631345,1.136421 c -0.442492,0.796488 -0.968401,1.306388 -1.758143,1.704633 l -1.126797,0.568211 -31.965323,0 -31.9653227,0 -1.1267974,-0.568211 z"
       id="path4202"
       transform="translate(829.38628,411.35415)"
       inkscape:export-xdpi="90"
       inkscape:export-ydpi="90" />
  </g>
</svg>
